SplineFontDB: 3.0
FontName: Asap-Regular
FullName: Asap Regular
FamilyName: Asap
Weight: Regular
Copyright: Copyright (c) 2011-2014, Omnibus-Type (www.omnibus-type.com omnibus.type@gmail.com) with Reserved Font Name 'Asap'
Version: 001.006
ItalicAngle: 0
UnderlinePosition: -102.4
UnderlineWidth: 102.4
Ascent: 1638
Descent: 410
sfntRevision: 0x00010189
LayerCount: 2
Layer: 0 1 "Back"  1
Layer: 1 1 "Fore"  0
XUID: [1021 191 1600663927 14431797]
FSType: 8
OS2Version: 3
OS2_WeightWidthSlopeOnly: 0
OS2_UseTypoMetrics: 1
CreationTime: 1410960463
ModificationTime: 1410988456
PfmFamily: 17
TTFWeight: 400
TTFWidth: 5
LineGap: 0
VLineGap: 0
Panose: 2 15 5 4 3 1 2 6 2 3
OS2TypoAscent: 2046
OS2TypoAOffset: 0
OS2TypoDescent: -483
OS2TypoDOffset: 0
OS2TypoLinegap: 0
OS2WinAscent: 2046
OS2WinAOffset: 0
OS2WinDescent: 483
OS2WinDOffset: 0
HheadAscent: 2046
HheadAOffset: 0
HheadDescent: -483
HheadDOffset: 0
OS2SubXSize: 1331
OS2SubYSize: 1229
OS2SubXOff: 0
OS2SubYOff: 154
OS2SupXSize: 1331
OS2SupYSize: 1229
OS2SupXOff: 0
OS2SupYOff: 717
OS2StrikeYSize: 102
OS2StrikeYPos: 641
OS2Vendor: 'OMNI'
OS2CodePages: 20000193.00000000
OS2UnicodeRanges: 20000007.00000000.00000000.00000000
Lookup: 1 0 0 "'aalt' Access All Alternates lookup 0"  {"'aalt' Access All Alternates lookup 0 subtable"  } ['aalt' ('DFLT' <'dflt' > 'grek' <'dflt' > 'latn' <'AZE ' 'CAT ' 'CRT ' 'ESP ' 'KAZ ' 'MOL ' 'NLD ' 'PLK ' 'ROM ' 'TAT ' 'TRK ' 'dflt' > ) ]
Lookup: 6 0 0 "'locl' Localized Forms in Latin lookup 1"  {"'locl' Localized Forms in Latin lookup 1 contextual 0"  "'locl' Localized Forms in Latin lookup 1 contextual 1"  } ['locl' ('latn' <'AZE ' 'CAT ' 'CRT ' 'ESP ' 'KAZ ' 'MOL ' 'PLK ' 'ROM ' 'TAT ' 'TRK ' 'dflt' > ) ]
Lookup: 1 0 0 "'locl' Localized Forms in Latin lookup 2"  {"'locl' Localized Forms in Latin lookup 2 subtable"  } ['locl' ('latn' <'TRK ' > ) ]
Lookup: 1 0 0 "'locl' Localized Forms in Latin lookup 3"  {"'locl' Localized Forms in Latin lookup 3 subtable"  } ['locl' ('latn' <'AZE ' > ) ]

StartChar: .notdef
Encoding: 65536 -1 0
Width: 1052
Flags: MW
HStem: 0 102<178 874 178 1038> 1331 102<176 872 176 176>
VStem: 14 100<195 195 195 1239> 934 104<195 1239 1239 1239>
LayerCount: 2
Fore
SplineSet
14 1434 m 1,0,-1
 1038 1434 l 1,1,-1
 1038 0 l 1,2,-1
 14 0 l 1,3,-1
 14 1434 l 1,0,-1
872 1331 m 1,4,-1
 176 1331 l 1,5,-1
 526 809 l 1,6,-1
 872 1331 l 1,4,-1
115 195 m 1,7,-1
 465 717 l 1,8,-1
 115 1239 l 1,9,-1
 115 195 l 1,7,-1
934 195 m 1,10,-1
 934 1239 l 1,11,-1
 588 717 l 1,12,-1
 934 195 l 1,10,-1
874 102 m 1,13,-1
 524 625 l 1,14,-1
 178 102 l 1,15,-1
 874 102 l 1,13,-1
EndSplineSet
EndChar

StartChar: A
Encoding: 65 65 1
Width: 1255
GlyphClass: 2
Flags: MW
HStem: 365 156<379 868 379 924 322 868> 1249 188<625 629 625 625> 1397 41G<598 657 657 678>
VStem: 25 1206<20 35 20 35>
AnchorPoint: "Anchor-1" 629 1434 basechar 0
AnchorPoint: "Anchor-0" 635 0 basechar 0
LayerCount: 2
Fore
SplineSet
598 1438 m 2,0,-1
 657 1438 l 2,1,2
 729 1438 729 1438 739 1405 c 2,3,-1
 1225 57 l 2,4,5
 1231 43 1231 43 1231 31 c 0,6,7
 1231 -4 1231 -4 1143 -4 c 2,8,-1
 1126 -4 l 2,9,10
 1054 -4 1054 -4 1044 29 c 2,11,-1
 924 365 l 1,12,-1
 322 365 l 1,13,-1
 205 29 l 2,14,15
 195 -4 195 -4 123 -4 c 2,16,-1
 113 -4 l 2,17,18
 25 -4 25 -4 25 31 c 0,19,20
 25 41 25 41 31 59 c 2,21,-1
 516 1405 l 2,22,23
 526 1438 526 1438 598 1438 c 2,0,-1
629 1249 m 1,24,-1
 625 1249 l 1,25,26
 609 1167 609 1167 594 1130 c 2,27,-1
 379 520 l 1,28,-1
 868 520 l 1,29,-1
 653 1130 l 2,30,31
 643 1163 643 1163 629 1249 c 1,24,-1
EndSplineSet
Substitution2: "Single Substitution lookup 20 subtable" ordfeminine
Substitution2: "'aalt' Access All Alternates lookup 0 subtable" ordfeminine
Position2: "'cpsp' Capital Spacing lookup 0 subtable" dx=10 dy=0 dh=20 dv=0
EndChar

StartChar: Aacute
Encoding: 193 193 2
Width: 1255
GlyphClass: 2
Flags: MW
HStem: 365 156<379 868 379 924 322 868> 1249 188<625 629 625 625> 1397 41G<598 657 657 678>
VStem: 25 1206<20 35 20 35>
AnchorPoint: "Anchor-1" 641 1796 basechar 0
AnchorPoint: "Anchor-0" 635 0 basechar 0
LayerCount: 2
Fore
SplineSet
666 1808 m 0,0,1
 697 1861 697 1861 794 1861.5 c 128,-1,2
 891 1862 891 1862 891 1835 c 0,3,4
 891 1821 891 1821 871.5 1796.5 c 128,-1,5
 852 1772 852 1772 791 1702 c 2,6,-1
 698 1597 l 2,7,8
 663 1560 663 1560 605 1560.5 c 128,-1,9
 547 1561 547 1561 547 1581 c 128,-1,10
 547 1601 547 1601 666 1808 c 0,0,1
598 1438 m 2,11,-1
 657 1438 l 2,12,13
 729 1438 729 1438 739 1405 c 2,14,-1
 1225 57 l 2,15,16
 1231 43 1231 43 1231 31 c 0,17,18
 1231 -4 1231 -4 1143 -4 c 2,19,-1
 1126 -4 l 2,20,21
 1054 -4 1054 -4 1044 29 c 2,22,-1
 924 365 l 1,23,-1
 322 365 l 1,24,-1
 205 29 l 2,25,26
 195 -4 195 -4 123 -4 c 2,27,-1
 113 -4 l 2,28,29
 25 -4 25 -4 25 31 c 0,30,31
 25 41 25 41 31 59 c 2,32,-1
 516 1405 l 2,33,34
 526 1438 526 1438 598 1438 c 2,11,-1
629 1249 m 1,35,-1
 625 1249 l 1,36,37
 609 1167 609 1167 594 1130 c 2,38,-1
 379 520 l 1,39,-1
 868 520 l 1,40,-1
 653 1130 l 2,41,42
 643 1163 643 1163 629 1249 c 1,35,-1
EndSplineSet
Position2: "'cpsp' Capital Spacing lookup 0 subtable" dx=10 dy=0 dh=20 dv=0
EndChar

StartChar: Abreve
Encoding: 258 258 3
Width: 1255
GlyphClass: 2
Flags: MW
HStem: 365 156<379 868 379 924 322 868> 1249 188<625 629 625 625> 1397 41G<598 657 657 678> 1561 135<581 681 581 703>
VStem: 25 1206<20 35 20 35>
AnchorPoint: "Anchor-1" 631 1737 basechar 0
AnchorPoint: "Anchor-0" 635 0 basechar 0
LayerCount: 2
Fore
SplineSet
895 1827 m 0,0,1
 926 1827 926 1827 926 1796 c 0,2,3
 926 1685 926 1685 838 1623 c 128,-1,4
 750 1561 750 1561 630 1561 c 128,-1,5
 510 1561 510 1561 422 1623.5 c 128,-1,6
 334 1686 334 1686 334 1796 c 0,7,8
 334 1827 334 1827 365 1827 c 0,9,10
 388 1827 388 1827 392 1818 c 0,11,12
 404 1788 404 1788 410 1776 c 0,13,14
 453 1696 453 1696 630 1696 c 0,15,16
 825 1696 825 1696 857 1793 c 0,17,18
 866 1821 866 1821 875.5 1824 c 128,-1,19
 885 1827 885 1827 895 1827 c 0,0,1
598 1438 m 2,20,-1
 657 1438 l 2,21,22
 729 1438 729 1438 739 1405 c 2,23,-1
 1225 57 l 2,24,25
 1231 43 1231 43 1231 31 c 0,26,27
 1231 -4 1231 -4 1143 -4 c 2,28,-1
 1126 -4 l 2,29,30
 1054 -4 1054 -4 1044 29 c 2,31,-1
 924 365 l 1,32,-1
 322 365 l 1,33,-1
 205 29 l 2,34,35
 195 -4 195 -4 123 -4 c 2,36,-1
 113 -4 l 2,37,38
 25 -4 25 -4 25 31 c 0,39,40
 25 41 25 41 31 59 c 2,41,-1
 516 1405 l 2,42,43
 526 1438 526 1438 598 1438 c 2,20,-1
629 1249 m 1,44,-1
 625 1249 l 1,45,46
 609 1167 609 1167 594 1130 c 2,47,-1
 379 520 l 1,48,-1
 868 520 l 1,49,-1
 653 1130 l 2,50,51
 643 1163 643 1163 629 1249 c 1,44,-1
EndSplineSet
Position2: "'cpsp' Capital Spacing lookup 0 subtable" dx=10 dy=0 dh=20 dv=0
EndChar

StartChar: Abreveacute
Encoding: 7854 7854 4
Width: 1255
GlyphClass: 2
Flags: MW
HStem: 365 156<379 868 379 924 322 868> 1249 188<625 629 625 625> 1397 41G<598 657 657 678> 1561 106<581 681 581 703>
VStem: 25 1206<20 35 20 35>
AnchorPoint: "Anchor-1" 631 1755 basechar 0
AnchorPoint: "Anchor-0" 635 0 basechar 0
LayerCount: 2
Fore
SplineSet
662 1972 m 0,0,1
 693 2025 693 2025 764.5 2025 c 128,-1,2
 836 2025 836 2025 836 1999 c 0,3,4
 836 1977 836 1977 684 1782 c 0,5,6
 655 1745 655 1745 609 1745 c 128,-1,7
 563 1745 563 1745 563.5 1764.5 c 128,-1,8
 564 1784 564 1784 662 1972 c 0,0,1
895 1804 m 0,9,10
 926 1804 926 1804 926 1774 c 0,11,12
 926 1676 926 1676 837 1618.5 c 128,-1,13
 748 1561 748 1561 630 1561 c 128,-1,14
 512 1561 512 1561 423 1618 c 128,-1,15
 334 1675 334 1675 334 1774 c 0,16,17
 334 1805 334 1805 365 1804 c 0,18,19
 381 1804 381 1804 386 1798 c 128,-1,20
 391 1792 391 1792 395 1778 c 0,21,22
 407 1735 407 1735 484 1701 c 128,-1,23
 561 1667 561 1667 631.5 1667 c 128,-1,24
 702 1667 702 1667 763.5 1693.5 c 128,-1,25
 825 1720 825 1720 840.5 1741.5 c 128,-1,26
 856 1763 856 1763 861 1777.5 c 128,-1,27
 866 1792 866 1792 872.5 1798 c 128,-1,28
 879 1804 879 1804 895 1804 c 0,9,10
598 1438 m 2,29,-1
 657 1438 l 2,30,31
 729 1438 729 1438 739 1405 c 2,32,-1
 1225 57 l 2,33,34
 1231 43 1231 43 1231 31 c 0,35,36
 1231 -4 1231 -4 1143 -4 c 2,37,-1
 1126 -4 l 2,38,39
 1054 -4 1054 -4 1044 29 c 2,40,-1
 924 365 l 1,41,-1
 322 365 l 1,42,-1
 205 29 l 2,43,44
 195 -4 195 -4 123 -4 c 2,45,-1
 113 -4 l 2,46,47
 25 -4 25 -4 25 31 c 0,48,49
 25 41 25 41 31 59 c 2,50,-1
 516 1405 l 2,51,52
 526 1438 526 1438 598 1438 c 2,29,-1
629 1249 m 1,53,-1
 625 1249 l 1,54,55
 609 1167 609 1167 594 1130 c 2,56,-1
 379 520 l 1,57,-1
 868 520 l 1,58,-1
 653 1130 l 2,59,60
 643 1163 643 1163 629 1249 c 1,53,-1
EndSplineSet
Position2: "'cpsp' Capital Spacing lookup 0 subtable" dx=10 dy=0 dh=20 dv=0
EndChar

StartChar: Abrevedotbelow
Encoding: 7862 7862 5
Width: 1255
GlyphClass: 2
Flags: MW
HStem: -358 195<610 668> 365 156<379 868 379 924 322 868> 1249 188<625 629 625 625> 1397 41G<598 657 657 678> 1561 135<581 681 581 703>
VStem: 553 172<-313 -209 -327 -196>
AnchorPoint: "Anchor-1" 645 -168 basechar 0
AnchorPoint: "Anchor-0" 635 -416 basechar 0
LayerCount: 2
Fore
SplineSet
895 1827 m 0,0,1
 926 1827 926 1827 926 1796 c 0,2,3
 926 1685 926 1685 838 1623 c 128,-1,4
 750 1561 750 1561 630 1561 c 128,-1,5
 510 1561 510 1561 422 1623.5 c 128,-1,6
 334 1686 334 1686 334 1796 c 0,7,8
 334 1827 334 1827 365 1827 c 0,9,10
 388 1827 388 1827 392 1818 c 0,11,12
 404 1788 404 1788 410 1776 c 0,13,14
 453 1696 453 1696 630 1696 c 0,15,16
 825 1696 825 1696 857 1793 c 0,17,18
 866 1821 866 1821 875.5 1824 c 128,-1,19
 885 1827 885 1827 895 1827 c 0,0,1
598 1438 m 2,20,-1
 657 1438 l 2,21,22
 729 1438 729 1438 739 1405 c 2,23,-1
 1225 57 l 2,24,25
 1231 43 1231 43 1231 31 c 0,26,27
 1231 -4 1231 -4 1143 -4 c 2,28,-1
 1126 -4 l 2,29,30
 1054 -4 1054 -4 1044 29 c 2,31,-1
 924 365 l 1,32,-1
 322 365 l 1,33,-1
 205 29 l 2,34,35
 195 -4 195 -4 123 -4 c 2,36,-1
 113 -4 l 2,37,38
 25 -4 25 -4 25 31 c 0,39,40
 25 41 25 41 31 59 c 2,41,-1
 516 1405 l 2,42,43
 526 1438 526 1438 598 1438 c 2,20,-1
629 1249 m 1,44,-1
 625 1249 l 1,45,46
 609 1167 609 1167 594 1130 c 2,47,-1
 379 520 l 1,48,-1
 868 520 l 1,49,-1
 653 1130 l 2,50,51
 643 1163 643 1163 629 1249 c 1,44,-1
553 -209 m 2,52,53
 553 -164 553 -164 639 -164 c 128,-1,54
 725 -164 725 -164 725 -209 c 2,55,-1
 725 -313 l 2,56,57
 725 -358 725 -358 639 -358 c 128,-1,58
 553 -358 553 -358 553 -313 c 2,59,-1
 553 -209 l 2,52,53
EndSplineSet
Position2: "'cpsp' Capital Spacing lookup 0 subtable" dx=10 dy=0 dh=20 dv=0
EndChar

StartChar: Abrevegrave
Encoding: 7856 7856 6
Width: 1255
GlyphClass: 2
Flags: MW
HStem: 365 156<379 868 379 924 322 868> 1249 188<625 629 625 625> 1397 41G<598 657 657 678> 1561 106<581 681 581 703>
VStem: 25 1206<20 35 20 35>
AnchorPoint: "Anchor-1" 631 1755 basechar 0
AnchorPoint: "Anchor-0" 635 0 basechar 0
LayerCount: 2
Fore
SplineSet
467 1999 m 0,0,1
 467 2026 467 2026 542.5 2025.5 c 128,-1,2
 618 2025 618 2025 641 1972 c 0,3,4
 719 1790 719 1790 719 1765 c 0,5,6
 719 1745 719 1745 671 1745 c 128,-1,7
 623 1745 623 1745 601.5 1776.5 c 128,-1,8
 580 1808 580 1808 563.5 1835 c 128,-1,9
 547 1862 547 1862 535.5 1879 c 128,-1,10
 524 1896 524 1896 513 1912.5 c 128,-1,11
 502 1929 502 1929 495.5 1939.5 c 128,-1,12
 489 1950 489 1950 483 1959 c 128,-1,13
 477 1968 477 1968 475 1973 c 128,-1,14
 473 1978 473 1978 471 1983 c 0,15,16
 467 1994 467 1994 467 1999 c 0,0,1
895 1804 m 0,17,18
 926 1804 926 1804 926 1774 c 0,19,20
 926 1676 926 1676 837 1618.5 c 128,-1,21
 748 1561 748 1561 630 1561 c 128,-1,22
 512 1561 512 1561 423 1618 c 128,-1,23
 334 1675 334 1675 334 1774 c 0,24,25
 334 1805 334 1805 365 1804 c 0,26,27
 381 1804 381 1804 386 1798 c 128,-1,28
 391 1792 391 1792 395 1778 c 0,29,30
 407 1735 407 1735 484 1701 c 128,-1,31
 561 1667 561 1667 631.5 1667 c 128,-1,32
 702 1667 702 1667 763.5 1693.5 c 128,-1,33
 825 1720 825 1720 840.5 1741.5 c 128,-1,34
 856 1763 856 1763 861 1777.5 c 128,-1,35
 866 1792 866 1792 872.5 1798 c 128,-1,36
 879 1804 879 1804 895 1804 c 0,17,18
598 1438 m 2,37,-1
 657 1438 l 2,38,39
 729 1438 729 1438 739 1405 c 2,40,-1
 1225 57 l 2,41,42
 1231 43 1231 43 1231 31 c 0,43,44
 1231 -4 1231 -4 1143 -4 c 2,45,-1
 1126 -4 l 2,46,47
 1054 -4 1054 -4 1044 29 c 2,48,-1
 924 365 l 1,49,-1
 322 365 l 1,50,-1
 205 29 l 2,51,52
 195 -4 195 -4 123 -4 c 2,53,-1
 113 -4 l 2,54,55
 25 -4 25 -4 25 31 c 0,56,57
 25 41 25 41 31 59 c 2,58,-1
 516 1405 l 2,59,60
 526 1438 526 1438 598 1438 c 2,37,-1
629 1249 m 1,61,-1
 625 1249 l 1,62,63
 609 1167 609 1167 594 1130 c 2,64,-1
 379 520 l 1,65,-1
 868 520 l 1,66,-1
 653 1130 l 2,67,68
 643 1163 643 1163 629 1249 c 1,61,-1
EndSplineSet
Position2: "'cpsp' Capital Spacing lookup 0 subtable" dx=10 dy=0 dh=20 dv=0
EndChar

StartChar: Abrevehookabove
Encoding: 7858 7858 7
Width: 1255
GlyphClass: 2
Flags: MW
HStem: 365 156<379 868 379 924 322 868> 1249 188<625 629 625 625> 1397 41G<598 657 657 678> 1561 106<581 681 581 703> 1964 98<583 623>
VStem: 678 117<1894 1927>
AnchorPoint: "Anchor-1" 631 1755 basechar 0
AnchorPoint: "Anchor-0" 635 0 basechar 0
LayerCount: 2
Fore
SplineSet
678 1909 m 0,0,1
 678 1964 678 1964 602 1964 c 0,2,3
 559 1964 559 1964 534.5 1950.5 c 128,-1,4
 510 1937 510 1937 508 1937 c 0,5,6
 496 1937 496 1937 477.5 1963 c 128,-1,7
 459 1989 459 1989 459 2007 c 128,-1,8
 459 2025 459 2025 512 2043.5 c 128,-1,9
 565 2062 565 2062 624.5 2062 c 128,-1,10
 684 2062 684 2062 739.5 2028.5 c 128,-1,11
 795 1995 795 1995 795 1923 c 128,-1,12
 795 1851 795 1851 732.5 1799 c 128,-1,13
 670 1747 670 1747 639 1747 c 128,-1,14
 608 1747 608 1747 585.5 1760.5 c 128,-1,15
 563 1774 563 1774 563 1789 c 128,-1,16
 563 1804 563 1804 620.5 1836 c 128,-1,17
 678 1868 678 1868 678 1909 c 0,0,1
895 1804 m 0,18,19
 926 1804 926 1804 926 1774 c 0,20,21
 926 1676 926 1676 837 1618.5 c 128,-1,22
 748 1561 748 1561 630 1561 c 128,-1,23
 512 1561 512 1561 423 1618 c 128,-1,24
 334 1675 334 1675 334 1774 c 0,25,26
 334 1805 334 1805 365 1804 c 0,27,28
 381 1804 381 1804 386 1798 c 128,-1,29
 391 1792 391 1792 395 1778 c 0,30,31
 407 1735 407 1735 484 1701 c 128,-1,32
 561 1667 561 1667 631.5 1667 c 128,-1,33
 702 1667 702 1667 763.5 1693.5 c 128,-1,34
 825 1720 825 1720 840.5 1741.5 c 128,-1,35
 856 1763 856 1763 861 1777.5 c 128,-1,36
 866 1792 866 1792 872.5 1798 c 128,-1,37
 879 1804 879 1804 895 1804 c 0,18,19
598 1438 m 2,38,-1
 657 1438 l 2,39,40
 729 1438 729 1438 739 1405 c 2,41,-1
 1225 57 l 2,42,43
 1231 43 1231 43 1231 31 c 0,44,45
 1231 -4 1231 -4 1143 -4 c 2,46,-1
 1126 -4 l 2,47,48
 1054 -4 1054 -4 1044 29 c 2,49,-1
 924 365 l 1,50,-1
 322 365 l 1,51,-1
 205 29 l 2,52,53
 195 -4 195 -4 123 -4 c 2,54,-1
 113 -4 l 2,55,56
 25 -4 25 -4 25 31 c 0,57,58
 25 41 25 41 31 59 c 2,59,-1
 516 1405 l 2,60,61
 526 1438 526 1438 598 1438 c 2,38,-1
629 1249 m 1,62,-1
 625 1249 l 1,63,64
 609 1167 609 1167 594 1130 c 2,65,-1
 379 520 l 1,66,-1
 868 520 l 1,67,-1
 653 1130 l 2,68,69
 643 1163 643 1163 629 1249 c 1,62,-1
EndSplineSet
Position2: "'cpsp' Capital Spacing lookup 0 subtable" dx=10 dy=0 dh=20 dv=0
EndChar

StartChar: Abrevetilde
Encoding: 7860 7860 8
Width: 1255
GlyphClass: 2
Flags: MW
HStem: 365 156<379 868 379 924 322 868> 1249 188<625 629 625 625> 1397 41G<598 657 657 678> 1561 106<581 681 581 703> 1849 131<725 759> 1911 131<482 516>
VStem: 25 1206<20 35 20 35>
AnchorPoint: "Anchor-1" 631 1755 basechar 0
AnchorPoint: "Anchor-0" 635 0 basechar 0
LayerCount: 2
Fore
SplineSet
852 2028 m 0,0,1
 889 2055 889 2055 920.5 2014.5 c 128,-1,2
 952 1974 952 1974 911 1933 c 0,3,4
 809 1849 809 1849 729 1849 c 128,-1,5
 649 1849 649 1849 589.5 1880 c 128,-1,6
 530 1911 530 1911 489.5 1911 c 128,-1,7
 449 1911 449 1911 399.5 1875 c 128,-1,8
 350 1839 350 1839 320.5 1884 c 128,-1,9
 291 1929 291 1929 328 1960 c 0,10,11
 434 2042 434 2042 506 2042 c 128,-1,12
 578 2042 578 2042 635 2011 c 128,-1,13
 692 1980 692 1980 740.5 1980.5 c 128,-1,14
 789 1981 789 1981 852 2028 c 0,0,1
895 1804 m 0,15,16
 926 1804 926 1804 926 1774 c 0,17,18
 926 1676 926 1676 837 1618.5 c 128,-1,19
 748 1561 748 1561 630 1561 c 128,-1,20
 512 1561 512 1561 423 1618 c 128,-1,21
 334 1675 334 1675 334 1774 c 0,22,23
 334 1805 334 1805 365 1804 c 0,24,25
 381 1804 381 1804 386 1798 c 128,-1,26
 391 1792 391 1792 395 1778 c 0,27,28
 407 1735 407 1735 484 1701 c 128,-1,29
 561 1667 561 1667 631.5 1667 c 128,-1,30
 702 1667 702 1667 763.5 1693.5 c 128,-1,31
 825 1720 825 1720 840.5 1741.5 c 128,-1,32
 856 1763 856 1763 861 1777.5 c 128,-1,33
 866 1792 866 1792 872.5 1798 c 128,-1,34
 879 1804 879 1804 895 1804 c 0,15,16
598 1438 m 2,35,-1
 657 1438 l 2,36,37
 729 1438 729 1438 739 1405 c 2,38,-1
 1225 57 l 2,39,40
 1231 43 1231 43 1231 31 c 0,41,42
 1231 -4 1231 -4 1143 -4 c 2,43,-1
 1126 -4 l 2,44,45
 1054 -4 1054 -4 1044 29 c 2,46,-1
 924 365 l 1,47,-1
 322 365 l 1,48,-1
 205 29 l 2,49,50
 195 -4 195 -4 123 -4 c 2,51,-1
 113 -4 l 2,52,53
 25 -4 25 -4 25 31 c 0,54,55
 25 41 25 41 31 59 c 2,56,-1
 516 1405 l 2,57,58
 526 1438 526 1438 598 1438 c 2,35,-1
629 1249 m 1,59,-1
 625 1249 l 1,60,61
 609 1167 609 1167 594 1130 c 2,62,-1
 379 520 l 1,63,-1
 868 520 l 1,64,-1
 653 1130 l 2,65,66
 643 1163 643 1163 629 1249 c 1,59,-1
EndSplineSet
Position2: "'cpsp' Capital Spacing lookup 0 subtable" dx=10 dy=0 dh=20 dv=0
EndChar

StartChar: Acircumflex
Encoding: 194 194 9
Width: 1255
GlyphClass: 2
Flags: MW
HStem: 365 156<379 868 379 924 322 868> 1249 188<625 629 625 625> 1397 41G<598 657 657 678> 1542 291<413 653 428 653 602 823 602 827>
VStem: 25 1206<20 35 20 35>
AnchorPoint: "Anchor-1" 954 1624 basechar 0
AnchorPoint: "Anchor-0" 635 0 basechar 0
LayerCount: 2
Fore
SplineSet
602 1833 m 2,0,-1
 653 1833 l 2,1,2
 716 1833 716 1833 748 1788 c 2,3,-1
 864 1608 l 2,4,5
 876 1590 876 1590 877 1573 c 0,6,7
 877 1542 877 1542 827 1542 c 2,8,-1
 823 1542 l 2,9,10
 784 1542 784 1542 756 1569 c 1,11,-1
 627 1720 l 1,12,-1
 502 1569 l 1,13,14
 473 1542 473 1542 432 1542 c 2,15,-1
 428 1542 l 2,16,17
 381 1542 381 1542 381 1571 c 0,18,19
 381 1586 381 1586 393 1608 c 2,20,-1
 508 1788 l 2,21,22
 539 1833 539 1833 602 1833 c 2,0,-1
598 1438 m 2,23,-1
 657 1438 l 2,24,25
 729 1438 729 1438 739 1405 c 2,26,-1
 1225 57 l 2,27,28
 1231 43 1231 43 1231 31 c 0,29,30
 1231 -4 1231 -4 1143 -4 c 2,31,-1
 1126 -4 l 2,32,33
 1054 -4 1054 -4 1044 29 c 2,34,-1
 924 365 l 1,35,-1
 322 365 l 1,36,-1
 205 29 l 2,37,38
 195 -4 195 -4 123 -4 c 2,39,-1
 113 -4 l 2,40,41
 25 -4 25 -4 25 31 c 0,42,43
 25 41 25 41 31 59 c 2,44,-1
 516 1405 l 2,45,46
 526 1438 526 1438 598 1438 c 2,23,-1
629 1249 m 1,47,-1
 625 1249 l 1,48,49
 609 1167 609 1167 594 1130 c 2,50,-1
 379 520 l 1,51,-1
 868 520 l 1,52,-1
 653 1130 l 2,53,54
 643 1163 643 1163 629 1249 c 1,47,-1
EndSplineSet
Position2: "'cpsp' Capital Spacing lookup 0 subtable" dx=10 dy=0 dh=20 dv=0
EndChar

StartChar: Acircumflexacute
Encoding: 7844 7844 10
Width: 1255
GlyphClass: 2
Flags: MW
HStem: 365 156<379 868 379 924 322 868> 1249 188<625 629 625 625> 1397 41G<598 657 657 678> 1542 291<421 662 436 662 610 801 610 805>
VStem: 25 1206<20 35 20 35>
AnchorPoint: "Anchor-1" 918 1698 basechar 0
AnchorPoint: "Anchor-0" 635 0 basechar 0
LayerCount: 2
Fore
SplineSet
948 1915 m 0,0,1
 979 1968 979 1968 1050.5 1968 c 128,-1,2
 1122 1968 1122 1968 1122 1942 c 0,3,4
 1122 1920 1122 1920 971 1724 c 0,5,6
 942 1687 942 1687 896 1687.5 c 128,-1,7
 850 1688 850 1688 850 1707.5 c 128,-1,8
 850 1727 850 1727 948 1915 c 0,0,1
610 1833 m 2,9,-1
 662 1833 l 2,10,11
 707 1833 707 1833 735 1788 c 2,12,-1
 842 1608 l 2,13,14
 854 1590 854 1590 854 1573 c 0,15,16
 854 1542 854 1542 805 1542 c 2,17,-1
 801 1542 l 2,18,19
 752 1542 752 1542 733 1569 c 2,20,-1
 635 1720 l 1,21,-1
 510 1569 l 1,22,23
 481 1542 481 1542 440 1542 c 2,24,-1
 436 1542 l 2,25,26
 389 1542 389 1542 389 1571 c 0,27,28
 389 1586 389 1586 401 1608 c 2,29,-1
 516 1788 l 2,30,31
 547 1833 547 1833 610 1833 c 2,9,-1
598 1438 m 2,32,-1
 657 1438 l 2,33,34
 729 1438 729 1438 739 1405 c 2,35,-1
 1225 57 l 2,36,37
 1231 43 1231 43 1231 31 c 0,38,39
 1231 -4 1231 -4 1143 -4 c 2,40,-1
 1126 -4 l 2,41,42
 1054 -4 1054 -4 1044 29 c 2,43,-1
 924 365 l 1,44,-1
 322 365 l 1,45,-1
 205 29 l 2,46,47
 195 -4 195 -4 123 -4 c 2,48,-1
 113 -4 l 2,49,50
 25 -4 25 -4 25 31 c 0,51,52
 25 41 25 41 31 59 c 2,53,-1
 516 1405 l 2,54,55
 526 1438 526 1438 598 1438 c 2,32,-1
629 1249 m 1,56,-1
 625 1249 l 1,57,58
 609 1167 609 1167 594 1130 c 2,59,-1
 379 520 l 1,60,-1
 868 520 l 1,61,-1
 653 1130 l 2,62,63
 643 1163 643 1163 629 1249 c 1,56,-1
EndSplineSet
Position2: "'cpsp' Capital Spacing lookup 0 subtable" dx=10 dy=0 dh=20 dv=0
EndChar

StartChar: Acircumflexdotbelow
Encoding: 7852 7852 11
Width: 1255
GlyphClass: 2
Flags: MW
HStem: -358 195<610 668> 365 156<379 868 379 924 322 868> 1249 188<625 629 625 625> 1397 41G<598 657 657 678> 1542 291<413 653 428 653 602 823 602 827>
VStem: 553 172<-313 -209 -327 -196>
AnchorPoint: "Anchor-1" 645 -168 basechar 0
AnchorPoint: "Anchor-0" 635 -416 basechar 0
LayerCount: 2
Fore
SplineSet
602 1833 m 2,0,-1
 653 1833 l 2,1,2
 716 1833 716 1833 748 1788 c 2,3,-1
 864 1608 l 2,4,5
 876 1590 876 1590 877 1573 c 0,6,7
 877 1542 877 1542 827 1542 c 2,8,-1
 823 1542 l 2,9,10
 784 1542 784 1542 756 1569 c 1,11,-1
 627 1720 l 1,12,-1
 502 1569 l 1,13,14
 473 1542 473 1542 432 1542 c 2,15,-1
 428 1542 l 2,16,17
 381 1542 381 1542 381 1571 c 0,18,19
 381 1586 381 1586 393 1608 c 2,20,-1
 508 1788 l 2,21,22
 539 1833 539 1833 602 1833 c 2,0,-1
598 1438 m 2,23,-1
 657 1438 l 2,24,25
 729 1438 729 1438 739 1405 c 2,26,-1
 1225 57 l 2,27,28
 1231 43 1231 43 1231 31 c 0,29,30
 1231 -4 1231 -4 1143 -4 c 2,31,-1
 1126 -4 l 2,32,33
 1054 -4 1054 -4 1044 29 c 2,34,-1
 924 365 l 1,35,-1
 322 365 l 1,36,-1
 205 29 l 2,37,38
 195 -4 195 -4 123 -4 c 2,39,-1
 113 -4 l 2,40,41
 25 -4 25 -4 25 31 c 0,42,43
 25 41 25 41 31 59 c 2,44,-1
 516 1405 l 2,45,46
 526 1438 526 1438 598 1438 c 2,23,-1
629 1249 m 1,47,-1
 625 1249 l 1,48,49
 609 1167 609 1167 594 1130 c 2,50,-1
 379 520 l 1,51,-1
 868 520 l 1,52,-1
 653 1130 l 2,53,54
 643 1163 643 1163 629 1249 c 1,47,-1
553 -209 m 2,55,56
 553 -164 553 -164 639 -164 c 128,-1,57
 725 -164 725 -164 725 -209 c 2,58,-1
 725 -313 l 2,59,60
 725 -358 725 -358 639 -358 c 128,-1,61
 553 -358 553 -358 553 -313 c 2,62,-1
 553 -209 l 2,55,56
EndSplineSet
Position2: "'cpsp' Capital Spacing lookup 0 subtable" dx=10 dy=0 dh=20 dv=0
EndChar

StartChar: Acircumflexgrave
Encoding: 7846 7846 12
Width: 1255
GlyphClass: 2
Flags: MW
HStem: 365 156<379 868 379 924 322 868> 1249 188<625 629 625 625> 1397 41G<598 657 657 678> 1542 291<421 662 436 662 610 801 610 805>
VStem: 25 1206<20 35 20 35>
AnchorPoint: "Anchor-1" 918 1698 basechar 0
AnchorPoint: "Anchor-0" 635 0 basechar 0
LayerCount: 2
Fore
SplineSet
754 1942 m 0,0,1
 754 1969 754 1969 829.5 1968.5 c 128,-1,2
 905 1968 905 1968 928 1915 c 0,3,4
 1006 1733 1006 1733 1006 1708 c 0,5,6
 1006 1688 1006 1688 957.5 1688 c 128,-1,7
 909 1688 909 1688 887.5 1719.5 c 128,-1,8
 866 1751 866 1751 850 1777.5 c 128,-1,9
 834 1804 834 1804 822.5 1821.5 c 128,-1,10
 811 1839 811 1839 799.5 1855.5 c 128,-1,11
 788 1872 788 1872 782 1882 c 128,-1,12
 776 1892 776 1892 770 1901.5 c 128,-1,13
 764 1911 764 1911 762 1916 c 128,-1,14
 760 1921 760 1921 758 1926 c 0,15,16
 754 1937 754 1937 754 1942 c 0,0,1
610 1833 m 2,17,-1
 662 1833 l 2,18,19
 707 1833 707 1833 735 1788 c 2,20,-1
 842 1608 l 2,21,22
 854 1590 854 1590 854 1573 c 0,23,24
 854 1542 854 1542 805 1542 c 2,25,-1
 801 1542 l 2,26,27
 752 1542 752 1542 733 1569 c 2,28,-1
 635 1720 l 1,29,-1
 510 1569 l 1,30,31
 481 1542 481 1542 440 1542 c 2,32,-1
 436 1542 l 2,33,34
 389 1542 389 1542 389 1571 c 0,35,36
 389 1586 389 1586 401 1608 c 2,37,-1
 516 1788 l 2,38,39
 547 1833 547 1833 610 1833 c 2,17,-1
598 1438 m 2,40,-1
 657 1438 l 2,41,42
 729 1438 729 1438 739 1405 c 2,43,-1
 1225 57 l 2,44,45
 1231 43 1231 43 1231 31 c 0,46,47
 1231 -4 1231 -4 1143 -4 c 2,48,-1
 1126 -4 l 2,49,50
 1054 -4 1054 -4 1044 29 c 2,51,-1
 924 365 l 1,52,-1
 322 365 l 1,53,-1
 205 29 l 2,54,55
 195 -4 195 -4 123 -4 c 2,56,-1
 113 -4 l 2,57,58
 25 -4 25 -4 25 31 c 0,59,60
 25 41 25 41 31 59 c 2,61,-1
 516 1405 l 2,62,63
 526 1438 526 1438 598 1438 c 2,40,-1
629 1249 m 1,64,-1
 625 1249 l 1,65,66
 609 1167 609 1167 594 1130 c 2,67,-1
 379 520 l 1,68,-1
 868 520 l 1,69,-1
 653 1130 l 2,70,71
 643 1163 643 1163 629 1249 c 1,64,-1
EndSplineSet
Position2: "'cpsp' Capital Spacing lookup 0 subtable" dx=10 dy=0 dh=20 dv=0
EndChar

StartChar: Acircumflexhookabove
Encoding: 7848 7848 13
Width: 1255
GlyphClass: 2
Flags: MW
HStem: 365 156<379 868 379 924 322 868> 1249 188<625 629 625 625> 1397 41G<598 657 657 678> 1542 291<421 662 436 662 610 801 610 805> 1907 98<869 909>
VStem: 965 117<1837 1870>
AnchorPoint: "Anchor-1" 918 1698 basechar 0
AnchorPoint: "Anchor-0" 635 0 basechar 0
LayerCount: 2
Fore
SplineSet
965 1851 m 0,0,1
 965 1906 965 1906 889 1907 c 0,2,3
 846 1907 846 1907 821.5 1893.5 c 128,-1,4
 797 1880 797 1880 795 1880 c 0,5,6
 783 1880 783 1880 764 1905.5 c 128,-1,7
 745 1931 745 1931 745 1949.5 c 128,-1,8
 745 1968 745 1968 798.5 1986.5 c 128,-1,9
 852 2005 852 2005 911.5 2005 c 128,-1,10
 971 2005 971 2005 1026 1971 c 128,-1,11
 1081 1937 1081 1937 1081 1865.5 c 128,-1,12
 1081 1794 1081 1794 1018.5 1742 c 128,-1,13
 956 1690 956 1690 925.5 1690 c 128,-1,14
 895 1690 895 1690 872.5 1703 c 128,-1,15
 850 1716 850 1716 850 1731.5 c 128,-1,16
 850 1747 850 1747 907.5 1778.5 c 128,-1,17
 965 1810 965 1810 965 1851 c 0,0,1
610 1833 m 2,18,-1
 662 1833 l 2,19,20
 707 1833 707 1833 735 1788 c 2,21,-1
 842 1608 l 2,22,23
 854 1590 854 1590 854 1573 c 0,24,25
 854 1542 854 1542 805 1542 c 2,26,-1
 801 1542 l 2,27,28
 752 1542 752 1542 733 1569 c 2,29,-1
 635 1720 l 1,30,-1
 510 1569 l 1,31,32
 481 1542 481 1542 440 1542 c 2,33,-1
 436 1542 l 2,34,35
 389 1542 389 1542 389 1571 c 0,36,37
 389 1586 389 1586 401 1608 c 2,38,-1
 516 1788 l 2,39,40
 547 1833 547 1833 610 1833 c 2,18,-1
598 1438 m 2,41,-1
 657 1438 l 2,42,43
 729 1438 729 1438 739 1405 c 2,44,-1
 1225 57 l 2,45,46
 1231 43 1231 43 1231 31 c 0,47,48
 1231 -4 1231 -4 1143 -4 c 2,49,-1
 1126 -4 l 2,50,51
 1054 -4 1054 -4 1044 29 c 2,52,-1
 924 365 l 1,53,-1
 322 365 l 1,54,-1
 205 29 l 2,55,56
 195 -4 195 -4 123 -4 c 2,57,-1
 113 -4 l 2,58,59
 25 -4 25 -4 25 31 c 0,60,61
 25 41 25 41 31 59 c 2,62,-1
 516 1405 l 2,63,64
 526 1438 526 1438 598 1438 c 2,41,-1
629 1249 m 1,65,-1
 625 1249 l 1,66,67
 609 1167 609 1167 594 1130 c 2,68,-1
 379 520 l 1,69,-1
 868 520 l 1,70,-1
 653 1130 l 2,71,72
 643 1163 643 1163 629 1249 c 1,65,-1
EndSplineSet
Position2: "'cpsp' Capital Spacing lookup 0 subtable" dx=10 dy=0 dh=20 dv=0
EndChar

StartChar: Acircumflextilde
Encoding: 7850 7850 14
Width: 1255
GlyphClass: 2
Flags: MW
HStem: 365 156<379 868 379 924 322 868> 1249 188<625 629 625 625> 1397 41G<598 657 657 678> 1542 242<413 653 428 653 602 823 602 827> 1849 131<727 761> 1911 131<484 518>
VStem: 25 1206<20 35 20 35>
AnchorPoint: "Anchor-1" 874 1714 basechar 0
AnchorPoint: "Anchor-0" 635 0 basechar 0
LayerCount: 2
Fore
SplineSet
854 2028 m 0,0,1
 891 2055 891 2055 923 2014 c 0,2,3
 955 1974 955 1974 913 1933 c 0,4,5
 811 1849 811 1849 731 1849 c 0,6,7
 651 1849 651 1849 592 1880 c 0,8,9
 533 1911 533 1911 492 1911 c 0,10,11
 451 1911 451 1911 401 1875 c 0,12,13
 352 1839 352 1839 323 1884 c 0,14,15
 293 1929 293 1929 330 1960 c 0,16,17
 436 2042 436 2042 508 2042 c 0,18,19
 580 2042 580 2042 637 2011 c 0,20,21
 694 1980 694 1980 742 1980 c 0,22,23
 791 1981 791 1981 854 2028 c 0,0,1
602 1784 m 2,24,-1
 653 1784 l 2,25,26
 702 1784 702 1784 748 1739 c 1,27,-1
 864 1608 l 1,28,29
 876 1590 876 1590 877 1573 c 0,30,31
 877 1542 877 1542 827 1542 c 2,32,-1
 823 1542 l 2,33,34
 796 1542 796 1542 756 1569 c 1,35,-1
 627 1671 l 1,36,-1
 502 1569 l 1,37,38
 463 1542 463 1542 432 1542 c 2,39,-1
 428 1542 l 2,40,41
 381 1542 381 1542 381 1571 c 0,42,43
 381 1586 381 1586 393 1608 c 1,44,-1
 508 1739 l 1,45,46
 557 1784 557 1784 602 1784 c 2,24,-1
598 1438 m 2,47,-1
 657 1438 l 2,48,49
 729 1438 729 1438 739 1405 c 2,50,-1
 1225 57 l 2,51,52
 1231 43 1231 43 1231 31 c 0,53,54
 1231 -4 1231 -4 1143 -4 c 2,55,-1
 1126 -4 l 2,56,57
 1054 -4 1054 -4 1044 29 c 2,58,-1
 924 365 l 1,59,-1
 322 365 l 1,60,-1
 205 29 l 2,61,62
 195 -4 195 -4 123 -4 c 2,63,-1
 113 -4 l 2,64,65
 25 -4 25 -4 25 31 c 0,66,67
 25 41 25 41 31 59 c 2,68,-1
 516 1405 l 2,69,70
 526 1438 526 1438 598 1438 c 2,47,-1
629 1249 m 1,71,-1
 625 1249 l 1,72,73
 609 1167 609 1167 594 1130 c 2,74,-1
 379 520 l 1,75,-1
 868 520 l 1,76,-1
 653 1130 l 2,77,78
 643 1163 643 1163 629 1249 c 1,71,-1
EndSplineSet
Position2: "'cpsp' Capital Spacing lookup 0 subtable" dx=10 dy=0 dh=20 dv=0
EndChar

StartChar: Adieresis
Encoding: 196 196 15
Width: 1255
GlyphClass: 2
Flags: MW
HStem: 365 156<379 868 379 924 322 868> 1249 188<625 629 625 625> 1397 41G<598 657 657 678> 1606 195<453 510 748 805>
VStem: 395 172<1651 1755 1637 1768> 690 172<1651 1755 1637 1768>
AnchorPoint: "Anchor-1" 623 1796 basechar 0
AnchorPoint: "Anchor-0" 635 0 basechar 0
LayerCount: 2
Fore
SplineSet
395 1755 m 2,0,1
 395 1800 395 1800 481 1800 c 128,-1,2
 567 1800 567 1800 567 1755 c 2,3,-1
 567 1651 l 2,4,5
 567 1606 567 1606 481 1606 c 128,-1,6
 395 1606 395 1606 395 1651 c 2,7,-1
 395 1755 l 2,0,1
690 1755 m 2,8,9
 690 1800 690 1800 776 1800 c 128,-1,10
 862 1800 862 1800 862 1755 c 2,11,-1
 862 1651 l 2,12,13
 862 1606 862 1606 776 1606 c 128,-1,14
 690 1606 690 1606 690 1651 c 2,15,-1
 690 1755 l 2,8,9
598 1438 m 2,16,-1
 657 1438 l 2,17,18
 729 1438 729 1438 739 1405 c 2,19,-1
 1225 57 l 2,20,21
 1231 43 1231 43 1231 31 c 0,22,23
 1231 -4 1231 -4 1143 -4 c 2,24,-1
 1126 -4 l 2,25,26
 1054 -4 1054 -4 1044 29 c 2,27,-1
 924 365 l 1,28,-1
 322 365 l 1,29,-1
 205 29 l 2,30,31
 195 -4 195 -4 123 -4 c 2,32,-1
 113 -4 l 2,33,34
 25 -4 25 -4 25 31 c 0,35,36
 25 41 25 41 31 59 c 2,37,-1
 516 1405 l 2,38,39
 526 1438 526 1438 598 1438 c 2,16,-1
629 1249 m 1,40,-1
 625 1249 l 1,41,42
 609 1167 609 1167 594 1130 c 2,43,-1
 379 520 l 1,44,-1
 868 520 l 1,45,-1
 653 1130 l 2,46,47
 643 1163 643 1163 629 1249 c 1,40,-1
EndSplineSet
Position2: "'cpsp' Capital Spacing lookup 0 subtable" dx=10 dy=0 dh=20 dv=0
EndChar

StartChar: Adotbelow
Encoding: 7840 7840 16
Width: 1255
GlyphClass: 2
Flags: MW
HStem: -358 195<610 668> 365 156<379 868 379 924 322 868> 1249 188<625 629 625 625> 1397 41G<598 657 657 678>
VStem: 553 172<-313 -209 -327 -196>
AnchorPoint: "Anchor-1" 645 -168 basechar 0
AnchorPoint: "Anchor-0" 635 -416 basechar 0
LayerCount: 2
Fore
SplineSet
598 1438 m 2,0,-1
 657 1438 l 2,1,2
 729 1438 729 1438 739 1405 c 2,3,-1
 1225 57 l 2,4,5
 1231 43 1231 43 1231 31 c 0,6,7
 1231 -4 1231 -4 1143 -4 c 2,8,-1
 1126 -4 l 2,9,10
 1054 -4 1054 -4 1044 29 c 2,11,-1
 924 365 l 1,12,-1
 322 365 l 1,13,-1
 205 29 l 2,14,15
 195 -4 195 -4 123 -4 c 2,16,-1
 113 -4 l 2,17,18
 25 -4 25 -4 25 31 c 0,19,20
 25 41 25 41 31 59 c 2,21,-1
 516 1405 l 2,22,23
 526 1438 526 1438 598 1438 c 2,0,-1
629 1249 m 1,24,-1
 625 1249 l 1,25,26
 609 1167 609 1167 594 1130 c 2,27,-1
 379 520 l 1,28,-1
 868 520 l 1,29,-1
 653 1130 l 2,30,31
 643 1163 643 1163 629 1249 c 1,24,-1
553 -209 m 2,32,33
 553 -164 553 -164 639 -164 c 128,-1,34
 725 -164 725 -164 725 -209 c 2,35,-1
 725 -313 l 2,36,37
 725 -358 725 -358 639 -358 c 128,-1,38
 553 -358 553 -358 553 -313 c 2,39,-1
 553 -209 l 2,32,33
EndSplineSet
Position2: "'cpsp' Capital Spacing lookup 0 subtable" dx=10 dy=0 dh=20 dv=0
EndChar

StartChar: Agrave
Encoding: 192 192 17
Width: 1255
GlyphClass: 2
Flags: MW
HStem: 365 156<379 868 379 924 322 868> 1249 188<625 629 625 625> 1397 41G<598 657 657 678>
VStem: 25 1206<20 35 20 35>
AnchorPoint: "Anchor-1" 618 1796 basechar 0
AnchorPoint: "Anchor-0" 635 0 basechar 0
LayerCount: 2
Fore
SplineSet
387 1835 m 0,0,1
 387 1862 387 1862 484.5 1862 c 128,-1,2
 582 1862 582 1862 612 1808 c 0,3,4
 731 1601 731 1601 731 1581 c 128,-1,5
 731 1561 731 1561 672.5 1561 c 128,-1,6
 614 1561 614 1561 580 1597 c 0,7,8
 400 1803 400 1803 393.5 1815 c 128,-1,9
 387 1827 387 1827 387 1835 c 0,0,1
598 1438 m 2,10,-1
 657 1438 l 2,11,12
 729 1438 729 1438 739 1405 c 2,13,-1
 1225 57 l 2,14,15
 1231 43 1231 43 1231 31 c 0,16,17
 1231 -4 1231 -4 1143 -4 c 2,18,-1
 1126 -4 l 2,19,20
 1054 -4 1054 -4 1044 29 c 2,21,-1
 924 365 l 1,22,-1
 322 365 l 1,23,-1
 205 29 l 2,24,25
 195 -4 195 -4 123 -4 c 2,26,-1
 113 -4 l 2,27,28
 25 -4 25 -4 25 31 c 0,29,30
 25 41 25 41 31 59 c 2,31,-1
 516 1405 l 2,32,33
 526 1438 526 1438 598 1438 c 2,10,-1
629 1249 m 1,34,-1
 625 1249 l 1,35,36
 609 1167 609 1167 594 1130 c 2,37,-1
 379 520 l 1,38,-1
 868 520 l 1,39,-1
 653 1130 l 2,40,41
 643 1163 643 1163 629 1249 c 1,34,-1
EndSplineSet
Position2: "'cpsp' Capital Spacing lookup 0 subtable" dx=10 dy=0 dh=20 dv=0
EndChar

StartChar: Ahookabove
Encoding: 7842 7842 18
Width: 1255
GlyphClass: 2
Flags: MW
HStem: 365 156<379 868 379 924 322 868> 1249 188<625 629 625 625> 1397 41G<598 657 657 678> 1794 104<607 647>
VStem: 702 127<1688 1757>
AnchorPoint: "Anchor-1" 631 1796 basechar 0
AnchorPoint: "Anchor-0" 635 0 basechar 0
LayerCount: 2
Fore
SplineSet
702 1739 m 0,0,1
 702 1794 702 1794 627 1794 c 0,2,3
 577 1794 577 1794 556 1780.5 c 128,-1,4
 535 1767 535 1767 532 1767 c 0,5,6
 520 1767 520 1767 501.5 1793 c 128,-1,7
 483 1819 483 1819 483 1837 c 128,-1,8
 483 1855 483 1855 536.5 1876.5 c 128,-1,9
 590 1898 590 1898 650.5 1898 c 128,-1,10
 711 1898 711 1898 770 1863.5 c 128,-1,11
 829 1829 829 1829 829 1747 c 128,-1,12
 829 1665 829 1665 752.5 1590.5 c 128,-1,13
 676 1516 676 1516 643 1516 c 0,14,15
 627 1516 627 1516 601 1527 c 128,-1,16
 575 1538 575 1538 575 1555.5 c 128,-1,17
 575 1573 575 1573 607 1599.5 c 128,-1,18
 639 1626 639 1626 670.5 1661 c 128,-1,19
 702 1696 702 1696 702 1739 c 0,0,1
598 1438 m 2,20,-1
 657 1438 l 2,21,22
 729 1438 729 1438 739 1405 c 2,23,-1
 1225 57 l 2,24,25
 1231 43 1231 43 1231 31 c 0,26,27
 1231 -4 1231 -4 1143 -4 c 2,28,-1
 1126 -4 l 2,29,30
 1054 -4 1054 -4 1044 29 c 2,31,-1
 924 365 l 1,32,-1
 322 365 l 1,33,-1
 205 29 l 2,34,35
 195 -4 195 -4 123 -4 c 2,36,-1
 113 -4 l 2,37,38
 25 -4 25 -4 25 31 c 0,39,40
 25 41 25 41 31 59 c 2,41,-1
 516 1405 l 2,42,43
 526 1438 526 1438 598 1438 c 2,20,-1
629 1249 m 1,44,-1
 625 1249 l 1,45,46
 609 1167 609 1167 594 1130 c 2,47,-1
 379 520 l 1,48,-1
 868 520 l 1,49,-1
 653 1130 l 2,50,51
 643 1163 643 1163 629 1249 c 1,44,-1
EndSplineSet
Position2: "'cpsp' Capital Spacing lookup 0 subtable" dx=10 dy=0 dh=20 dv=0
EndChar

StartChar: Amacron
Encoding: 256 256 19
Width: 1255
GlyphClass: 2
Flags: MW
HStem: 365 156<379 868 379 924 322 868> 1249 188<625 629 625 625> 1397 41G<598 657 657 678> 1616 143<387 858 401 858>
VStem: 25 1206<20 35 20 35>
AnchorPoint: "Anchor-1" 627 1796 basechar 0
AnchorPoint: "Anchor-0" 635 0 basechar 0
LayerCount: 2
Fore
SplineSet
401 1759 m 2,0,-1
 858 1759 l 2,1,2
 899 1759 899 1759 899 1698 c 2,3,-1
 899 1677 l 2,4,5
 899 1616 899 1616 858 1616 c 2,6,-1
 401 1616 l 2,7,8
 360 1616 360 1616 360 1677 c 2,9,-1
 360 1698 l 2,10,11
 360 1759 360 1759 401 1759 c 2,0,-1
598 1438 m 2,12,-1
 657 1438 l 2,13,14
 729 1438 729 1438 739 1405 c 2,15,-1
 1225 57 l 2,16,17
 1231 43 1231 43 1231 31 c 0,18,19
 1231 -4 1231 -4 1143 -4 c 2,20,-1
 1126 -4 l 2,21,22
 1054 -4 1054 -4 1044 29 c 2,23,-1
 924 365 l 1,24,-1
 322 365 l 1,25,-1
 205 29 l 2,26,27
 195 -4 195 -4 123 -4 c 2,28,-1
 113 -4 l 2,29,30
 25 -4 25 -4 25 31 c 0,31,32
 25 41 25 41 31 59 c 2,33,-1
 516 1405 l 2,34,35
 526 1438 526 1438 598 1438 c 2,12,-1
629 1249 m 1,36,-1
 625 1249 l 1,37,38
 609 1167 609 1167 594 1130 c 2,39,-1
 379 520 l 1,40,-1
 868 520 l 1,41,-1
 653 1130 l 2,42,43
 643 1163 643 1163 629 1249 c 1,36,-1
EndSplineSet
Position2: "'cpsp' Capital Spacing lookup 0 subtable" dx=10 dy=0 dh=20 dv=0
EndChar

StartChar: Aogonek
Encoding: 260 260 20
Width: 1255
GlyphClass: 2
Flags: MW
HStem: -375 143<1275 1314 1275 1327> 365 156<379 868 379 924 322 868> 1249 188<625 629 625 625> 1397 41G<598 657 657 678>
VStem: 1034 137<-176 -145>
AnchorPoint: "Anchor-1" 629 1434 basechar 0
AnchorPoint: "Anchor-0" 1018 -416 basechar 0
LayerCount: 2
Fore
SplineSet
1298 -231 m 1,0,-1
 1405 -211 l 1,1,2
 1444 -211 1444 -211 1444 -269.5 c 128,-1,3
 1444 -328 1444 -328 1402 -351.5 c 128,-1,4
 1360 -375 1360 -375 1280 -375 c 128,-1,5
 1200 -375 1200 -375 1147 -351.5 c 128,-1,6
 1094 -328 1094 -328 1072 -291 c 0,7,8
 1034 -226 1034 -226 1034 -166 c 0,9,10
 1034 -49 1034 -49 1085 0 c 1,11,12
 1052 6 1052 6 1044 29 c 2,13,-1
 924 365 l 1,14,-1
 322 365 l 1,15,-1
 205 29 l 2,16,17
 195 -4 195 -4 123 -4 c 2,18,-1
 113 -4 l 2,19,20
 25 -4 25 -4 25 31 c 0,21,22
 25 41 25 41 31 59 c 2,23,-1
 516 1405 l 2,24,25
 526 1438 526 1438 598 1438 c 2,26,-1
 657 1438 l 2,27,28
 729 1438 729 1438 739 1405 c 2,29,-1
 1225 57 l 2,30,31
 1231 43 1231 43 1231 31 c 0,32,33
 1231 8 1231 8 1196 2 c 1,34,-1
 1196 -2 l 2,35,36
 1196 -14 1196 -14 1183.5 -57 c 128,-1,37
 1171 -100 1171 -100 1171 -127 c 0,38,39
 1171 -231 1171 -231 1298 -231 c 1,0,-1
868 520 m 1,40,-1
 653 1130 l 2,41,42
 643 1163 643 1163 629 1249 c 1,43,-1
 625 1249 l 1,44,45
 609 1167 609 1167 594 1130 c 2,46,-1
 379 520 l 1,47,-1
 868 520 l 1,40,-1
EndSplineSet
Position2: "'cpsp' Capital Spacing lookup 0 subtable" dx=10 dy=0 dh=20 dv=0
EndChar

StartChar: Aring
Encoding: 197 197 21
Width: 1255
GlyphClass: 2
Flags: MW
HStem: 365 156<379 868 379 924 322 868> 1249 188<625 629 625 625> 1397 41G<598 657 657 678> 1518 72<600 657 600 677> 1792 72<600 657>
VStem: 457 72<1661 1718 1661 1738> 731 72<1661 1718>
AnchorPoint: "Anchor-1" 629 1796 basechar 0
AnchorPoint: "Anchor-0" 635 0 basechar 0
LayerCount: 2
Fore
SplineSet
628.5 1864 m 128,-1,1
 700 1864 700 1864 751.5 1812.5 c 128,-1,2
 803 1761 803 1761 803 1689.5 c 128,-1,3
 803 1618 803 1618 751.5 1568 c 128,-1,4
 700 1518 700 1518 628.5 1518 c 128,-1,5
 557 1518 557 1518 507 1568 c 128,-1,6
 457 1618 457 1618 457 1689.5 c 128,-1,7
 457 1761 457 1761 507 1812.5 c 128,-1,0
 557 1864 557 1864 628.5 1864 c 128,-1,1
629 1792 m 128,-1,9
 586 1792 586 1792 557 1762.5 c 128,-1,10
 528 1733 528 1733 528 1690 c 128,-1,11
 528 1647 528 1647 557 1618 c 128,-1,12
 586 1589 586 1589 629 1589 c 128,-1,13
 672 1589 672 1589 701.5 1618 c 128,-1,14
 731 1647 731 1647 731 1690 c 128,-1,15
 731 1733 731 1733 701.5 1762.5 c 128,-1,8
 672 1792 672 1792 629 1792 c 128,-1,9
598 1438 m 2,16,-1
 657 1438 l 2,17,18
 729 1438 729 1438 739 1405 c 2,19,-1
 1225 57 l 2,20,21
 1231 43 1231 43 1231 31 c 0,22,23
 1231 -4 1231 -4 1143 -4 c 2,24,-1
 1126 -4 l 2,25,26
 1054 -4 1054 -4 1044 29 c 2,27,-1
 924 365 l 1,28,-1
 322 365 l 1,29,-1
 205 29 l 2,30,31
 195 -4 195 -4 123 -4 c 2,32,-1
 113 -4 l 2,33,34
 25 -4 25 -4 25 31 c 0,35,36
 25 41 25 41 31 59 c 2,37,-1
 516 1405 l 2,38,39
 526 1438 526 1438 598 1438 c 2,16,-1
629 1249 m 1,40,-1
 625 1249 l 1,41,42
 609 1167 609 1167 594 1130 c 2,43,-1
 379 520 l 1,44,-1
 868 520 l 1,45,-1
 653 1130 l 2,46,47
 643 1163 643 1163 629 1249 c 1,40,-1
EndSplineSet
Position2: "'cpsp' Capital Spacing lookup 0 subtable" dx=10 dy=0 dh=20 dv=0
EndChar

StartChar: Aringacute
Encoding: 506 506 22
Width: 1255
GlyphClass: 2
Flags: MW
HStem: 365 156<379 868 379 924 322 868> 1249 100<625 629 625 625> 1552 72<600 657> 1683 219<578 782>
VStem: 457 72<1430 1479 1421 1498> 731 72<1428 1479>
AnchorPoint: "Anchor-1" 629 1556 basechar 0
AnchorPoint: "Anchor-0" 0 0 basechar 0
LayerCount: 2
Fore
SplineSet
738 1760 m 2,0,1
 719 1741 719 1741 691.5 1712 c 128,-1,2
 664 1683 664 1683 605.5 1683 c 128,-1,3
 547 1683 547 1683 547 1704 c 1,4,5
 586 1782 586 1782 618.5 1842.5 c 128,-1,6
 651 1903 651 1903 749.5 1903 c 128,-1,7
 848 1903 848 1903 848 1876 c 0,8,9
 848 1868 848 1868 835 1854 c 2,10,-1
 814 1834 l 2,11,12
 807 1827 807 1827 794.5 1815.5 c 128,-1,13
 782 1804 782 1804 770 1792 c 2,14,15
 738 1760 l 2,0,1
762 1339 m 1,16,-1
 1225 57 l 2,17,18
 1231 43 1231 43 1231 31 c 0,19,20
 1231 -4 1231 -4 1143 -4 c 2,21,-1
 1126 -4 l 2,22,23
 1054 -4 1054 -4 1044 29 c 2,24,-1
 924 365 l 1,25,-1
 322 365 l 1,26,-1
 205 29 l 2,27,28
 195 -4 195 -4 123 -4 c 2,29,-1
 113 -4 l 2,30,31
 25 -4 25 -4 25 31 c 0,32,33
 25 41 25 41 31 59 c 2,34,-1
 494 1343 l 1,35,36
 457 1390 457 1390 457 1456 c 128,-1,37
 457 1522 457 1522 507 1573 c 128,-1,38
 557 1624 557 1624 628.5 1624 c 128,-1,39
 700 1624 700 1624 751.5 1573 c 128,-1,40
 803 1522 803 1522 803 1454 c 128,-1,41
 803 1386 803 1386 762 1339 c 1,16,-1
629 1552 m 128,-1,43
 586 1552 586 1552 557 1522.5 c 128,-1,44
 528 1493 528 1493 528 1450 c 128,-1,45
 528 1407 528 1407 557 1378.5 c 128,-1,46
 586 1350 586 1350 629 1350 c 128,-1,47
 672 1350 672 1350 701.5 1378.5 c 128,-1,48
 731 1407 731 1407 731 1450 c 128,-1,49
 731 1493 731 1493 701.5 1522.5 c 128,-1,42
 672 1552 672 1552 629 1552 c 128,-1,43
868 520 m 1,50,-1
 653 1130 l 2,51,52
 643 1163 643 1163 629 1249 c 1,53,-1
 625 1249 l 1,54,55
 609 1167 609 1167 594 1130 c 2,56,-1
 379 520 l 1,57,-1
 868 520 l 1,50,-1
EndSplineSet
Position2: "'cpsp' Capital Spacing lookup 0 subtable" dx=10 dy=0 dh=20 dv=0
EndChar

StartChar: Atilde
Encoding: 195 195 23
Width: 1255
GlyphClass: 2
Flags: MW
HStem: 365 156<379 868 379 924 322 868> 1249 188<625 629 625 625> 1397 41G<598 657 657 678> 1561 131<745 781> 1622 131<478 515>
VStem: 25 1206<20 35 20 35>
AnchorPoint: "Anchor-1" 649 1796 basechar 0
AnchorPoint: "Anchor-0" 635 0 basechar 0
LayerCount: 2
Fore
SplineSet
885 1739 m 0,0,1
 924 1766 924 1766 958 1724 c 0,2,3
 993 1683 993 1683 950 1645 c 0,4,5
 835 1561 835 1561 748 1561 c 0,6,7
 660 1561 660 1561 594 1591 c 0,8,9
 528 1622 528 1622 485 1622 c 0,10,11
 442 1622 442 1622 388 1586 c 0,12,13
 334 1550 334 1550 300 1596 c 0,14,15
 266 1642 266 1642 307 1671 c 0,16,17
 426 1753 426 1753 506 1753 c 0,18,19
 586 1753 586 1753 647 1722 c 0,20,21
 708 1691 708 1691 762 1692 c 0,22,23
 815 1692 815 1692 885 1739 c 0,0,1
598 1438 m 2,24,-1
 657 1438 l 2,25,26
 729 1438 729 1438 739 1405 c 2,27,-1
 1225 57 l 2,28,29
 1231 43 1231 43 1231 31 c 0,30,31
 1231 -4 1231 -4 1143 -4 c 2,32,-1
 1126 -4 l 2,33,34
 1054 -4 1054 -4 1044 29 c 2,35,-1
 924 365 l 1,36,-1
 322 365 l 1,37,-1
 205 29 l 2,38,39
 195 -4 195 -4 123 -4 c 2,40,-1
 113 -4 l 2,41,42
 25 -4 25 -4 25 31 c 0,43,44
 25 41 25 41 31 59 c 2,45,-1
 516 1405 l 2,46,47
 526 1438 526 1438 598 1438 c 2,24,-1
629 1249 m 1,48,-1
 625 1249 l 1,49,50
 609 1167 609 1167 594 1130 c 2,51,-1
 379 520 l 1,52,-1
 868 520 l 1,53,-1
 653 1130 l 2,54,55
 643 1163 643 1163 629 1249 c 1,48,-1
EndSplineSet
Position2: "'cpsp' Capital Spacing lookup 0 subtable" dx=10 dy=0 dh=20 dv=0
EndChar

StartChar: AE
Encoding: 198 198 24
Width: 1873
GlyphClass: 2
Flags: MW
HStem: 0 156<1035 1645 1145 1645 1145 1645> 365 154<393 883 393 918 313 883> 655 156<1036 1581 1036 1036> 1278 156<901 1642 901 901>
VStem: -23 1708<19 61>
AnchorPoint: "Anchor-1" 938 1434 basechar 0
AnchorPoint: "Anchor-0" 0 0 basechar 0
LayerCount: 2
Fore
SplineSet
731 1434 m 2,0,-1
 1642 1434 l 2,1,2
 1683 1434 1683 1434 1683 1372 c 2,3,-1
 1683 1339 l 2,4,5
 1683 1278 1683 1278 1642 1278 c 2,6,-1
 901 1278 l 1,7,-1
 1004 811 l 1,8,-1
 1581 811 l 2,9,10
 1622 811 1622 811 1622 750 c 2,11,-1
 1622 717 l 2,12,13
 1622 656 1622 656 1581 655 c 2,14,-1
 1036 655 l 1,15,-1
 1145 156 l 1,16,-1
 1645 156 l 2,17,18
 1686 156 1686 156 1686 94 c 2,19,-1
 1686 61 l 2,20,21
 1686 0 1686 0 1645 0 c 2,22,-1
 1057 0 l 2,23,24
 996 0 996 0 983 59 c 2,25,-1
 918 365 l 1,26,-1
 313 365 l 1,27,-1
 150 29 l 1,28,29
 132 -4 132 -4 68 -4 c 2,30,-1
 57 -4 l 2,31,32
 -23 -4 -23 -4 -23 31 c 0,33,34
 -23 47 -23 47 -14 63 c 2,35,-1
 643 1378 l 2,36,37
 670 1434 670 1434 731 1434 c 2,0,-1
739 1249 m 1,38,-1
 696 1130 l 1,39,-1
 393 518 l 1,40,-1
 883 518 l 1,41,-1
 752 1130 l 1,42,-1
 743 1249 l 1,43,-1
 739 1249 l 1,38,-1
EndSplineSet
Position2: "'cpsp' Capital Spacing lookup 0 subtable" dx=10 dy=0 dh=20 dv=0
EndChar

StartChar: AEacute
Encoding: 508 508 25
Width: 1873
GlyphClass: 2
Flags: MW
HStem: 0 156<1035 1645 1145 1645 1145 1645> 365 154<393 883 393 918 313 883> 655 156<1036 1581 1036 1036> 1278 156<901 1642 901 901>
VStem: -23 1708<19 61>
AnchorPoint: "Anchor-1" 950 1796 basechar 0
AnchorPoint: "Anchor-0" 0 0 basechar 0
LayerCount: 2
Fore
SplineSet
975 1808 m 0,0,1
 1006 1861 1006 1861 1103 1861.5 c 128,-1,2
 1200 1862 1200 1862 1200 1835 c 0,3,4
 1200 1821 1200 1821 1180.5 1796.5 c 128,-1,5
 1161 1772 1161 1772 1100 1702 c 2,6,-1
 1008 1597 l 2,7,8
 973 1560 973 1560 914.5 1560.5 c 128,-1,9
 856 1561 856 1561 856 1581 c 128,-1,10
 856 1601 856 1601 975 1808 c 0,0,1
731 1434 m 2,11,-1
 1642 1434 l 2,12,13
 1683 1434 1683 1434 1683 1372 c 2,14,-1
 1683 1339 l 2,15,16
 1683 1278 1683 1278 1642 1278 c 2,17,-1
 901 1278 l 1,18,-1
 1004 811 l 1,19,-1
 1581 811 l 2,20,21
 1622 811 1622 811 1622 750 c 2,22,-1
 1622 717 l 2,23,24
 1622 656 1622 656 1581 655 c 2,25,-1
 1036 655 l 1,26,-1
 1145 156 l 1,27,-1
 1645 156 l 2,28,29
 1686 156 1686 156 1686 94 c 2,30,-1
 1686 61 l 2,31,32
 1686 0 1686 0 1645 0 c 2,33,-1
 1057 0 l 2,34,35
 996 0 996 0 983 59 c 2,36,-1
 918 365 l 1,37,-1
 313 365 l 1,38,-1
 150 29 l 1,39,40
 132 -4 132 -4 68 -4 c 2,41,-1
 57 -4 l 2,42,43
 -23 -4 -23 -4 -23 31 c 0,44,45
 -23 47 -23 47 -14 63 c 2,46,-1
 643 1378 l 2,47,48
 670 1434 670 1434 731 1434 c 2,11,-1
739 1249 m 1,49,-1
 696 1130 l 1,50,-1
 393 518 l 1,51,-1
 883 518 l 1,52,-1
 752 1130 l 1,53,-1
 743 1249 l 1,54,-1
 739 1249 l 1,49,-1
EndSplineSet
Position2: "'cpsp' Capital Spacing lookup 0 subtable" dx=10 dy=0 dh=20 dv=0
EndChar

StartChar: B
Encoding: 66 66 26
Width: 1214
GlyphClass: 2
Flags: MW
HStem: 0 156<239 678 379 612> 659 156<379 616 379 616 616 643> 1278 156<379 379 379 608>
VStem: 199 180<156 659 815 1278> 899 186<1002 1130> 961 186<339 495>
LayerCount: 2
Fore
SplineSet
260 1434 m 2,0,-1
 627 1434 l 2,1,2
 850 1434 850 1434 967.5 1335.5 c 128,-1,3
 1085 1237 1085 1237 1085 1071 c 0,4,5
 1085 969 1085 969 1017.5 876.5 c 128,-1,6
 950 784 950 784 860 760 c 1,7,-1
 860 752 l 1,8,9
 890 747 890 747 950 714.5 c 128,-1,10
 1010 682 1010 682 1047.5 648 c 128,-1,11
 1085 614 1085 614 1116 550.5 c 128,-1,12
 1147 487 1147 487 1147 412 c 0,13,14
 1147 0 1147 0 612 0 c 2,15,-1
 260 0 l 2,16,17
 199 0 199 0 199 61 c 2,18,-1
 199 1372 l 2,19,20
 199 1434 199 1434 260 1434 c 2,0,-1
379 1278 m 1,21,-1
 379 815 l 1,22,-1
 616 815 l 2,23,24
 739 815 739 815 819 884.5 c 128,-1,25
 899 954 899 954 899 1061.5 c 128,-1,26
 899 1169 899 1169 829.5 1223.5 c 128,-1,27
 760 1278 760 1278 608 1278 c 2,28,-1
 379 1278 l 1,21,-1
379 659 m 1,29,-1
 379 156 l 1,30,-1
 678 156 l 2,31,32
 813 156 813 156 887 226.5 c 128,-1,33
 961 297 961 297 961 416 c 128,-1,34
 961 535 961 535 880 597 c 128,-1,35
 799 659 799 659 643 659 c 2,36,-1
 379 659 l 1,29,-1
EndSplineSet
Position2: "'cpsp' Capital Spacing lookup 0 subtable" dx=10 dy=0 dh=20 dv=0
EndChar

StartChar: C
Encoding: 67 67 27
Width: 1267
GlyphClass: 2
Flags: MW
HStem: -12 156<615 882 615 896> 1290 156<621 882 561 883>
VStem: 117 186<518 916 518 962>
AnchorPoint: "Anchor-1" 727 1434 basechar 0
AnchorPoint: "Anchor-0" 739 0 basechar 0
LayerCount: 2
Fore
SplineSet
780 1446 m 0,0,1
 927 1446 927 1446 1049 1404 c 128,-1,2
 1171 1362 1171 1362 1171 1319 c 0,3,4
 1171 1290 1171 1290 1145.5 1245 c 128,-1,5
 1120 1200 1120 1200 1102 1200 c 0,6,7
 1098 1200 1098 1200 1058 1222.5 c 128,-1,8
 1018 1245 1018 1245 944 1267.5 c 128,-1,9
 870 1290 870 1290 784 1290 c 0,10,11
 536 1290 536 1290 419.5 1153 c 128,-1,12
 303 1016 303 1016 303 718 c 0,13,14
 303 420 303 420 419 281.5 c 128,-1,15
 535 143 535 143 776 143 c 0,16,17
 868 143 868 143 950 169 c 128,-1,18
 1032 195 1032 195 1077 220.5 c 128,-1,19
 1122 246 1122 246 1128 246 c 0,20,21
 1146 246 1146 246 1173 201 c 128,-1,22
 1200 156 1200 156 1200 135 c 0,23,24
 1200 88 1200 88 1072 38 c 128,-1,25
 944 -12 944 -12 776 -12 c 0,26,27
 438 -12 438 -12 277.5 165 c 128,-1,28
 117 342 117 342 117 717 c 0,29,30
 116 1446 116 1446 780 1446 c 0,0,1
EndSplineSet
Position2: "'cpsp' Capital Spacing lookup 0 subtable" dx=10 dy=0 dh=20 dv=0
EndChar

StartChar: Cacute
Encoding: 262 262 28
Width: 1267
GlyphClass: 2
Flags: MW
HStem: -12 156<615 882 615 896> 1290 156<621 882 561 883>
VStem: 117 186<518 916 518 962>
AnchorPoint: "Anchor-1" 739 1796 basechar 0
AnchorPoint: "Anchor-0" 739 0 basechar 0
LayerCount: 2
Fore
SplineSet
764 1808 m 0,0,1
 795 1861 795 1861 892 1861.5 c 128,-1,2
 989 1862 989 1862 989 1835 c 0,3,4
 989 1821 989 1821 969.5 1796.5 c 128,-1,5
 950 1772 950 1772 889 1702 c 2,6,-1
 797 1597 l 2,7,8
 762 1560 762 1560 703.5 1560.5 c 128,-1,9
 645 1561 645 1561 645 1581 c 128,-1,10
 645 1601 645 1601 764 1808 c 0,0,1
780 1446 m 0,11,12
 927 1446 927 1446 1049 1404 c 128,-1,13
 1171 1362 1171 1362 1171 1319 c 0,14,15
 1171 1290 1171 1290 1145.5 1245 c 128,-1,16
 1120 1200 1120 1200 1102 1200 c 0,17,18
 1098 1200 1098 1200 1058 1222.5 c 128,-1,19
 1018 1245 1018 1245 944 1267.5 c 128,-1,20
 870 1290 870 1290 784 1290 c 0,21,22
 536 1290 536 1290 419.5 1153 c 128,-1,23
 303 1016 303 1016 303 718 c 128,-1,24
 303 420 303 420 419 281.5 c 128,-1,25
 535 143 535 143 776 143 c 0,26,27
 868 143 868 143 950 169 c 128,-1,28
 1032 195 1032 195 1077 220.5 c 128,-1,29
 1122 246 1122 246 1128 246 c 0,30,31
 1146 246 1146 246 1173 201 c 128,-1,32
 1200 156 1200 156 1200 135 c 0,33,34
 1200 88 1200 88 1072 38 c 128,-1,35
 944 -12 944 -12 776 -12 c 0,36,37
 438 -12 438 -12 277.5 165 c 128,-1,38
 117 342 117 342 117 717 c 0,39,40
 116 1446 116 1446 780 1446 c 0,11,12
EndSplineSet
Substitution2: "'locl' Localized Forms in Latin lookup 11 subtable" Cacute.loclPLK
Substitution2: "'aalt' Access All Alternates lookup 0 subtable" Cacute.loclPLK
Position2: "'cpsp' Capital Spacing lookup 0 subtable" dx=10 dy=0 dh=20 dv=0
EndChar

StartChar: Ccaron
Encoding: 268 268 29
Width: 1267
GlyphClass: 2
Flags: MW
HStem: -12 156<615 882 615 896> 1290 156<621 882 561 883> 1554 291<526 700 526 752>
VStem: 117 186<518 916 518 962>
AnchorPoint: "Anchor-1" 729 1796 basechar 0
AnchorPoint: "Anchor-0" 739 0 basechar 0
LayerCount: 2
Fore
SplineSet
922 1845 m 2,0,-1
 926 1845 l 2,1,2
 975 1845 975 1845 975 1815 c 0,3,4
 975 1799 975 1799 963 1780 c 2,5,-1
 846 1599 l 2,6,7
 815 1554 815 1554 752 1554 c 2,8,-1
 700 1554 l 2,9,10
 637 1554 637 1554 606 1599 c 2,11,-1
 492 1780 l 2,12,13
 480 1802 480 1802 479 1817 c 0,14,15
 479 1846 479 1846 526 1845 c 2,16,-1
 530 1845 l 2,17,18
 571 1845 571 1845 600 1819 c 1,19,-1
 725 1667 l 1,20,-1
 854 1819 l 1,21,22
 883 1845 883 1845 922 1845 c 2,0,-1
780 1446 m 0,23,24
 927 1446 927 1446 1049 1404 c 128,-1,25
 1171 1362 1171 1362 1171 1319 c 0,26,27
 1171 1290 1171 1290 1145.5 1245 c 128,-1,28
 1120 1200 1120 1200 1102 1200 c 0,29,30
 1098 1200 1098 1200 1058 1222.5 c 128,-1,31
 1018 1245 1018 1245 944 1267.5 c 128,-1,32
 870 1290 870 1290 784 1290 c 0,33,34
 536 1290 536 1290 419.5 1153 c 128,-1,35
 303 1016 303 1016 303 718 c 0,36,37
 303 420 303 420 419 281.5 c 128,-1,38
 535 143 535 143 776 143 c 0,39,40
 868 143 868 143 950 169 c 128,-1,41
 1032 195 1032 195 1077 220.5 c 128,-1,42
 1122 246 1122 246 1128 246 c 0,43,44
 1146 246 1146 246 1173 201 c 128,-1,45
 1200 156 1200 156 1200 135 c 0,46,47
 1200 88 1200 88 1072 38 c 128,-1,48
 944 -12 944 -12 776 -12 c 0,49,50
 438 -12 438 -12 277.5 165 c 128,-1,51
 117 342 117 342 117 717 c 0,52,53
 116 1446 116 1446 780 1446 c 0,23,24
EndSplineSet
Position2: "'cpsp' Capital Spacing lookup 0 subtable" dx=10 dy=0 dh=20 dv=0
EndChar

StartChar: Ccedilla
Encoding: 199 199 30
Width: 1267
GlyphClass: 2
Flags: MW
HStem: -430 100<660 705 641 758> -12 156<784 784> 1290 156<621 882 561 883>
VStem: 117 186<518 916 518 962> 797 145<-290 -212>
AnchorPoint: "Anchor-1" 727 1434 basechar 0
AnchorPoint: "Anchor-0" 698 -416 basechar 0
LayerCount: 2
Fore
SplineSet
1200 135 m 0,0,1
 1200 90 1200 90 1075 40 c 128,-1,2
 950 -10 950 -10 784 -12 c 1,3,-1
 760 -100 l 1,4,-1
 768 -100 l 2,5,6
 801 -100 801 -100 834.5 -107.5 c 128,-1,7
 868 -115 868 -115 905 -150.5 c 128,-1,8
 942 -186 942 -186 942 -248 c 0,9,10
 942 -430 942 -430 707 -430 c 0,11,12
 627 -430 627 -430 549 -405.5 c 128,-1,13
 471 -381 471 -381 471 -342 c 0,14,15
 471 -289 471 -289 510 -289 c 0,16,17
 520 -289 520 -289 577.5 -309.5 c 128,-1,18
 635 -330 635 -330 680 -330 c 0,19,20
 797 -330 797 -330 797 -258 c 0,21,22
 797 -219 797 -219 763 -200.5 c 128,-1,23
 729 -182 729 -182 695.5 -172 c 128,-1,24
 662 -162 662 -162 662 -141 c 0,25,26
 662 -121 662 -121 696 -10 c 1,27,28
 401 10 401 10 259 187.5 c 128,-1,29
 117 365 117 365 117 717 c 0,30,31
 117 1446 117 1446 780 1446 c 0,32,33
 927 1446 927 1446 1049 1404 c 128,-1,34
 1171 1362 1171 1362 1171 1319 c 0,35,36
 1171 1290 1171 1290 1145.5 1245 c 128,-1,37
 1120 1200 1120 1200 1102 1200 c 0,38,39
 1098 1200 1098 1200 1058 1222.5 c 128,-1,40
 1018 1245 1018 1245 944 1267.5 c 128,-1,41
 870 1290 870 1290 784 1290 c 0,42,43
 536 1290 536 1290 419.5 1153 c 128,-1,44
 303 1016 303 1016 303 718 c 0,45,46
 303 420 303 420 419 281.5 c 128,-1,47
 535 143 535 143 776 143 c 0,48,49
 868 143 868 143 950 169 c 128,-1,50
 1032 195 1032 195 1077 220.5 c 128,-1,51
 1122 246 1122 246 1128 246 c 0,52,53
 1146 246 1146 246 1173 200.5 c 128,-1,54
 1200 155 1200 155 1200 135 c 0,0,1
EndSplineSet
Position2: "'cpsp' Capital Spacing lookup 0 subtable" dx=10 dy=0 dh=20 dv=0
EndChar

StartChar: Ccircumflex
Encoding: 264 264 31
Width: 1267
GlyphClass: 2
Flags: MW
HStem: -12 156<615 882 615 896> 1290 156<621 882 561 883> 1542 291<511 752 526 752 700 922 700 926>
VStem: 117 186<518 916 518 962>
AnchorPoint: "Anchor-1" 1053 1624 basechar 0
AnchorPoint: "Anchor-0" 739 0 basechar 0
LayerCount: 2
Fore
SplineSet
700 1833 m 2,0,-1
 752 1833 l 2,1,2
 815 1833 815 1833 846 1788 c 2,3,-1
 963 1608 l 2,4,5
 975 1590 975 1590 975 1573 c 0,6,7
 975 1542 975 1542 926 1542 c 2,8,-1
 922 1542 l 2,9,10
 883 1542 883 1542 854 1569 c 1,11,-1
 725 1720 l 1,12,-1
 600 1569 l 1,13,14
 571 1542 571 1542 530 1542 c 2,15,-1
 526 1542 l 2,16,17
 479 1542 479 1542 479 1571 c 0,18,19
 479 1586 479 1586 492 1608 c 2,20,-1
 606 1788 l 2,21,22
 637 1833 637 1833 700 1833 c 2,0,-1
780 1446 m 0,23,24
 927 1446 927 1446 1049 1404 c 128,-1,25
 1171 1362 1171 1362 1171 1319 c 0,26,27
 1171 1290 1171 1290 1145.5 1245 c 128,-1,28
 1120 1200 1120 1200 1102 1200 c 0,29,30
 1098 1200 1098 1200 1058 1222.5 c 128,-1,31
 1018 1245 1018 1245 944 1267.5 c 128,-1,32
 870 1290 870 1290 784 1290 c 0,33,34
 536 1290 536 1290 419.5 1153 c 128,-1,35
 303 1016 303 1016 303 718 c 0,36,37
 303 420 303 420 419 281.5 c 128,-1,38
 535 143 535 143 776 143 c 0,39,40
 868 143 868 143 950 169 c 128,-1,41
 1032 195 1032 195 1077 220.5 c 128,-1,42
 1122 246 1122 246 1128 246 c 0,43,44
 1146 246 1146 246 1173 201 c 128,-1,45
 1200 156 1200 156 1200 135 c 0,46,47
 1200 88 1200 88 1072 38 c 128,-1,48
 944 -12 944 -12 776 -12 c 0,49,50
 438 -12 438 -12 277.5 165 c 128,-1,51
 117 342 117 342 117 717 c 0,52,53
 116 1446 116 1446 780 1446 c 0,23,24
EndSplineSet
Position2: "'cpsp' Capital Spacing lookup 0 subtable" dx=10 dy=0 dh=20 dv=0
EndChar

StartChar: Cdotaccent
Encoding: 266 266 32
Width: 1267
GlyphClass: 2
Flags: MW
HStem: -12 156<615 882 615 896> 1290 156<621 882 561 883> 1606 195<698 756>
VStem: 117 186<518 916 518 962> 641 172<1651 1755 1637 1768>
AnchorPoint: "Anchor-1" 733 1796 basechar 0
AnchorPoint: "Anchor-0" 739 0 basechar 0
LayerCount: 2
Fore
SplineSet
641 1755 m 2,0,1
 641 1800 641 1800 727 1800 c 128,-1,2
 813 1800 813 1800 813 1755 c 2,3,-1
 813 1651 l 2,4,5
 813 1606 813 1606 727 1606 c 128,-1,6
 641 1606 641 1606 641 1651 c 2,7,-1
 641 1755 l 2,0,1
780 1446 m 0,8,9
 927 1446 927 1446 1049 1404 c 128,-1,10
 1171 1362 1171 1362 1171 1319 c 0,11,12
 1171 1290 1171 1290 1145.5 1245 c 128,-1,13
 1120 1200 1120 1200 1102 1200 c 0,14,15
 1098 1200 1098 1200 1058 1222.5 c 128,-1,16
 1018 1245 1018 1245 944 1267.5 c 128,-1,17
 870 1290 870 1290 784 1290 c 0,18,19
 536 1290 536 1290 419.5 1153 c 128,-1,20
 303 1016 303 1016 303 718 c 128,-1,21
 303 420 303 420 419 281.5 c 128,-1,22
 535 143 535 143 776 143 c 0,23,24
 868 143 868 143 950 169 c 128,-1,25
 1032 195 1032 195 1077 220.5 c 128,-1,26
 1122 246 1122 246 1128 246 c 0,27,28
 1146 246 1146 246 1173 201 c 128,-1,29
 1200 156 1200 156 1200 135 c 0,30,31
 1200 88 1200 88 1072 38 c 128,-1,32
 944 -12 944 -12 776 -12 c 0,33,34
 438 -12 438 -12 277.5 165 c 128,-1,35
 117 342 117 342 117 717 c 0,36,37
 116 1446 116 1446 780 1446 c 0,8,9
EndSplineSet
Position2: "'cpsp' Capital Spacing lookup 0 subtable" dx=10 dy=0 dh=20 dv=0
EndChar

StartChar: D
Encoding: 68 68 33
Width: 1423
GlyphClass: 2
Flags: MW
HStem: 0 156<239 659 379 659 659 674> 1278 156<379 379 379 659>
VStem: 199 180<156 1278 156 1372 156 1394> 1120 186<512 921>
AnchorPoint: "Anchor-1" 639 1434 basechar 0
AnchorPoint: "Anchor-0" 670 0 basechar 0
LayerCount: 2
Fore
SplineSet
260 1434 m 2,0,-1
 674 1434 l 2,1,2
 961 1434 961 1434 1134 1263 c 128,-1,3
 1307 1092 1307 1092 1307 716 c 0,4,5
 1307 340 1307 340 1134 170 c 128,-1,6
 961 0 961 0 674 0 c 2,7,-1
 260 0 l 2,8,9
 199 0 199 0 199 61 c 2,10,-1
 199 1372 l 2,11,12
 199 1434 199 1434 260 1434 c 2,0,-1
379 1278 m 1,13,-1
 379 156 l 1,14,-1
 659 156 l 2,15,16
 866 156 866 156 993 291 c 128,-1,17
 1120 426 1120 426 1120 716 c 0,18,19
 1120 1006 1120 1006 993 1142 c 128,-1,20
 866 1278 866 1278 659 1278 c 2,21,-1
 379 1278 l 1,13,-1
EndSplineSet
Position2: "'cpsp' Capital Spacing lookup 0 subtable" dx=10 dy=0 dh=20 dv=0
EndChar

StartChar: DZ
Encoding: 497 497 34
Width: 2684
GlyphClass: 2
Flags: MW
HStem: 0 156<239 659 379 659 659 674 1747 2548> 1278 156<379 379 379 659 1610 2347>
VStem: 199 180<156 1278 156 1372 156 1394> 1120 186<512 921>
AnchorPoint: "Anchor-1" 2054 1434 basechar 0
AnchorPoint: "Anchor-0" 2075 0 basechar 0
LayerCount: 2
Fore
SplineSet
260 1434 m 2,0,-1
 674 1434 l 2,1,2
 961 1434 961 1434 1134 1263 c 128,-1,3
 1307 1092 1307 1092 1307 716 c 0,4,5
 1307 340 1307 340 1134 170 c 128,-1,6
 961 0 961 0 674 0 c 2,7,-1
 260 0 l 2,8,9
 199 0 199 0 199 61 c 2,10,-1
 199 1372 l 2,11,12
 199 1434 199 1434 260 1434 c 2,0,-1
1610 1434 m 2,13,-1
 2548 1434 l 2,14,15
 2560 1434 2560 1434 2576.5 1395 c 128,-1,16
 2593 1356 2593 1356 2593 1333 c 0,17,18
 2593 1310 2593 1310 2587 1300 c 2,19,-1
 1747 156 l 1,20,-1
 2548 156 l 2,21,22
 2589 156 2589 156 2589 86 c 2,23,-1
 2589 70 l 2,24,25
 2589 0 2589 0 2548 0 c 2,26,-1
 1550 0 l 2,27,28
 1536 0 1536 0 1518.5 39 c 128,-1,29
 1501 78 1501 78 1501 101 c 0,30,31
 1501 124 1501 124 1507 133 c 2,32,-1
 2347 1278 l 1,33,-1
 1610 1278 l 2,34,35
 1569 1278 1569 1278 1569 1348 c 2,36,-1
 1569 1364 l 2,37,38
 1569 1434 1569 1434 1610 1434 c 2,13,-1
379 1278 m 1,39,-1
 379 156 l 1,40,-1
 659 156 l 2,41,42
 866 156 866 156 993 291 c 128,-1,43
 1120 426 1120 426 1120 716 c 0,44,45
 1120 1006 1120 1006 993 1142 c 128,-1,46
 866 1278 866 1278 659 1278 c 2,47,-1
 379 1278 l 1,39,-1
EndSplineSet
Position2: "'cpsp' Capital Spacing lookup 0 subtable" dx=10 dy=0 dh=20 dv=0
EndChar

StartChar: DZcaron
Encoding: 452 452 35
Width: 2684
GlyphClass: 2
Flags: MW
HStem: 0 156<239 659 379 659 659 674 1747 2548> 1278 156<379 379 379 659 1610 2347> 1554 291<1853 2028 1853 2079>
VStem: 199 180<156 1278 156 1372 156 1394> 1120 186<512 921>
AnchorPoint: "Anchor-1" 2056 1796 basechar 0
AnchorPoint: "Anchor-0" 2075 0 basechar 0
LayerCount: 2
Fore
SplineSet
2249 1845 m 2,0,-1
 2253 1845 l 2,1,2
 2302 1845 2302 1845 2302 1815 c 0,3,4
 2302 1799 2302 1799 2290 1780 c 2,5,-1
 2173 1599 l 2,6,7
 2142 1554 2142 1554 2079 1554 c 2,8,-1
 2028 1554 l 2,9,10
 1965 1554 1965 1554 1933 1599 c 2,11,-1
 1819 1780 l 2,12,13
 1807 1802 1807 1802 1806 1817 c 0,14,15
 1806 1846 1806 1846 1853 1845 c 2,16,-1
 1858 1845 l 2,17,18
 1899 1845 1899 1845 1927 1819 c 1,19,-1
 2052 1667 l 1,20,-1
 2181 1819 l 1,21,22
 2210 1845 2210 1845 2249 1845 c 2,0,-1
260 1434 m 2,23,-1
 674 1434 l 2,24,25
 961 1434 961 1434 1134 1263 c 128,-1,26
 1307 1092 1307 1092 1307 716 c 0,27,28
 1307 340 1307 340 1134 170 c 128,-1,29
 961 0 961 0 674 0 c 2,30,-1
 260 0 l 2,31,32
 199 0 199 0 199 61 c 2,33,-1
 199 1372 l 2,34,35
 199 1434 199 1434 260 1434 c 2,23,-1
1610 1434 m 2,36,-1
 2548 1434 l 2,37,38
 2560 1434 2560 1434 2576.5 1395 c 128,-1,39
 2593 1356 2593 1356 2593 1333 c 0,40,41
 2593 1310 2593 1310 2587 1300 c 2,42,-1
 1747 156 l 1,43,-1
 2548 156 l 2,44,45
 2589 156 2589 156 2589 86 c 2,46,-1
 2589 70 l 2,47,48
 2589 0 2589 0 2548 0 c 2,49,-1
 1550 0 l 2,50,51
 1536 0 1536 0 1518.5 39 c 128,-1,52
 1501 78 1501 78 1501 101 c 0,53,54
 1501 124 1501 124 1507 133 c 2,55,-1
 2347 1278 l 1,56,-1
 1610 1278 l 2,57,58
 1569 1278 1569 1278 1569 1348 c 2,59,-1
 1569 1364 l 2,60,61
 1569 1434 1569 1434 1610 1434 c 2,36,-1
379 1278 m 1,62,-1
 379 156 l 1,63,-1
 659 156 l 2,64,65
 866 156 866 156 993 291 c 128,-1,66
 1120 426 1120 426 1120 716 c 0,67,68
 1120 1006 1120 1006 993 1142 c 128,-1,69
 866 1278 866 1278 659 1278 c 2,70,-1
 379 1278 l 1,62,-1
EndSplineSet
Position2: "'cpsp' Capital Spacing lookup 0 subtable" dx=10 dy=0 dh=20 dv=0
EndChar

StartChar: Eth
Encoding: 208 208 36
Width: 1425
GlyphClass: 2
Flags: MW
HStem: 0 156<214 662 354 662 662 676> 655 156<27 174 41 174 354 580> 1278 156<354 354 354 662>
VStem: 174 180<156 655 156 655 156 655 811 1278> 1126 186<512 921>
LayerCount: 2
Fore
SplineSet
236 1434 m 2,0,-1
 676 1434 l 2,1,2
 951 1434 951 1434 1125 1275 c 0,3,4
 1312 1105 1312 1105 1313 717 c 0,5,6
 1313 170 1313 170 925 38 c 0,7,8
 813 0 813 0 676 0 c 2,9,-1
 236 0 l 2,10,11
 175 0 175 0 174 61 c 2,12,-1
 174 655 l 1,13,-1
 41 655 l 2,14,15
 0 655 0 655 0 717 c 2,16,-1
 0 750 l 2,17,18
 0 811 0 811 41 811 c 2,19,-1
 174 811 l 1,20,-1
 174 1372 l 2,21,22
 175 1434 175 1434 236 1434 c 2,0,-1
354 1278 m 1,23,-1
 354 811 l 1,24,-1
 580 811 l 2,25,26
 621 811 621 811 621 750 c 2,27,-1
 621 717 l 2,28,29
 621 656 621 656 580 655 c 2,30,-1
 354 655 l 1,31,-1
 354 156 l 1,32,-1
 662 156 l 2,33,34
 871 156 871 156 998.5 291 c 128,-1,35
 1126 426 1126 426 1126 716 c 128,-1,36
 1126 1006 1126 1006 998 1142 c 128,-1,37
 870 1278 870 1278 662 1278 c 2,38,-1
 354 1278 l 1,23,-1
EndSplineSet
Position2: "'cpsp' Capital Spacing lookup 0 subtable" dx=10 dy=0 dh=20 dv=0
EndChar

StartChar: Dcaron
Encoding: 270 270 37
Width: 1423
GlyphClass: 2
Flags: MW
HStem: 0 156<239 659 379 659 659 674> 1278 156<379 379 379 659> 1554 291<438 612 438 664>
VStem: 199 180<156 1278 156 1372 156 1394> 1120 186<512 921>
AnchorPoint: "Anchor-1" 641 1796 basechar 0
AnchorPoint: "Anchor-0" 670 0 basechar 0
LayerCount: 2
Fore
SplineSet
834 1845 m 2,0,-1
 838 1845 l 2,1,2
 887 1845 887 1845 887 1815 c 0,3,4
 887 1799 887 1799 874 1780 c 2,5,-1
 758 1599 l 2,6,7
 727 1554 727 1554 664 1554 c 2,8,-1
 612 1554 l 2,9,10
 549 1554 549 1554 518 1599 c 2,11,-1
 403 1780 l 2,12,13
 391 1802 391 1802 391 1817 c 0,14,15
 391 1846 391 1846 438 1845 c 2,16,-1
 442 1845 l 2,17,18
 483 1845 483 1845 512 1819 c 1,19,-1
 637 1667 l 1,20,-1
 766 1819 l 1,21,22
 795 1845 795 1845 834 1845 c 2,0,-1
260 1434 m 2,23,-1
 674 1434 l 2,24,25
 961 1434 961 1434 1134 1263 c 128,-1,26
 1307 1092 1307 1092 1307 716 c 0,27,28
 1307 340 1307 340 1134 170 c 128,-1,29
 961 0 961 0 674 0 c 2,30,-1
 260 0 l 2,31,32
 199 0 199 0 199 61 c 2,33,-1
 199 1372 l 2,34,35
 199 1434 199 1434 260 1434 c 2,23,-1
379 1278 m 1,36,-1
 379 156 l 1,37,-1
 659 156 l 2,38,39
 866 156 866 156 993 291 c 128,-1,40
 1120 426 1120 426 1120 716 c 0,41,42
 1120 1006 1120 1006 993 1142 c 128,-1,43
 866 1278 866 1278 659 1278 c 2,44,-1
 379 1278 l 1,36,-1
EndSplineSet
Position2: "'cpsp' Capital Spacing lookup 0 subtable" dx=10 dy=0 dh=20 dv=0
EndChar

StartChar: Dcroat
Encoding: 272 272 38
Width: 1425
GlyphClass: 2
Flags: MW
HStem: 0 156<214 662 354 662 662 676> 655 156<27 174 41 174 354 580> 1278 156<354 354 354 662>
VStem: 174 180<156 655 156 655 156 655 811 1278> 1126 186<512 921>
LayerCount: 2
Fore
SplineSet
236 1434 m 2,0,-1
 676 1434 l 2,1,2
 951 1434 951 1434 1125 1275 c 0,3,4
 1312 1105 1312 1105 1313 717 c 0,5,6
 1313 170 1313 170 925 38 c 0,7,8
 813 0 813 0 676 0 c 2,9,-1
 236 0 l 2,10,11
 175 0 175 0 174 61 c 2,12,-1
 174 655 l 1,13,-1
 41 655 l 2,14,15
 0 655 0 655 0 717 c 2,16,-1
 0 750 l 2,17,18
 0 811 0 811 41 811 c 2,19,-1
 174 811 l 1,20,-1
 174 1372 l 2,21,22
 175 1434 175 1434 236 1434 c 2,0,-1
354 1278 m 1,23,-1
 354 811 l 1,24,-1
 580 811 l 2,25,26
 621 811 621 811 621 750 c 2,27,-1
 621 717 l 2,28,29
 621 656 621 656 580 655 c 2,30,-1
 354 655 l 1,31,-1
 354 156 l 1,32,-1
 662 156 l 2,33,34
 871 156 871 156 998.5 291 c 128,-1,35
 1126 426 1126 426 1126 716 c 128,-1,36
 1126 1006 1126 1006 998 1142 c 128,-1,37
 870 1278 870 1278 662 1278 c 2,38,-1
 354 1278 l 1,23,-1
EndSplineSet
Position2: "'cpsp' Capital Spacing lookup 0 subtable" dx=10 dy=0 dh=20 dv=0
EndChar

StartChar: Ddotbelow
Encoding: 7692 7692 39
Width: 1423
GlyphClass: 2
Flags: MW
HStem: -358 195<645 702> 0 156<239 659 379 659 659 674> 1278 156<379 379 379 659>
VStem: 199 180<156 1278 156 1372 156 1394> 588 172<-313 -209 -327 -196> 1120 186<512 921>
AnchorPoint: "Anchor-1" 680 -168 basechar 0
AnchorPoint: "Anchor-0" 670 -416 basechar 0
LayerCount: 2
Fore
SplineSet
260 1434 m 2,0,-1
 674 1434 l 2,1,2
 961 1434 961 1434 1134 1263 c 128,-1,3
 1307 1092 1307 1092 1307 716 c 128,-1,4
 1307 340 1307 340 1134 170 c 128,-1,5
 961 0 961 0 674 0 c 2,6,-1
 260 0 l 2,7,8
 199 0 199 0 199 61 c 2,9,-1
 199 1372 l 2,10,11
 199 1434 199 1434 260 1434 c 2,0,-1
379 1278 m 1,12,-1
 379 156 l 1,13,-1
 659 156 l 2,14,15
 866 156 866 156 993 291 c 128,-1,16
 1120 426 1120 426 1120 716 c 128,-1,17
 1120 1006 1120 1006 993 1142 c 128,-1,18
 866 1278 866 1278 659 1278 c 2,19,-1
 379 1278 l 1,12,-1
588 -209 m 2,20,21
 588 -164 588 -164 674 -164 c 128,-1,22
 760 -164 760 -164 760 -209 c 2,23,-1
 760 -313 l 2,24,25
 760 -358 760 -358 674 -358 c 128,-1,26
 588 -358 588 -358 588 -313 c 2,27,-1
 588 -209 l 2,20,21
EndSplineSet
Position2: "'cpsp' Capital Spacing lookup 0 subtable" dx=10 dy=0 dh=20 dv=0
EndChar

StartChar: Dz
Encoding: 498 498 40
Width: 2424
GlyphClass: 2
Flags: MW
HStem: 0 147<1739 2302 1739 2302> 924 147<1567 2300 1581 2105> 1278 156<379 379 379 659>
VStem: 199 180<156 1278 156 1372 156 1394> 1120 186<512 921>
AnchorPoint: "Anchor-1" 1925 1071 basechar 0
AnchorPoint: "Anchor-0" 1911 0 basechar 0
LayerCount: 2
Fore
SplineSet
260 1434 m 2,0,-1
 674 1434 l 2,1,2
 961 1434 961 1434 1134 1263 c 128,-1,3
 1307 1092 1307 1092 1307 716 c 0,4,5
 1307 340 1307 340 1134 170 c 128,-1,6
 961 0 961 0 674 0 c 2,7,-1
 260 0 l 2,8,9
 199 0 199 0 199 61 c 2,10,-1
 199 1372 l 2,11,12
 199 1434 199 1434 260 1434 c 2,0,-1
379 1278 m 1,13,-1
 379 156 l 1,14,-1
 659 156 l 2,15,16
 866 156 866 156 993 291 c 128,-1,17
 1120 426 1120 426 1120 716 c 0,18,19
 1120 1006 1120 1006 993 1142 c 128,-1,20
 866 1278 866 1278 659 1278 c 2,21,-1
 379 1278 l 1,13,-1
1581 1071 m 2,22,-1
 2300 1071 l 2,23,24
 2314 1071 2314 1071 2327.5 1033 c 128,-1,25
 2341 995 2341 995 2341 974 c 0,26,27
 2341 952 2341 952 2337 944 c 2,28,-1
 1739 147 l 1,29,-1
 2302 147 l 2,30,31
 2343 147 2343 147 2343 86 c 2,32,-1
 2343 61 l 2,33,34
 2343 0 2343 0 2302 0 c 2,35,-1
 1544 0 l 2,36,37
 1532 0 1532 0 1515.5 37 c 128,-1,38
 1499 74 1499 74 1499 95 c 0,39,40
 1499 117 1499 117 1505 127 c 2,41,-1
 2105 924 l 1,42,-1
 1581 924 l 2,43,44
 1540 924 1540 924 1540 985 c 2,45,-1
 1540 1010 l 2,46,47
 1540 1071 1540 1071 1581 1071 c 2,22,-1
EndSplineSet
Position2: "'cpsp' Capital Spacing lookup 0 subtable" dx=10 dy=0 dh=20 dv=0
EndChar

StartChar: Dzcaron
Encoding: 453 453 41
Width: 2424
GlyphClass: 2
Flags: MW
HStem: 0 147<1739 2302 1739 2302> 924 147<1567 2300 1581 2105> 1278 156<379 379 379 659>
VStem: 199 180<156 1278 156 1372 156 1394> 1120 186<512 921>
AnchorPoint: "Anchor-1" 1927 1434 basechar 0
AnchorPoint: "Anchor-0" 1911 0 basechar 0
LayerCount: 2
Fore
SplineSet
2120 1483 m 2,0,-1
 2124 1483 l 2,1,2
 2173 1483 2173 1483 2173 1452 c 0,3,4
 2173 1436 2173 1436 2161 1417 c 2,5,-1
 2044 1237 l 2,6,7
 2013 1192 2013 1192 1950 1192 c 2,8,-1
 1898 1192 l 2,9,10
 1835 1192 1835 1192 1804 1237 c 2,11,-1
 1690 1417 l 2,12,13
 1678 1439 1678 1439 1677 1454 c 0,14,15
 1677 1483 1677 1483 1724 1483 c 2,16,-1
 1729 1483 l 2,17,18
 1770 1483 1770 1483 1798 1456 c 1,19,-1
 1923 1305 l 1,20,-1
 2052 1456 l 1,21,22
 2081 1483 2081 1483 2120 1483 c 2,0,-1
260 1434 m 2,23,-1
 674 1434 l 2,24,25
 961 1434 961 1434 1134 1263 c 128,-1,26
 1307 1092 1307 1092 1307 716 c 0,27,28
 1307 340 1307 340 1134 170 c 128,-1,29
 961 0 961 0 674 0 c 2,30,-1
 260 0 l 2,31,32
 199 0 199 0 199 61 c 2,33,-1
 199 1372 l 2,34,35
 199 1434 199 1434 260 1434 c 2,23,-1
379 1278 m 1,36,-1
 379 156 l 1,37,-1
 659 156 l 2,38,39
 866 156 866 156 993 291 c 128,-1,40
 1120 426 1120 426 1120 716 c 0,41,42
 1120 1006 1120 1006 993 1142 c 128,-1,43
 866 1278 866 1278 659 1278 c 2,44,-1
 379 1278 l 1,36,-1
1581 1071 m 2,45,-1
 2300 1071 l 2,46,47
 2314 1071 2314 1071 2327.5 1033 c 128,-1,48
 2341 995 2341 995 2341 974 c 0,49,50
 2341 952 2341 952 2337 944 c 2,51,-1
 1739 147 l 1,52,-1
 2302 147 l 2,53,54
 2343 147 2343 147 2343 86 c 2,55,-1
 2343 61 l 2,56,57
 2343 0 2343 0 2302 0 c 2,58,-1
 1544 0 l 2,59,60
 1532 0 1532 0 1515.5 37 c 128,-1,61
 1499 74 1499 74 1499 95 c 0,62,63
 1499 117 1499 117 1505 127 c 2,64,-1
 2105 924 l 1,65,-1
 1581 924 l 2,66,67
 1540 924 1540 924 1540 985 c 2,68,-1
 1540 1010 l 2,69,70
 1540 1071 1540 1071 1581 1071 c 2,45,-1
EndSplineSet
Position2: "'cpsp' Capital Spacing lookup 0 subtable" dx=10 dy=0 dh=20 dv=0
EndChar

StartChar: E
Encoding: 69 69 42
Width: 1118
GlyphClass: 2
Flags: MW
HStem: 0 156<239 977 379 977 379 977> 655 156<379 913 379 913> 1278 156<379 975 379 379>
VStem: 199 180<156 655 811 1278>
AnchorPoint: "Anchor-1" 606 1434 basechar 0
AnchorPoint: "Anchor-0" 614 0 basechar 0
LayerCount: 2
Fore
SplineSet
260 1434 m 2,0,-1
 975 1434 l 2,1,2
 1016 1434 1016 1434 1016 1372 c 2,3,-1
 1016 1339 l 2,4,5
 1016 1278 1016 1278 975 1278 c 2,6,-1
 379 1278 l 1,7,-1
 379 811 l 1,8,-1
 913 811 l 2,9,10
 954 811 954 811 954 750 c 2,11,-1
 954 717 l 2,12,13
 954 656 954 656 913 655 c 2,14,-1
 379 655 l 1,15,-1
 379 156 l 1,16,-1
 977 156 l 2,17,18
 1018 156 1018 156 1018 94 c 2,19,-1
 1018 61 l 2,20,21
 1018 0 1018 0 977 0 c 2,22,-1
 260 0 l 2,23,24
 199 0 199 0 199 61 c 2,25,-1
 199 1372 l 2,26,27
 199 1434 199 1434 260 1434 c 2,0,-1
EndSplineSet
Position2: "'cpsp' Capital Spacing lookup 0 subtable" dx=10 dy=0 dh=20 dv=0
EndChar

StartChar: Eacute
Encoding: 201 201 43
Width: 1118
GlyphClass: 2
Flags: MW
HStem: 0 156<239 977 379 977 379 977> 655 156<379 913 379 913> 1278 156<379 975 379 379>
VStem: 199 180<156 655 811 1278>
AnchorPoint: "Anchor-1" 618 1796 basechar 0
AnchorPoint: "Anchor-0" 614 0 basechar 0
LayerCount: 2
Fore
SplineSet
643 1808 m 0,0,1
 674 1861 674 1861 771 1861.5 c 128,-1,2
 868 1862 868 1862 868 1835 c 0,3,4
 868 1821 868 1821 848.5 1796.5 c 128,-1,5
 829 1772 829 1772 768 1702 c 2,6,-1
 676 1597 l 2,7,8
 643 1560 643 1560 583.5 1560.5 c 128,-1,9
 524 1561 524 1561 524 1581 c 128,-1,10
 524 1601 524 1601 643 1808 c 0,0,1
260 1434 m 2,11,-1
 975 1434 l 2,12,13
 1016 1434 1016 1434 1016 1372 c 2,14,-1
 1016 1339 l 2,15,16
 1016 1278 1016 1278 975 1278 c 2,17,-1
 379 1278 l 1,18,-1
 379 811 l 1,19,-1
 913 811 l 2,20,21
 954 811 954 811 954 750 c 2,22,-1
 954 717 l 2,23,24
 954 656 954 656 913 655 c 2,25,-1
 379 655 l 1,26,-1
 379 156 l 1,27,-1
 977 156 l 2,28,29
 1018 156 1018 156 1018 94 c 2,30,-1
 1018 61 l 2,31,32
 1018 0 1018 0 977 0 c 2,33,-1
 260 0 l 2,34,35
 199 0 199 0 199 61 c 2,36,-1
 199 1372 l 2,37,38
 199 1434 199 1434 260 1434 c 2,11,-1
EndSplineSet
Position2: "'cpsp' Capital Spacing lookup 0 subtable" dx=10 dy=0 dh=20 dv=0
EndChar

StartChar: Ebreve
Encoding: 276 276 44
Width: 1118
GlyphClass: 2
Flags: MW
HStem: 0 156<239 977 379 977 379 977> 655 156<379 913 379 913> 1278 156<379 975 379 379> 1561 135<558 658 558 681>
VStem: 199 180<156 655 811 1278>
AnchorPoint: "Anchor-1" 608 1737 basechar 0
AnchorPoint: "Anchor-0" 614 0 basechar 0
LayerCount: 2
Fore
SplineSet
872 1827 m 0,0,1
 903 1827 903 1827 903 1796 c 0,2,3
 903 1685 903 1685 815 1623 c 128,-1,4
 727 1561 727 1561 607 1561 c 128,-1,5
 487 1561 487 1561 399 1623.5 c 128,-1,6
 311 1686 311 1686 311 1796 c 0,7,8
 311 1827 311 1827 342 1827 c 0,9,10
 365 1827 365 1827 369 1818 c 0,11,12
 381 1788 381 1788 387 1776 c 0,13,14
 430 1696 430 1696 607 1696 c 0,15,16
 802 1696 802 1696 835 1793 c 0,17,18
 844 1821 844 1821 853 1824 c 128,-1,19
 862 1827 862 1827 872 1827 c 0,0,1
260 1434 m 2,20,-1
 975 1434 l 2,21,22
 1016 1434 1016 1434 1016 1372 c 2,23,-1
 1016 1339 l 2,24,25
 1016 1278 1016 1278 975 1278 c 2,26,-1
 379 1278 l 1,27,-1
 379 811 l 1,28,-1
 913 811 l 2,29,30
 954 811 954 811 954 750 c 2,31,-1
 954 717 l 2,32,33
 954 656 954 656 913 655 c 2,34,-1
 379 655 l 1,35,-1
 379 156 l 1,36,-1
 977 156 l 2,37,38
 1018 156 1018 156 1018 94 c 2,39,-1
 1018 61 l 2,40,41
 1018 0 1018 0 977 0 c 2,42,-1
 260 0 l 2,43,44
 199 0 199 0 199 61 c 2,45,-1
 199 1372 l 2,46,47
 199 1434 199 1434 260 1434 c 2,20,-1
EndSplineSet
Position2: "'cpsp' Capital Spacing lookup 0 subtable" dx=10 dy=0 dh=20 dv=0
EndChar

StartChar: Ecaron
Encoding: 282 282 45
Width: 1118
GlyphClass: 2
Flags: MW
HStem: 0 156<239 977 379 977 379 977> 655 156<379 913 379 913> 1278 156<379 975 379 379> 1554 291<406 580 406 631>
VStem: 199 180<156 655 811 1278>
AnchorPoint: "Anchor-1" 608 1796 basechar 0
AnchorPoint: "Anchor-0" 614 0 basechar 0
LayerCount: 2
Fore
SplineSet
801 1845 m 2,0,-1
 805 1845 l 2,1,2
 854 1845 854 1845 854 1815 c 0,3,4
 854 1799 854 1799 842 1780 c 2,5,-1
 725 1599 l 2,6,7
 694 1554 694 1554 631 1554 c 2,8,-1
 580 1554 l 2,9,10
 517 1554 517 1554 485 1599 c 2,11,-1
 371 1780 l 2,12,13
 359 1802 359 1802 358 1817 c 0,14,15
 358 1846 358 1846 406 1845 c 2,16,-1
 410 1845 l 2,17,18
 451 1845 451 1845 479 1819 c 1,19,-1
 604 1667 l 1,20,-1
 733 1819 l 1,21,22
 762 1845 762 1845 801 1845 c 2,0,-1
260 1434 m 2,23,-1
 975 1434 l 2,24,25
 1016 1434 1016 1434 1016 1372 c 2,26,-1
 1016 1339 l 2,27,28
 1016 1278 1016 1278 975 1278 c 2,29,-1
 379 1278 l 1,30,-1
 379 811 l 1,31,-1
 913 811 l 2,32,33
 954 811 954 811 954 750 c 2,34,-1
 954 717 l 2,35,36
 954 656 954 656 913 655 c 2,37,-1
 379 655 l 1,38,-1
 379 156 l 1,39,-1
 977 156 l 2,40,41
 1018 156 1018 156 1018 94 c 2,42,-1
 1018 61 l 2,43,44
 1018 0 1018 0 977 0 c 2,45,-1
 260 0 l 2,46,47
 199 0 199 0 199 61 c 2,48,-1
 199 1372 l 2,49,50
 199 1434 199 1434 260 1434 c 2,23,-1
EndSplineSet
Position2: "'cpsp' Capital Spacing lookup 0 subtable" dx=10 dy=0 dh=20 dv=0
EndChar

StartChar: Ecircumflex
Encoding: 202 202 46
Width: 1118
GlyphClass: 2
Flags: MW
HStem: 0 156<239 977 379 977 379 977> 655 156<379 913 379 913> 1278 156<379 975 379 379> 1542 291<390 631 406 631 580 801 580 805>
VStem: 199 180<156 655 811 1278>
AnchorPoint: "Anchor-1" 932 1624 basechar 0
AnchorPoint: "Anchor-0" 614 0 basechar 0
LayerCount: 2
Fore
SplineSet
580 1833 m 2,0,-1
 631 1833 l 2,1,2
 694 1833 694 1833 725 1788 c 2,3,-1
 842 1608 l 2,4,5
 854 1590 854 1590 854 1573 c 0,6,7
 854 1542 854 1542 805 1542 c 2,8,-1
 801 1542 l 2,9,10
 762 1542 762 1542 733 1569 c 1,11,-1
 604 1720 l 1,12,-1
 479 1569 l 1,13,14
 450 1542 450 1542 410 1542 c 2,15,-1
 406 1542 l 2,16,17
 359 1542 359 1542 358 1571 c 0,18,19
 358 1586 358 1586 371 1608 c 2,20,-1
 485 1788 l 2,21,22
 517 1833 517 1833 580 1833 c 2,0,-1
260 1434 m 2,23,-1
 975 1434 l 2,24,25
 1016 1434 1016 1434 1016 1372 c 2,26,-1
 1016 1339 l 2,27,28
 1016 1278 1016 1278 975 1278 c 2,29,-1
 379 1278 l 1,30,-1
 379 811 l 1,31,-1
 913 811 l 2,32,33
 954 811 954 811 954 750 c 2,34,-1
 954 717 l 2,35,36
 954 656 954 656 913 655 c 2,37,-1
 379 655 l 1,38,-1
 379 156 l 1,39,-1
 977 156 l 2,40,41
 1018 156 1018 156 1018 94 c 2,42,-1
 1018 61 l 2,43,44
 1018 0 1018 0 977 0 c 2,45,-1
 260 0 l 2,46,47
 199 0 199 0 199 61 c 2,48,-1
 199 1372 l 2,49,50
 199 1434 199 1434 260 1434 c 2,23,-1
EndSplineSet
Position2: "'cpsp' Capital Spacing lookup 0 subtable" dx=10 dy=0 dh=20 dv=0
EndChar

StartChar: Ecircumflexacute
Encoding: 7870 7870 47
Width: 1118
GlyphClass: 2
Flags: MW
HStem: 0 156<239 977 379 977 379 977> 655 156<379 913 379 913> 1278 156<379 975 379 379> 1542 291<398 639 414 639 588 778 588 782>
VStem: 199 180<156 655 811 1278>
AnchorPoint: "Anchor-1" 895 1698 basechar 0
AnchorPoint: "Anchor-0" 614 0 basechar 0
LayerCount: 2
Fore
SplineSet
926 1915 m 0,0,1
 957 1968 957 1968 1028.5 1968 c 128,-1,2
 1100 1968 1100 1968 1100 1942 c 0,3,4
 1100 1920 1100 1920 948 1724 c 0,5,6
 919 1687 919 1687 873 1687.5 c 128,-1,7
 827 1688 827 1688 827.5 1707.5 c 128,-1,8
 828 1727 828 1727 926 1915 c 0,0,1
588 1833 m 2,9,-1
 639 1833 l 2,10,11
 684 1833 684 1833 713 1788 c 2,12,-1
 819 1608 l 2,13,14
 831 1590 831 1590 831 1573 c 0,15,16
 831 1542 831 1542 782 1542 c 2,17,-1
 778 1542 l 2,18,19
 729 1542 729 1542 711 1569 c 2,20,-1
 612 1720 l 1,21,-1
 487 1569 l 1,22,23
 458 1542 458 1542 418 1542 c 2,24,-1
 414 1542 l 2,25,26
 367 1542 367 1542 367 1571 c 0,27,28
 367 1586 367 1586 379 1608 c 2,29,-1
 494 1788 l 2,30,31
 525 1833 525 1833 588 1833 c 2,9,-1
260 1434 m 2,32,-1
 975 1434 l 2,33,34
 1016 1434 1016 1434 1016 1372 c 2,35,-1
 1016 1339 l 2,36,37
 1016 1278 1016 1278 975 1278 c 2,38,-1
 379 1278 l 1,39,-1
 379 811 l 1,40,-1
 913 811 l 2,41,42
 954 811 954 811 954 750 c 2,43,-1
 954 717 l 2,44,45
 954 656 954 656 913 655 c 2,46,-1
 379 655 l 1,47,-1
 379 156 l 1,48,-1
 977 156 l 2,49,50
 1018 156 1018 156 1018 94 c 2,51,-1
 1018 61 l 2,52,53
 1018 0 1018 0 977 0 c 2,54,-1
 260 0 l 2,55,56
 199 0 199 0 199 61 c 2,57,-1
 199 1372 l 2,58,59
 199 1434 199 1434 260 1434 c 2,32,-1
EndSplineSet
Position2: "'cpsp' Capital Spacing lookup 0 subtable" dx=10 dy=0 dh=20 dv=0
EndChar

StartChar: Ecircumflexdotbelow
Encoding: 7878 7878 48
Width: 1118
GlyphClass: 2
Flags: MW
HStem: -358 195<590 647> 0 156<239 977 379 977 379 977> 655 156<379 913 379 913> 1278 156<379 975 379 379> 1542 291<390 631 406 631 580 801 580 805>
VStem: 199 180<156 655 811 1278> 532 172<-313 -209 -327 -196>
AnchorPoint: "Anchor-1" 625 -168 basechar 0
AnchorPoint: "Anchor-0" 614 -416 basechar 0
LayerCount: 2
Fore
SplineSet
580 1833 m 2,0,-1
 631 1833 l 2,1,2
 694 1833 694 1833 725 1788 c 2,3,-1
 842 1608 l 2,4,5
 854 1590 854 1590 854 1573 c 0,6,7
 854 1542 854 1542 805 1542 c 2,8,-1
 801 1542 l 2,9,10
 762 1542 762 1542 733 1569 c 1,11,-1
 604 1720 l 1,12,-1
 479 1569 l 1,13,14
 450 1542 450 1542 410 1542 c 2,15,-1
 406 1542 l 2,16,17
 359 1542 359 1542 358 1571 c 0,18,19
 358 1586 358 1586 371 1608 c 2,20,-1
 485 1788 l 2,21,22
 517 1833 517 1833 580 1833 c 2,0,-1
260 1434 m 2,23,-1
 975 1434 l 2,24,25
 1016 1434 1016 1434 1016 1372 c 2,26,-1
 1016 1339 l 2,27,28
 1016 1278 1016 1278 975 1278 c 2,29,-1
 379 1278 l 1,30,-1
 379 811 l 1,31,-1
 913 811 l 2,32,33
 954 811 954 811 954 750 c 2,34,-1
 954 717 l 2,35,36
 954 656 954 656 913 655 c 2,37,-1
 379 655 l 1,38,-1
 379 156 l 1,39,-1
 977 156 l 2,40,41
 1018 156 1018 156 1018 94 c 2,42,-1
 1018 61 l 2,43,44
 1018 0 1018 0 977 0 c 2,45,-1
 260 0 l 2,46,47
 199 0 199 0 199 61 c 2,48,-1
 199 1372 l 2,49,50
 199 1434 199 1434 260 1434 c 2,23,-1
532 -209 m 2,51,52
 532 -164 532 -164 618.5 -164 c 128,-1,53
 705 -164 705 -164 705 -209 c 2,54,-1
 705 -313 l 2,55,56
 705 -358 705 -358 618.5 -358 c 128,-1,57
 532 -358 532 -358 532 -313 c 2,58,-1
 532 -209 l 2,51,52
EndSplineSet
Position2: "'cpsp' Capital Spacing lookup 0 subtable" dx=10 dy=0 dh=20 dv=0
EndChar

StartChar: Ecircumflexgrave
Encoding: 7872 7872 49
Width: 1118
GlyphClass: 2
Flags: MW
HStem: 0 156<239 977 379 977 379 977> 655 156<379 913 379 913> 1278 156<379 975 379 379> 1542 291<398 639 414 639 588 778 588 782>
VStem: 199 180<156 655 811 1278>
AnchorPoint: "Anchor-1" 895 1698 basechar 0
AnchorPoint: "Anchor-0" 614 0 basechar 0
LayerCount: 2
Fore
SplineSet
731 1942 m 0,0,1
 731 1969 731 1969 807 1968.5 c 128,-1,2
 883 1968 883 1968 905 1915 c 0,3,4
 983 1733 983 1733 983 1708 c 0,5,6
 983 1688 983 1688 935 1688 c 128,-1,7
 887 1688 887 1688 865.5 1719.5 c 128,-1,8
 844 1751 844 1751 827.5 1777.5 c 128,-1,9
 811 1804 811 1804 799.5 1821.5 c 128,-1,10
 788 1839 788 1839 777 1855.5 c 128,-1,11
 766 1872 766 1872 760 1882 c 128,-1,12
 754 1892 754 1892 747.5 1901.5 c 128,-1,13
 741 1911 741 1911 739 1916 c 128,-1,14
 737 1921 737 1921 735 1926 c 0,15,16
 731 1937 731 1937 731 1942 c 0,0,1
588 1833 m 2,17,-1
 639 1833 l 2,18,19
 684 1833 684 1833 713 1788 c 2,20,-1
 819 1608 l 2,21,22
 831 1590 831 1590 831 1573 c 0,23,24
 831 1542 831 1542 782 1542 c 2,25,-1
 778 1542 l 2,26,27
 729 1542 729 1542 711 1569 c 2,28,-1
 612 1720 l 1,29,-1
 487 1569 l 1,30,31
 458 1542 458 1542 418 1542 c 2,32,-1
 414 1542 l 2,33,34
 367 1542 367 1542 367 1571 c 0,35,36
 367 1586 367 1586 379 1608 c 2,37,-1
 494 1788 l 2,38,39
 525 1833 525 1833 588 1833 c 2,17,-1
260 1434 m 2,40,-1
 975 1434 l 2,41,42
 1016 1434 1016 1434 1016 1372 c 2,43,-1
 1016 1339 l 2,44,45
 1016 1278 1016 1278 975 1278 c 2,46,-1
 379 1278 l 1,47,-1
 379 811 l 1,48,-1
 913 811 l 2,49,50
 954 811 954 811 954 750 c 2,51,-1
 954 717 l 2,52,53
 954 656 954 656 913 655 c 2,54,-1
 379 655 l 1,55,-1
 379 156 l 1,56,-1
 977 156 l 2,57,58
 1018 156 1018 156 1018 94 c 2,59,-1
 1018 61 l 2,60,61
 1018 0 1018 0 977 0 c 2,62,-1
 260 0 l 2,63,64
 199 0 199 0 199 61 c 2,65,-1
 199 1372 l 2,66,67
 199 1434 199 1434 260 1434 c 2,40,-1
EndSplineSet
Position2: "'cpsp' Capital Spacing lookup 0 subtable" dx=10 dy=0 dh=20 dv=0
EndChar

StartChar: Ecircumflexhookabove
Encoding: 7874 7874 50
Width: 1118
GlyphClass: 2
Flags: MW
HStem: 0 156<239 977 379 977 379 977> 655 156<379 913 379 913> 1278 156<379 975 379 379> 1542 291<398 639 414 639 588 778 588 782> 1907 98<847 887>
VStem: 199 180<156 655 811 1278> 942 117<1837 1870>
AnchorPoint: "Anchor-1" 895 1698 basechar 0
AnchorPoint: "Anchor-0" 614 0 basechar 0
LayerCount: 2
Fore
SplineSet
942 1851 m 0,0,1
 942 1906 942 1906 866 1907 c 0,2,3
 823 1907 823 1907 798.5 1893.5 c 128,-1,4
 774 1880 774 1880 772 1880 c 0,5,6
 760 1880 760 1880 741.5 1905.5 c 128,-1,7
 723 1931 723 1931 723 1949.5 c 128,-1,8
 723 1968 723 1968 776 1986.5 c 128,-1,9
 829 2005 829 2005 888.5 2005 c 128,-1,10
 948 2005 948 2005 1003.5 1971 c 128,-1,11
 1059 1937 1059 1937 1059 1865.5 c 128,-1,12
 1059 1794 1059 1794 996.5 1742 c 128,-1,13
 934 1690 934 1690 903 1690 c 128,-1,14
 872 1690 872 1690 849.5 1703 c 128,-1,15
 827 1716 827 1716 827 1731.5 c 128,-1,16
 827 1747 827 1747 884.5 1778.5 c 128,-1,17
 942 1810 942 1810 942 1851 c 0,0,1
588 1833 m 2,18,-1
 639 1833 l 2,19,20
 684 1833 684 1833 713 1788 c 2,21,-1
 819 1608 l 2,22,23
 831 1590 831 1590 831 1573 c 0,24,25
 831 1542 831 1542 782 1542 c 2,26,-1
 778 1542 l 2,27,28
 729 1542 729 1542 711 1569 c 2,29,-1
 612 1720 l 1,30,-1
 487 1569 l 1,31,32
 458 1542 458 1542 418 1542 c 2,33,-1
 414 1542 l 2,34,35
 367 1542 367 1542 367 1571 c 0,36,37
 367 1586 367 1586 379 1608 c 2,38,-1
 494 1788 l 2,39,40
 525 1833 525 1833 588 1833 c 2,18,-1
260 1434 m 2,41,-1
 975 1434 l 2,42,43
 1016 1434 1016 1434 1016 1372 c 2,44,-1
 1016 1339 l 2,45,46
 1016 1278 1016 1278 975 1278 c 2,47,-1
 379 1278 l 1,48,-1
 379 811 l 1,49,-1
 913 811 l 2,50,51
 954 811 954 811 954 750 c 2,52,-1
 954 717 l 2,53,54
 954 656 954 656 913 655 c 2,55,-1
 379 655 l 1,56,-1
 379 156 l 1,57,-1
 977 156 l 2,58,59
 1018 156 1018 156 1018 94 c 2,60,-1
 1018 61 l 2,61,62
 1018 0 1018 0 977 0 c 2,63,-1
 260 0 l 2,64,65
 199 0 199 0 199 61 c 2,66,-1
 199 1372 l 2,67,68
 199 1434 199 1434 260 1434 c 2,41,-1
EndSplineSet
Position2: "'cpsp' Capital Spacing lookup 0 subtable" dx=10 dy=0 dh=20 dv=0
EndChar

StartChar: Ecircumflextilde
Encoding: 7876 7876 51
Width: 1118
GlyphClass: 2
Flags: MW
HStem: 0 156<239 977 379 977 379 977> 655 156<379 913 379 913> 1278 156<379 975 379 379> 1542 242<390 631 406 631 580 801 580 805> 1849 131<705 738> 1911 131<462 496>
VStem: 199 180<156 655 811 1278>
AnchorPoint: "Anchor-1" 852 1714 basechar 0
AnchorPoint: "Anchor-0" 614 0 basechar 0
LayerCount: 2
Fore
SplineSet
831 2028 m 0,0,1
 868 2055 868 2055 900 2014 c 0,2,3
 932 1974 932 1974 891 1933 c 0,4,5
 789 1849 789 1849 709 1849 c 0,6,7
 629 1849 629 1849 569 1880 c 0,8,9
 510 1911 510 1911 469 1911 c 0,10,11
 428 1911 428 1911 379 1875 c 0,12,13
 330 1839 330 1839 300 1884 c 0,14,15
 270 1929 270 1929 307 1960 c 0,16,17
 413 2042 413 2042 485 2042 c 0,18,19
 557 2042 557 2042 614 2011 c 0,20,21
 671 1980 671 1980 720 1980 c 0,22,23
 768 1981 768 1981 831 2028 c 0,0,1
580 1784 m 2,24,-1
 631 1784 l 2,25,26
 680 1784 680 1784 725 1739 c 1,27,-1
 842 1608 l 1,28,29
 854 1590 854 1590 854 1573 c 0,30,31
 854 1542 854 1542 805 1542 c 2,32,-1
 801 1542 l 2,33,34
 774 1542 774 1542 733 1569 c 1,35,-1
 604 1671 l 1,36,-1
 479 1569 l 1,37,38
 440 1542 440 1542 410 1542 c 2,39,-1
 406 1542 l 2,40,41
 359 1542 359 1542 358 1571 c 0,42,43
 358 1586 358 1586 371 1608 c 1,44,-1
 485 1739 l 1,45,46
 535 1784 535 1784 580 1784 c 2,24,-1
260 1434 m 2,47,-1
 975 1434 l 2,48,49
 1016 1434 1016 1434 1016 1372 c 2,50,-1
 1016 1339 l 2,51,52
 1016 1278 1016 1278 975 1278 c 2,53,-1
 379 1278 l 1,54,-1
 379 811 l 1,55,-1
 913 811 l 2,56,57
 954 811 954 811 954 750 c 2,58,-1
 954 717 l 2,59,60
 954 656 954 656 913 655 c 2,61,-1
 379 655 l 1,62,-1
 379 156 l 1,63,-1
 977 156 l 2,64,65
 1018 156 1018 156 1018 94 c 2,66,-1
 1018 61 l 2,67,68
 1018 0 1018 0 977 0 c 2,69,-1
 260 0 l 2,70,71
 199 0 199 0 199 61 c 2,72,-1
 199 1372 l 2,73,74
 199 1434 199 1434 260 1434 c 2,47,-1
EndSplineSet
Position2: "'cpsp' Capital Spacing lookup 0 subtable" dx=10 dy=0 dh=20 dv=0
EndChar

StartChar: Edieresis
Encoding: 203 203 52
Width: 1118
GlyphClass: 2
Flags: MW
HStem: 0 156<239 977 379 977 379 977> 655 156<379 913 379 913> 1278 156<379 975 379 379> 1606 195<430 487 725 782>
VStem: 199 180<156 655 811 1278> 373 172<1651 1755 1637 1768> 668 172<1651 1755 1637 1768>
AnchorPoint: "Anchor-1" 600 1796 basechar 0
AnchorPoint: "Anchor-0" 614 0 basechar 0
LayerCount: 2
Fore
SplineSet
373 1755 m 2,0,1
 373 1800 373 1800 459 1800 c 128,-1,2
 545 1800 545 1800 545 1755 c 2,3,-1
 545 1651 l 2,4,5
 545 1606 545 1606 459 1606 c 128,-1,6
 373 1606 373 1606 373 1651 c 2,7,-1
 373 1755 l 2,0,1
668 1755 m 2,8,9
 668 1800 668 1800 754 1800 c 128,-1,10
 840 1800 840 1800 840 1755 c 2,11,-1
 840 1651 l 2,12,13
 840 1606 840 1606 754 1606 c 128,-1,14
 668 1606 668 1606 668 1651 c 2,15,-1
 668 1755 l 2,8,9
260 1434 m 2,16,-1
 975 1434 l 2,17,18
 1016 1434 1016 1434 1016 1372 c 2,19,-1
 1016 1339 l 2,20,21
 1016 1278 1016 1278 975 1278 c 2,22,-1
 379 1278 l 1,23,-1
 379 811 l 1,24,-1
 913 811 l 2,25,26
 954 811 954 811 954 750 c 2,27,-1
 954 717 l 2,28,29
 954 656 954 656 913 655 c 2,30,-1
 379 655 l 1,31,-1
 379 156 l 1,32,-1
 977 156 l 2,33,34
 1018 156 1018 156 1018 94 c 2,35,-1
 1018 61 l 2,36,37
 1018 0 1018 0 977 0 c 2,38,-1
 260 0 l 2,39,40
 199 0 199 0 199 61 c 2,41,-1
 199 1372 l 2,42,43
 199 1434 199 1434 260 1434 c 2,16,-1
EndSplineSet
Position2: "'cpsp' Capital Spacing lookup 0 subtable" dx=10 dy=0 dh=20 dv=0
EndChar

StartChar: Edotaccent
Encoding: 278 278 53
Width: 1118
GlyphClass: 2
Flags: MW
HStem: 0 156<239 977 379 977 379 977> 655 156<379 913 379 913> 1278 156<379 975 379 379> 1606 195<578 635>
VStem: 199 180<156 655 811 1278> 520 172<1651 1755 1637 1768>
AnchorPoint: "Anchor-1" 612 1796 basechar 0
AnchorPoint: "Anchor-0" 614 0 basechar 0
LayerCount: 2
Fore
SplineSet
520 1755 m 2,0,1
 520 1800 520 1800 606 1800 c 128,-1,2
 692 1800 692 1800 692 1755 c 2,3,-1
 692 1651 l 2,4,5
 692 1606 692 1606 606 1606 c 128,-1,6
 520 1606 520 1606 520 1651 c 2,7,-1
 520 1755 l 2,0,1
260 1434 m 2,8,-1
 975 1434 l 2,9,10
 1016 1434 1016 1434 1016 1372 c 2,11,-1
 1016 1339 l 2,12,13
 1016 1278 1016 1278 975 1278 c 2,14,-1
 379 1278 l 1,15,-1
 379 811 l 1,16,-1
 913 811 l 2,17,18
 954 811 954 811 954 750 c 2,19,-1
 954 717 l 2,20,21
 954 656 954 656 913 655 c 2,22,-1
 379 655 l 1,23,-1
 379 156 l 1,24,-1
 977 156 l 2,25,26
 1018 156 1018 156 1018 94 c 2,27,-1
 1018 61 l 2,28,29
 1018 0 1018 0 977 0 c 2,30,-1
 260 0 l 2,31,32
 199 0 199 0 199 61 c 2,33,-1
 199 1372 l 2,34,35
 199 1434 199 1434 260 1434 c 2,8,-1
EndSplineSet
Position2: "'cpsp' Capital Spacing lookup 0 subtable" dx=10 dy=0 dh=20 dv=0
EndChar

StartChar: Edotbelow
Encoding: 7864 7864 54
Width: 1118
GlyphClass: 2
Flags: MW
HStem: -358 195<590 647> 0 156<239 977 379 977 379 977> 655 156<379 913 379 913> 1278 156<379 975 379 379>
VStem: 199 180<156 655 811 1278> 532 172<-313 -209 -327 -196>
AnchorPoint: "Anchor-1" 625 -168 basechar 0
AnchorPoint: "Anchor-0" 614 -416 basechar 0
LayerCount: 2
Fore
SplineSet
260 1434 m 2,0,-1
 975 1434 l 2,1,2
 1016 1434 1016 1434 1016 1372 c 2,3,-1
 1016 1339 l 2,4,5
 1016 1278 1016 1278 975 1278 c 2,6,-1
 379 1278 l 1,7,-1
 379 811 l 1,8,-1
 913 811 l 2,9,10
 954 811 954 811 954 750 c 2,11,-1
 954 717 l 2,12,13
 954 656 954 656 913 655 c 2,14,-1
 379 655 l 1,15,-1
 379 156 l 1,16,-1
 977 156 l 2,17,18
 1018 156 1018 156 1018 94 c 2,19,-1
 1018 61 l 2,20,21
 1018 0 1018 0 977 0 c 2,22,-1
 260 0 l 2,23,24
 199 0 199 0 199 61 c 2,25,-1
 199 1372 l 2,26,27
 199 1434 199 1434 260 1434 c 2,0,-1
532 -209 m 2,28,29
 532 -164 532 -164 618.5 -164 c 128,-1,30
 705 -164 705 -164 705 -209 c 2,31,-1
 705 -313 l 2,32,33
 705 -358 705 -358 618.5 -358 c 128,-1,34
 532 -358 532 -358 532 -313 c 2,35,-1
 532 -209 l 2,28,29
EndSplineSet
Position2: "'cpsp' Capital Spacing lookup 0 subtable" dx=10 dy=0 dh=20 dv=0
EndChar

StartChar: Egrave
Encoding: 200 200 55
Width: 1118
GlyphClass: 2
Flags: MW
HStem: 0 156<239 977 379 977 379 977> 655 156<379 913 379 913> 1278 156<379 975 379 379>
VStem: 199 180<156 655 811 1278>
AnchorPoint: "Anchor-1" 596 1796 basechar 0
AnchorPoint: "Anchor-0" 614 0 basechar 0
LayerCount: 2
Fore
SplineSet
365 1835 m 0,0,1
 365 1862 365 1862 462 1862 c 128,-1,2
 559 1862 559 1862 590 1808 c 0,3,4
 709 1601 709 1601 709 1581 c 128,-1,5
 709 1561 709 1561 649.5 1561 c 128,-1,6
 590 1561 590 1561 557 1597 c 0,7,8
 377 1803 377 1803 371 1815 c 128,-1,9
 365 1827 365 1827 365 1835 c 0,0,1
260 1434 m 2,10,-1
 975 1434 l 2,11,12
 1016 1434 1016 1434 1016 1372 c 2,13,-1
 1016 1339 l 2,14,15
 1016 1278 1016 1278 975 1278 c 2,16,-1
 379 1278 l 1,17,-1
 379 811 l 1,18,-1
 913 811 l 2,19,20
 954 811 954 811 954 750 c 2,21,-1
 954 717 l 2,22,23
 954 656 954 656 913 655 c 2,24,-1
 379 655 l 1,25,-1
 379 156 l 1,26,-1
 977 156 l 2,27,28
 1018 156 1018 156 1018 94 c 2,29,-1
 1018 61 l 2,30,31
 1018 0 1018 0 977 0 c 2,32,-1
 260 0 l 2,33,34
 199 0 199 0 199 61 c 2,35,-1
 199 1372 l 2,36,37
 199 1434 199 1434 260 1434 c 2,10,-1
EndSplineSet
Position2: "'cpsp' Capital Spacing lookup 0 subtable" dx=10 dy=0 dh=20 dv=0
EndChar

StartChar: Ehookabove
Encoding: 7866 7866 56
Width: 1118
GlyphClass: 2
Flags: MW
HStem: 0 156<239 977 379 977 379 977> 655 156<379 913 379 913> 1278 156<379 975 379 379> 1794 104<585 625>
VStem: 199 180<156 655 811 1278> 680 127<1688 1757>
AnchorPoint: "Anchor-1" 608 1796 basechar 0
AnchorPoint: "Anchor-0" 614 0 basechar 0
LayerCount: 2
Fore
SplineSet
680 1739 m 0,0,1
 680 1794 680 1794 604 1794 c 0,2,3
 554 1794 554 1794 533 1780.5 c 128,-1,4
 512 1767 512 1767 510 1767 c 0,5,6
 498 1767 498 1767 479.5 1793 c 128,-1,7
 461 1819 461 1819 461 1837 c 128,-1,8
 461 1855 461 1855 514 1876.5 c 128,-1,9
 567 1898 567 1898 627.5 1898 c 128,-1,10
 688 1898 688 1898 747.5 1863.5 c 128,-1,11
 807 1829 807 1829 807 1747 c 128,-1,12
 807 1665 807 1665 730 1590.5 c 128,-1,13
 653 1516 653 1516 621 1516 c 0,14,15
 605 1516 605 1516 579 1527 c 128,-1,16
 553 1538 553 1538 553 1555.5 c 128,-1,17
 553 1573 553 1573 584.5 1599.5 c 128,-1,18
 616 1626 616 1626 648 1661 c 128,-1,19
 680 1696 680 1696 680 1739 c 0,0,1
260 1434 m 2,20,-1
 975 1434 l 2,21,22
 1016 1434 1016 1434 1016 1372 c 2,23,-1
 1016 1339 l 2,24,25
 1016 1278 1016 1278 975 1278 c 2,26,-1
 379 1278 l 1,27,-1
 379 811 l 1,28,-1
 913 811 l 2,29,30
 954 811 954 811 954 750 c 2,31,-1
 954 717 l 2,32,33
 954 656 954 656 913 655 c 2,34,-1
 379 655 l 1,35,-1
 379 156 l 1,36,-1
 977 156 l 2,37,38
 1018 156 1018 156 1018 94 c 2,39,-1
 1018 61 l 2,40,41
 1018 0 1018 0 977 0 c 2,42,-1
 260 0 l 2,43,44
 199 0 199 0 199 61 c 2,45,-1
 199 1372 l 2,46,47
 199 1434 199 1434 260 1434 c 2,20,-1
EndSplineSet
Position2: "'cpsp' Capital Spacing lookup 0 subtable" dx=10 dy=0 dh=20 dv=0
EndChar

StartChar: Emacron
Encoding: 274 274 57
Width: 1118
GlyphClass: 2
Flags: MW
HStem: 0 156<239 977 379 977 379 977> 655 156<379 913 379 913> 1278 156<379 975 379 379> 1616 143<365 836 379 836>
VStem: 199 180<156 655 811 1278>
AnchorPoint: "Anchor-1" 604 1796 basechar 0
AnchorPoint: "Anchor-0" 614 0 basechar 0
LayerCount: 2
Fore
SplineSet
379 1759 m 2,0,-1
 836 1759 l 2,1,2
 877 1759 877 1759 877 1698 c 2,3,-1
 877 1677 l 2,4,5
 877 1616 877 1616 836 1616 c 2,6,-1
 379 1616 l 2,7,8
 338 1616 338 1616 338 1677 c 2,9,-1
 338 1698 l 2,10,11
 338 1759 338 1759 379 1759 c 2,0,-1
260 1434 m 2,12,-1
 975 1434 l 2,13,14
 1016 1434 1016 1434 1016 1372 c 2,15,-1
 1016 1339 l 2,16,17
 1016 1278 1016 1278 975 1278 c 2,18,-1
 379 1278 l 1,19,-1
 379 811 l 1,20,-1
 913 811 l 2,21,22
 954 811 954 811 954 750 c 2,23,-1
 954 717 l 2,24,25
 954 656 954 656 913 655 c 2,26,-1
 379 655 l 1,27,-1
 379 156 l 1,28,-1
 977 156 l 2,29,30
 1018 156 1018 156 1018 94 c 2,31,-1
 1018 61 l 2,32,33
 1018 0 1018 0 977 0 c 2,34,-1
 260 0 l 2,35,36
 199 0 199 0 199 61 c 2,37,-1
 199 1372 l 2,38,39
 199 1434 199 1434 260 1434 c 2,12,-1
EndSplineSet
Position2: "'cpsp' Capital Spacing lookup 0 subtable" dx=10 dy=0 dh=20 dv=0
EndChar

StartChar: Eogonek
Encoding: 280 280 58
Width: 1118
GlyphClass: 2
Flags: MW
HStem: -375 143<1056 1095 1056 1108> 0 156<239 977 379 866 977 991> 655 156<379 913 379 913> 1278 156<379 975 379 379>
VStem: 199 180<156 655 811 1278> 815 137<-176 -145>
AnchorPoint: "Anchor-1" 606 1434 basechar 0
AnchorPoint: "Anchor-0" 799 -416 basechar 0
LayerCount: 2
Fore
SplineSet
1079 -231 m 1,0,-1
 1186 -211 l 1,1,2
 1225 -211 1225 -211 1225 -269.5 c 128,-1,3
 1225 -328 1225 -328 1183 -351.5 c 128,-1,4
 1141 -375 1141 -375 1061 -375 c 128,-1,5
 981 -375 981 -375 927.5 -351.5 c 128,-1,6
 874 -328 874 -328 853 -291 c 0,7,8
 815 -226 815 -226 815 -166 c 0,9,10
 815 -49 815 -49 866 0 c 1,11,-1
 260 0 l 2,12,13
 199 0 199 0 199 61 c 2,14,-1
 199 1372 l 2,15,16
 199 1433 199 1433 260 1434 c 2,17,-1
 975 1434 l 2,18,19
 1016 1434 1016 1434 1016 1372 c 2,20,-1
 1016 1339 l 2,21,22
 1016 1278 1016 1278 975 1278 c 2,23,-1
 379 1278 l 1,24,-1
 379 811 l 1,25,-1
 913 811 l 2,26,27
 954 811 954 811 954 750 c 2,28,-1
 954 717 l 2,29,30
 954 656 954 656 913 655 c 2,31,-1
 379 655 l 1,32,-1
 379 156 l 1,33,-1
 977 156 l 2,34,35
 1018 156 1018 156 1018 94 c 2,36,-1
 1018 61 l 2,37,38
 1018 0 1018 0 977 0 c 1,39,-1
 977 -2 l 2,40,41
 977 -14 977 -14 964.5 -57 c 128,-1,42
 952 -100 952 -100 952 -127 c 0,43,44
 952 -231 952 -231 1079 -231 c 1,0,-1
EndSplineSet
Position2: "'cpsp' Capital Spacing lookup 0 subtable" dx=10 dy=0 dh=20 dv=0
EndChar

StartChar: Etilde
Encoding: 7868 7868 59
Width: 1118
GlyphClass: 2
Flags: MW
HStem: 0 156<239 977 379 977 379 977> 655 156<379 913 379 913> 1278 156<379 975 379 379> 1561 131<723 759> 1622 131<456 493>
VStem: 199 180<156 655 811 1278>
AnchorPoint: "Anchor-1" 627 1796 basechar 0
AnchorPoint: "Anchor-0" 614 0 basechar 0
LayerCount: 2
Fore
SplineSet
862 1739 m 0,0,1
 901 1766 901 1766 936 1724 c 0,2,3
 971 1683 971 1683 928 1645 c 0,4,5
 813 1561 813 1561 725 1561 c 0,6,7
 637 1561 637 1561 571 1591 c 0,8,9
 505 1622 505 1622 462 1622 c 0,10,11
 418 1622 418 1622 365 1586 c 0,12,13
 312 1550 312 1550 278 1596 c 0,14,15
 244 1642 244 1642 285 1671 c 0,16,17
 404 1753 404 1753 483 1753 c 0,18,19
 563 1753 563 1753 625 1722 c 0,20,21
 686 1691 686 1691 738 1692 c 0,22,23
 790 1692 790 1692 862 1739 c 0,0,1
260 1434 m 2,24,-1
 975 1434 l 2,25,26
 1016 1434 1016 1434 1016 1372 c 2,27,-1
 1016 1339 l 2,28,29
 1016 1278 1016 1278 975 1278 c 2,30,-1
 379 1278 l 1,31,-1
 379 811 l 1,32,-1
 913 811 l 2,33,34
 954 811 954 811 954 750 c 2,35,-1
 954 717 l 2,36,37
 954 656 954 656 913 655 c 2,38,-1
 379 655 l 1,39,-1
 379 156 l 1,40,-1
 977 156 l 2,41,42
 1018 156 1018 156 1018 94 c 2,43,-1
 1018 61 l 2,44,45
 1018 0 1018 0 977 0 c 2,46,-1
 260 0 l 2,47,48
 199 0 199 0 199 61 c 2,49,-1
 199 1372 l 2,50,51
 199 1434 199 1434 260 1434 c 2,24,-1
EndSplineSet
Position2: "'cpsp' Capital Spacing lookup 0 subtable" dx=10 dy=0 dh=20 dv=0
EndChar

StartChar: F
Encoding: 70 70 60
Width: 1030
GlyphClass: 2
Flags: MW
HStem: 655 156<379 868 379 868> 1278 156<379 905 379 379>
VStem: 199 180<41 655 811 1278>
LayerCount: 2
Fore
SplineSet
260 1434 m 2,0,-1
 905 1434 l 2,1,2
 946 1434 946 1434 946 1372 c 2,3,-1
 946 1339 l 2,4,5
 946 1278 946 1278 905 1278 c 2,6,-1
 379 1278 l 1,7,-1
 379 811 l 1,8,-1
 868 811 l 2,9,10
 909 811 909 811 909 750 c 2,11,-1
 909 717 l 2,12,13
 909 656 909 656 868 655 c 2,14,-1
 379 655 l 1,15,-1
 379 41 l 2,16,17
 379 -4 379 -4 297 -4 c 2,18,-1
 281 -4 l 2,19,20
 199 -4 199 -4 199 41 c 2,21,-1
 199 1372 l 2,22,23
 199 1434 199 1434 260 1434 c 2,0,-1
EndSplineSet
Position2: "'cpsp' Capital Spacing lookup 0 subtable" dx=10 dy=0 dh=20 dv=0
EndChar

StartChar: G
Encoding: 71 71 61
Width: 1376
GlyphClass: 2
Flags: MW
HStem: -12 156<580 815 580 866> 584 156<772 1145 786 1026> 1290 156<603 882 566 883>
VStem: 117 186<566 901 566 959> 1026 180<170 584 584 584>
AnchorPoint: "Anchor-1" 688 1434 basechar 0
AnchorPoint: "Anchor-0" 793 0 basechar 0
LayerCount: 2
Fore
SplineSet
780 1446 m 0,0,1
 927 1446 927 1446 1049 1404 c 128,-1,2
 1171 1362 1171 1362 1171 1319 c 0,3,4
 1171 1290 1171 1290 1145.5 1245 c 128,-1,5
 1120 1200 1120 1200 1102 1200 c 0,6,7
 1098 1200 1098 1200 1058 1222.5 c 128,-1,8
 1018 1245 1018 1245 944 1267.5 c 128,-1,9
 870 1290 870 1290 784 1290 c 0,10,11
 524 1290 524 1290 413.5 1147 c 128,-1,12
 303 1004 303 1004 303 723 c 0,13,14
 303 143 303 143 762 143 c 0,15,16
 924 143 924 143 1026 170 c 1,17,-1
 1026 584 l 1,18,-1
 786 584 l 2,19,20
 745 584 745 584 745 645 c 2,21,-1
 745 678 l 2,22,23
 745 739 745 739 786 739 c 2,24,-1
 1145 739 l 2,25,26
 1206 739 1206 739 1206 678 c 2,27,-1
 1206 135 l 2,28,29
 1206 -12 1206 -12 750 -12 c 0,30,31
 117 -12 117 -12 117 705 c 0,32,33
 116 1446 116 1446 780 1446 c 0,0,1
EndSplineSet
Position2: "'cpsp' Capital Spacing lookup 0 subtable" dx=10 dy=0 dh=20 dv=0
EndChar

StartChar: Gbreve
Encoding: 286 286 62
Width: 1376
GlyphClass: 2
Flags: MW
HStem: -12 156<580 815 580 866> 584 156<772 1145 786 1026> 1290 156<603 882 566 883> 1561 135<640 740 640 763>
VStem: 117 186<566 901 566 959> 1026 180<170 584 584 584>
AnchorPoint: "Anchor-1" 690 1737 basechar 0
AnchorPoint: "Anchor-0" 793 0 basechar 0
LayerCount: 2
Fore
SplineSet
954 1827 m 0,0,1
 985 1827 985 1827 985 1796 c 0,2,3
 985 1685 985 1685 897 1623 c 128,-1,4
 809 1561 809 1561 689 1561 c 128,-1,5
 569 1561 569 1561 481 1623.5 c 128,-1,6
 393 1686 393 1686 393 1796 c 0,7,8
 393 1827 393 1827 424 1827 c 0,9,10
 447 1827 447 1827 451 1818 c 0,11,12
 463 1788 463 1788 469 1776 c 0,13,14
 512 1696 512 1696 689 1696 c 0,15,16
 884 1696 884 1696 916 1793 c 0,17,18
 925 1821 925 1821 934.5 1824 c 128,-1,19
 944 1827 944 1827 954 1827 c 0,0,1
780 1446 m 0,20,21
 927 1446 927 1446 1049 1404 c 128,-1,22
 1171 1362 1171 1362 1171 1319 c 0,23,24
 1171 1290 1171 1290 1145.5 1245 c 128,-1,25
 1120 1200 1120 1200 1102 1200 c 0,26,27
 1098 1200 1098 1200 1058 1222.5 c 128,-1,28
 1018 1245 1018 1245 944 1267.5 c 128,-1,29
 870 1290 870 1290 784 1290 c 0,30,31
 524 1290 524 1290 413.5 1147 c 128,-1,32
 303 1004 303 1004 303 723 c 0,33,34
 303 143 303 143 762 143 c 0,35,36
 924 143 924 143 1026 170 c 1,37,-1
 1026 584 l 1,38,-1
 786 584 l 2,39,40
 745 584 745 584 745 645 c 2,41,-1
 745 678 l 2,42,43
 745 739 745 739 786 739 c 2,44,-1
 1145 739 l 2,45,46
 1206 739 1206 739 1206 678 c 2,47,-1
 1206 135 l 2,48,49
 1206 -12 1206 -12 750 -12 c 0,50,51
 117 -12 117 -12 117 705 c 0,52,53
 116 1446 116 1446 780 1446 c 0,20,21
EndSplineSet
Position2: "'cpsp' Capital Spacing lookup 0 subtable" dx=10 dy=0 dh=20 dv=0
EndChar

StartChar: Gcircumflex
Encoding: 284 284 63
Width: 1376
GlyphClass: 2
Flags: MW
HStem: -12 156<580 815 580 866> 584 156<772 1145 786 1026> 1290 156<603 882 566 883> 1542 291<472 713 487 713 662 883 662 887>
VStem: 117 186<566 901 566 959> 1026 180<170 584 584 584>
AnchorPoint: "Anchor-1" 1014 1624 basechar 0
AnchorPoint: "Anchor-0" 793 0 basechar 0
LayerCount: 2
Fore
SplineSet
662 1833 m 2,0,-1
 713 1833 l 2,1,2
 776 1833 776 1833 807 1788 c 2,3,-1
 924 1608 l 2,4,5
 936 1590 936 1590 936 1573 c 0,6,7
 936 1542 936 1542 887 1542 c 2,8,-1
 883 1542 l 2,9,10
 844 1542 844 1542 815 1569 c 1,11,-1
 686 1720 l 1,12,-1
 561 1569 l 1,13,14
 532 1542 532 1542 492 1542 c 2,15,-1
 487 1542 l 2,16,17
 440 1542 440 1542 440 1571 c 0,18,19
 440 1586 440 1586 453 1608 c 2,20,-1
 567 1788 l 2,21,22
 599 1833 599 1833 662 1833 c 2,0,-1
780 1446 m 0,23,24
 927 1446 927 1446 1049 1404 c 128,-1,25
 1171 1362 1171 1362 1171 1319 c 0,26,27
 1171 1290 1171 1290 1145.5 1245 c 128,-1,28
 1120 1200 1120 1200 1102 1200 c 0,29,30
 1098 1200 1098 1200 1058 1222.5 c 128,-1,31
 1018 1245 1018 1245 944 1267.5 c 128,-1,32
 870 1290 870 1290 784 1290 c 0,33,34
 524 1290 524 1290 413.5 1147 c 128,-1,35
 303 1004 303 1004 303 723 c 0,36,37
 303 143 303 143 762 143 c 0,38,39
 924 143 924 143 1026 170 c 1,40,-1
 1026 584 l 1,41,-1
 786 584 l 2,42,43
 745 584 745 584 745 645 c 2,44,-1
 745 678 l 2,45,46
 745 739 745 739 786 739 c 2,47,-1
 1145 739 l 2,48,49
 1206 739 1206 739 1206 678 c 2,50,-1
 1206 135 l 2,51,52
 1206 -12 1206 -12 750 -12 c 0,53,54
 117 -12 117 -12 117 705 c 0,55,56
 116 1446 116 1446 780 1446 c 0,23,24
EndSplineSet
Position2: "'cpsp' Capital Spacing lookup 0 subtable" dx=10 dy=0 dh=20 dv=0
EndChar

StartChar: Gcommaaccent
Encoding: 290 290 64
Width: 1376
GlyphClass: 2
Flags: MW
HStem: -12 156<580 815 580 866> 584 156<772 1145 786 1026> 1290 156<603 882 566 883>
VStem: 117 186<566 901 566 959> 700 182<-248 -151> 1026 180<170 584 584 584>
AnchorPoint: "Anchor-1" 688 1434 basechar 0
AnchorPoint: "Anchor-0" 784 -416 basechar 0
LayerCount: 2
Fore
SplineSet
780 1446 m 0,0,1
 927 1446 927 1446 1049 1404 c 128,-1,2
 1171 1362 1171 1362 1171 1319 c 0,3,4
 1171 1290 1171 1290 1145.5 1245 c 128,-1,5
 1120 1200 1120 1200 1102 1200 c 0,6,7
 1098 1200 1098 1200 1058 1222.5 c 128,-1,8
 1018 1245 1018 1245 944 1267.5 c 128,-1,9
 870 1290 870 1290 784 1290 c 0,10,11
 524 1290 524 1290 413.5 1147 c 128,-1,12
 303 1004 303 1004 303 723 c 0,13,14
 303 143 303 143 762 143 c 0,15,16
 924 143 924 143 1026 170 c 1,17,-1
 1026 584 l 1,18,-1
 786 584 l 2,19,20
 745 584 745 584 745 645 c 2,21,-1
 745 678 l 2,22,23
 745 739 745 739 786 739 c 2,24,-1
 1145 739 l 2,25,26
 1206 739 1206 739 1206 678 c 2,27,-1
 1206 135 l 2,28,29
 1206 -12 1206 -12 750 -12 c 0,30,31
 117 -12 117 -12 117 705 c 0,32,33
 116 1446 116 1446 780 1446 c 0,0,1
782 -104 m 2,34,-1
 801 -104 l 2,35,36
 883 -104 883 -104 883 -162 c 0,37,38
 883 -295 883 -295 808 -388 c 128,-1,39
 733 -481 733 -481 673 -481 c 0,40,41
 613 -481 613 -481 612 -451 c 0,42,43
 612 -441 612 -441 656 -351.5 c 128,-1,44
 700 -262 700 -262 700 -170 c 0,45,46
 700 -104 700 -104 782 -104 c 2,34,-1
EndSplineSet
Position2: "'cpsp' Capital Spacing lookup 0 subtable" dx=10 dy=0 dh=20 dv=0
EndChar

StartChar: Gdotaccent
Encoding: 288 288 65
Width: 1376
GlyphClass: 2
Flags: MW
HStem: -12 156<580 815 580 866> 584 156<772 1145 786 1026> 1290 156<603 882 566 883> 1606 195<659 717>
VStem: 117 186<566 901 566 959> 602 172<1651 1755 1637 1768> 1026 180<170 584 584 584>
AnchorPoint: "Anchor-1" 694 1796 basechar 0
AnchorPoint: "Anchor-0" 793 0 basechar 0
LayerCount: 2
Fore
SplineSet
602 1755 m 2,0,1
 602 1800 602 1800 688 1800 c 128,-1,2
 774 1800 774 1800 774 1755 c 2,3,-1
 774 1651 l 2,4,5
 774 1606 774 1606 688 1606 c 128,-1,6
 602 1606 602 1606 602 1651 c 2,7,-1
 602 1755 l 2,0,1
780 1446 m 0,8,9
 927 1446 927 1446 1049 1404 c 128,-1,10
 1171 1362 1171 1362 1171 1319 c 0,11,12
 1171 1290 1171 1290 1145.5 1245 c 128,-1,13
 1120 1200 1120 1200 1102 1200 c 0,14,15
 1098 1200 1098 1200 1058 1222.5 c 128,-1,16
 1018 1245 1018 1245 944 1267.5 c 128,-1,17
 870 1290 870 1290 784 1290 c 0,18,19
 524 1290 524 1290 413.5 1147 c 128,-1,20
 303 1004 303 1004 303 723 c 0,21,22
 303 143 303 143 762 143 c 0,23,24
 924 143 924 143 1026 170 c 1,25,-1
 1026 584 l 1,26,-1
 786 584 l 2,27,28
 745 584 745 584 745 645 c 2,29,-1
 745 678 l 2,30,31
 745 739 745 739 786 739 c 2,32,-1
 1145 739 l 2,33,34
 1206 739 1206 739 1206 678 c 2,35,-1
 1206 135 l 2,36,37
 1206 -12 1206 -12 750 -12 c 0,38,39
 117 -12 117 -12 117 705 c 0,40,41
 116 1446 116 1446 780 1446 c 0,8,9
EndSplineSet
Position2: "'cpsp' Capital Spacing lookup 0 subtable" dx=10 dy=0 dh=20 dv=0
EndChar

StartChar: H
Encoding: 72 72 66
Width: 1501
GlyphClass: 2
Flags: MW
HStem: 657 156<379 1120 379 1120> 1397 41G<281 297 297 326 1202 1219 1219 1247>
VStem: 199 180<41 657 813 1393> 1120 180<41 657 657 657 813 1393>
AnchorPoint: "Anchor-1" 752 1434 basechar 0
AnchorPoint: "Anchor-0" 770 0 basechar 0
LayerCount: 2
Fore
SplineSet
1202 1438 m 2,0,-1
 1219 1438 l 2,1,2
 1301 1438 1301 1438 1300 1393 c 2,3,-1
 1300 41 l 2,4,5
 1300 -4 1300 -4 1219 -4 c 2,6,-1
 1202 -4 l 2,7,8
 1120 -4 1120 -4 1120 41 c 2,9,-1
 1120 657 l 1,10,-1
 379 657 l 1,11,-1
 379 41 l 2,12,13
 379 -4 379 -4 297 -4 c 2,14,-1
 281 -4 l 2,15,16
 199 -4 199 -4 199 41 c 2,17,-1
 199 1393 l 2,18,19
 199 1438 199 1438 281 1438 c 2,20,-1
 297 1438 l 2,21,22
 379 1438 379 1438 379 1393 c 2,23,-1
 379 813 l 1,24,-1
 1120 813 l 1,25,-1
 1120 1393 l 2,26,27
 1120 1438 1120 1438 1202 1438 c 2,0,-1
EndSplineSet
Position2: "'cpsp' Capital Spacing lookup 0 subtable" dx=10 dy=0 dh=20 dv=0
EndChar

StartChar: Hbar
Encoding: 294 294 67
Width: 1501
GlyphClass: 2
Flags: MW
HStem: 657 156<379 1120 379 1120> 1006 143<135 199 150 199 379 1120 1300 1343> 1397 41G<281 297 297 326 1202 1219 1219 1247>
VStem: 199 180<41 657 813 1006 1149 1393> 1120 180<41 657 657 657 813 1006 1149 1393>
AnchorPoint: "Anchor-1" 752 1434 basechar 0
AnchorPoint: "Anchor-0" 770 0 basechar 0
LayerCount: 2
Fore
SplineSet
1300 1149 m 1,0,-1
 1343 1149 l 2,1,2
 1384 1149 1384 1149 1384 1087 c 2,3,-1
 1384 1067 l 2,4,5
 1384 1006 1384 1006 1343 1006 c 2,6,-1
 1300 1006 l 1,7,-1
 1300 41 l 2,8,9
 1300 -4 1300 -4 1219 -4 c 2,10,-1
 1202 -4 l 2,11,12
 1120 -4 1120 -4 1120 41 c 2,13,-1
 1120 657 l 1,14,-1
 379 657 l 1,15,-1
 379 41 l 2,16,17
 379 -4 379 -4 297 -4 c 2,18,-1
 281 -4 l 2,19,20
 199 -4 199 -4 199 41 c 2,21,-1
 199 1006 l 1,22,-1
 150 1006 l 2,23,24
 109 1006 109 1006 109 1067 c 2,25,-1
 109 1087 l 2,26,27
 109 1148 109 1148 150 1149 c 2,28,-1
 199 1149 l 1,29,-1
 199 1393 l 2,30,31
 199 1438 199 1438 281 1438 c 2,32,-1
 297 1438 l 2,33,34
 379 1438 379 1438 379 1393 c 2,35,-1
 379 1149 l 1,36,-1
 1120 1149 l 1,37,-1
 1120 1393 l 2,38,39
 1120 1438 1120 1438 1202 1438 c 2,40,-1
 1219 1438 l 2,41,42
 1301 1438 1301 1438 1300 1393 c 2,43,-1
 1300 1149 l 1,0,-1
1120 1006 m 1,44,-1
 379 1006 l 1,45,-1
 379 813 l 1,46,-1
 1120 813 l 1,47,-1
 1120 1006 l 1,44,-1
EndSplineSet
Position2: "'cpsp' Capital Spacing lookup 0 subtable" dx=10 dy=0 dh=20 dv=0
EndChar

StartChar: Hcircumflex
Encoding: 292 292 68
Width: 1501
GlyphClass: 2
Flags: MW
HStem: 657 156<379 1120 379 1120> 1397 41G<281 297 297 326 1202 1219 1219 1247> 1542 291<536 776 551 776 725 946 725 950>
VStem: 199 180<41 657 813 1393> 1120 180<41 657 657 657 813 1393>
AnchorPoint: "Anchor-1" 1077 1624 basechar 0
AnchorPoint: "Anchor-0" 770 0 basechar 0
LayerCount: 2
Fore
SplineSet
725 1833 m 2,0,-1
 776 1833 l 2,1,2
 839 1833 839 1833 870 1788 c 2,3,-1
 987 1608 l 2,4,5
 999 1590 999 1590 999 1573 c 0,6,7
 999 1542 999 1542 950 1542 c 2,8,-1
 946 1542 l 2,9,10
 907 1542 907 1542 879 1569 c 1,11,-1
 750 1720 l 1,12,-1
 625 1569 l 1,13,14
 596 1542 596 1542 555 1542 c 2,15,-1
 551 1542 l 2,16,17
 504 1542 504 1542 504 1571 c 0,18,19
 504 1586 504 1586 516 1608 c 2,20,-1
 631 1788 l 2,21,22
 662 1833 662 1833 725 1833 c 2,0,-1
1202 1438 m 2,23,-1
 1219 1438 l 2,24,25
 1301 1438 1301 1438 1300 1393 c 2,26,-1
 1300 41 l 2,27,28
 1300 -4 1300 -4 1219 -4 c 2,29,-1
 1202 -4 l 2,30,31
 1120 -4 1120 -4 1120 41 c 2,32,-1
 1120 657 l 1,33,-1
 379 657 l 1,34,-1
 379 41 l 2,35,36
 379 -4 379 -4 297 -4 c 2,37,-1
 281 -4 l 2,38,39
 199 -4 199 -4 199 41 c 2,40,-1
 199 1393 l 2,41,42
 199 1438 199 1438 281 1438 c 2,43,-1
 297 1438 l 2,44,45
 379 1438 379 1438 379 1393 c 2,46,-1
 379 813 l 1,47,-1
 1120 813 l 1,48,-1
 1120 1393 l 2,49,50
 1120 1438 1120 1438 1202 1438 c 2,23,-1
EndSplineSet
Position2: "'cpsp' Capital Spacing lookup 0 subtable" dx=10 dy=0 dh=20 dv=0
EndChar

StartChar: Hdotbelow
Encoding: 7716 7716 69
Width: 1501
GlyphClass: 2
Flags: MW
HStem: -358 195<745 803> 657 156<379 1120 379 1120> 1397 41G<281 297 297 326 1202 1219 1219 1247>
VStem: 199 180<41 657 813 1393> 688 172<-313 -209 -327 -196> 1120 180<41 657 657 657 813 1393>
AnchorPoint: "Anchor-1" 780 -168 basechar 0
AnchorPoint: "Anchor-0" 770 -416 basechar 0
LayerCount: 2
Fore
SplineSet
1202 1438 m 2,0,-1
 1219 1438 l 2,1,2
 1301 1438 1301 1438 1300 1393 c 2,3,-1
 1300 41 l 2,4,5
 1300 -4 1300 -4 1219 -4 c 2,6,-1
 1202 -4 l 2,7,8
 1120 -4 1120 -4 1120 41 c 2,9,-1
 1120 657 l 1,10,-1
 379 657 l 1,11,-1
 379 41 l 2,12,13
 379 -4 379 -4 297 -4 c 2,14,-1
 281 -4 l 2,15,16
 199 -4 199 -4 199 41 c 2,17,-1
 199 1393 l 2,18,19
 199 1438 199 1438 281 1438 c 2,20,-1
 297 1438 l 2,21,22
 379 1438 379 1438 379 1393 c 2,23,-1
 379 813 l 1,24,-1
 1120 813 l 1,25,-1
 1120 1393 l 2,26,27
 1120 1438 1120 1438 1202 1438 c 2,0,-1
688 -209 m 2,28,29
 688 -164 688 -164 774 -164 c 128,-1,30
 860 -164 860 -164 860 -209 c 2,31,-1
 860 -313 l 2,32,33
 860 -358 860 -358 774 -358 c 128,-1,34
 688 -358 688 -358 688 -313 c 2,35,-1
 688 -209 l 2,28,29
EndSplineSet
Position2: "'cpsp' Capital Spacing lookup 0 subtable" dx=10 dy=0 dh=20 dv=0
EndChar

StartChar: I
Encoding: 73 73 70
Width: 577
GlyphClass: 2
Flags: MW
HStem: 1397 41G<281 297 297 326>
VStem: 199 180<41 1393>
AnchorPoint: "Anchor-1" 289 1434 basechar 0
AnchorPoint: "Anchor-0" 287 0 basechar 0
LayerCount: 2
Fore
SplineSet
281 1438 m 2,0,-1
 297 1438 l 2,1,2
 379 1438 379 1438 379 1393 c 2,3,-1
 379 41 l 2,4,5
 379 -4 379 -4 297 -4 c 2,6,-1
 281 -4 l 2,7,8
 199 -4 199 -4 199 41 c 2,9,-1
 199 1393 l 2,10,11
 199 1438 199 1438 281 1438 c 2,0,-1
EndSplineSet
Position2: "'cpsp' Capital Spacing lookup 0 subtable" dx=10 dy=0 dh=20 dv=0
EndChar

StartChar: IJ
Encoding: 306 306 71
Width: 1400
GlyphClass: 2
Flags: MW
HStem: -12 160<758 865 731 954> 1397 41G<281 297 297 326 1133 1149 1149 1178>
VStem: 199 180<41 1393> 1051 180<399 420 420 1393>
AnchorPoint: "Anchor-1" 1133 1434 basechar 0
AnchorPoint: "Anchor-0" 287 0 basechar 0
LayerCount: 2
Fore
SplineSet
281 1438 m 2,0,-1
 297 1438 l 2,1,2
 379 1438 379 1438 379 1393 c 2,3,-1
 379 41 l 2,4,5
 379 -4 379 -4 297 -4 c 2,6,-1
 281 -4 l 2,7,8
 199 -4 199 -4 199 41 c 2,9,-1
 199 1393 l 2,10,11
 199 1438 199 1438 281 1438 c 2,0,-1
1133 1438 m 2,12,-1
 1149 1438 l 2,13,14
 1231 1438 1231 1438 1231 1393 c 2,15,-1
 1231 420 l 2,16,17
 1231 -12 1231 -12 797 -12 c 0,18,19
 590 -12 590 -12 590 53 c 0,20,21
 590 73 590 73 602 119.5 c 128,-1,22
 614 166 614 166 635 166 c 0,23,24
 637 166 637 166 681 156.5 c 128,-1,25
 725 147 725 147 764 147 c 0,26,27
 916 147 916 147 983.5 206.5 c 128,-1,28
 1051 266 1051 266 1051 399 c 2,29,-1
 1051 1393 l 2,30,31
 1051 1438 1051 1438 1133 1438 c 2,12,-1
EndSplineSet
Position2: "'cpsp' Capital Spacing lookup 0 subtable" dx=10 dy=0 dh=20 dv=0
EndChar

StartChar: Iacute
Encoding: 205 205 72
Width: 577
GlyphClass: 2
Flags: MW
HStem: 1397 41G<281 297 297 326>
VStem: 199 180<41 1393>
AnchorPoint: "Anchor-1" 301 1796 basechar 0
AnchorPoint: "Anchor-0" 287 0 basechar 0
LayerCount: 2
Fore
SplineSet
326 1808 m 0,0,1
 357 1861 357 1861 454 1861.5 c 128,-1,2
 551 1862 551 1862 551 1835 c 0,3,4
 551 1821 551 1821 531.5 1796.5 c 128,-1,5
 512 1772 512 1772 451 1702 c 2,6,-1
 358 1597 l 2,7,8
 323 1560 323 1560 265 1560.5 c 128,-1,9
 207 1561 207 1561 207 1581 c 128,-1,10
 207 1601 207 1601 326 1808 c 0,0,1
281 1438 m 2,11,-1
 297 1438 l 2,12,13
 379 1438 379 1438 379 1393 c 2,14,-1
 379 41 l 2,15,16
 379 -4 379 -4 297 -4 c 2,17,-1
 281 -4 l 2,18,19
 199 -4 199 -4 199 41 c 2,20,-1
 199 1393 l 2,21,22
 199 1438 199 1438 281 1438 c 2,11,-1
EndSplineSet
Position2: "'cpsp' Capital Spacing lookup 0 subtable" dx=10 dy=0 dh=20 dv=0
EndChar

StartChar: Ibreve
Encoding: 300 300 73
Width: 577
GlyphClass: 2
Flags: MW
HStem: 1397 41G<281 297 297 326> 1561 135<239 339 239 361>
VStem: 199 180<41 1393>
AnchorPoint: "Anchor-1" 289 1737 basechar 0
AnchorPoint: "Anchor-0" 287 0 basechar 0
LayerCount: 2
Fore
SplineSet
553 1827 m 0,0,1
 584 1827 584 1827 584 1796 c 0,2,3
 584 1685 584 1685 496 1623 c 128,-1,4
 408 1561 408 1561 288 1561 c 128,-1,5
 168 1561 168 1561 80 1623.5 c 128,-1,6
 -8 1686 -8 1686 -8 1796 c 0,7,8
 -8 1827 -8 1827 23 1827 c 0,9,10
 46 1827 46 1827 50 1818 c 0,11,12
 62 1788 62 1788 68 1776 c 0,13,14
 111 1696 111 1696 288 1696 c 0,15,16
 483 1696 483 1696 515 1793 c 0,17,18
 524 1821 524 1821 533.5 1824 c 128,-1,19
 543 1827 543 1827 553 1827 c 0,0,1
281 1438 m 2,20,-1
 297 1438 l 2,21,22
 379 1438 379 1438 379 1393 c 2,23,-1
 379 41 l 2,24,25
 379 -4 379 -4 297 -4 c 2,26,-1
 281 -4 l 2,27,28
 199 -4 199 -4 199 41 c 2,29,-1
 199 1393 l 2,30,31
 199 1438 199 1438 281 1438 c 2,20,-1
EndSplineSet
Position2: "'cpsp' Capital Spacing lookup 0 subtable" dx=10 dy=0 dh=20 dv=0
EndChar

StartChar: Icircumflex
Encoding: 206 206 74
Width: 577
GlyphClass: 2
Flags: MW
HStem: 1397 41G<281 297 297 326> 1542 291<73 313 88 313 262 483 262 487>
VStem: 199 180<41 1393>
AnchorPoint: "Anchor-1" 614 1624 basechar 0
AnchorPoint: "Anchor-0" 287 0 basechar 0
LayerCount: 2
Fore
SplineSet
262 1833 m 2,0,-1
 313 1833 l 2,1,2
 376 1833 376 1833 408 1788 c 2,3,-1
 524 1608 l 2,4,5
 536 1590 536 1590 537 1573 c 0,6,7
 537 1542 537 1542 487 1542 c 2,8,-1
 483 1542 l 2,9,10
 444 1542 444 1542 416 1569 c 1,11,-1
 287 1720 l 1,12,-1
 162 1569 l 1,13,14
 133 1542 133 1542 92 1542 c 2,15,-1
 88 1542 l 2,16,17
 41 1542 41 1542 41 1571 c 0,18,19
 41 1586 41 1586 53 1608 c 2,20,-1
 168 1788 l 2,21,22
 199 1833 199 1833 262 1833 c 2,0,-1
281 1438 m 2,23,-1
 297 1438 l 2,24,25
 379 1438 379 1438 379 1393 c 2,26,-1
 379 41 l 2,27,28
 379 -4 379 -4 297 -4 c 2,29,-1
 281 -4 l 2,30,31
 199 -4 199 -4 199 41 c 2,32,-1
 199 1393 l 2,33,34
 199 1438 199 1438 281 1438 c 2,23,-1
EndSplineSet
Position2: "'cpsp' Capital Spacing lookup 0 subtable" dx=10 dy=0 dh=20 dv=0
EndChar

StartChar: Idieresis
Encoding: 207 207 75
Width: 577
GlyphClass: 2
Flags: MW
HStem: 1397 41G<281 297 297 326> 1606 195<113 170 408 465>
VStem: 55 172<1651 1755 1637 1768> 199 180<41 1393> 350 172<1651 1755 1637 1768>
AnchorPoint: "Anchor-1" 283 1796 basechar 0
AnchorPoint: "Anchor-0" 287 0 basechar 0
LayerCount: 2
Fore
SplineSet
55 1755 m 2,0,1
 55 1800 55 1800 141 1800 c 128,-1,2
 227 1800 227 1800 227 1755 c 2,3,-1
 227 1651 l 2,4,5
 227 1606 227 1606 141 1606 c 128,-1,6
 55 1606 55 1606 55 1651 c 2,7,-1
 55 1755 l 2,0,1
350 1755 m 2,8,9
 350 1800 350 1800 436 1800 c 128,-1,10
 522 1800 522 1800 522 1755 c 2,11,-1
 522 1651 l 2,12,13
 522 1606 522 1606 436 1606 c 128,-1,14
 350 1606 350 1606 350 1651 c 2,15,-1
 350 1755 l 2,8,9
281 1438 m 2,16,-1
 297 1438 l 2,17,18
 379 1438 379 1438 379 1393 c 2,19,-1
 379 41 l 2,20,21
 379 -4 379 -4 297 -4 c 2,22,-1
 281 -4 l 2,23,24
 199 -4 199 -4 199 41 c 2,25,-1
 199 1393 l 2,26,27
 199 1438 199 1438 281 1438 c 2,16,-1
EndSplineSet
Position2: "'cpsp' Capital Spacing lookup 0 subtable" dx=10 dy=0 dh=20 dv=0
EndChar

StartChar: Idotaccent
Encoding: 304 304 76
Width: 577
GlyphClass: 2
Flags: MW
HStem: 1397 41G<281 297 297 326> 1606 195<260 317>
VStem: 199 180<41 1393>
AnchorPoint: "Anchor-1" 295 1796 basechar 0
AnchorPoint: "Anchor-0" 287 0 basechar 0
LayerCount: 2
Fore
SplineSet
203 1755 m 2,0,1
 203 1800 203 1800 289 1800 c 128,-1,2
 375 1800 375 1800 375 1755 c 2,3,-1
 375 1651 l 2,4,5
 375 1606 375 1606 289 1606 c 128,-1,6
 203 1606 203 1606 203 1651 c 2,7,-1
 203 1755 l 2,0,1
281 1438 m 2,8,-1
 297 1438 l 2,9,10
 379 1438 379 1438 379 1393 c 2,11,-1
 379 41 l 2,12,13
 379 -4 379 -4 297 -4 c 2,14,-1
 281 -4 l 2,15,16
 199 -4 199 -4 199 41 c 2,17,-1
 199 1393 l 2,18,19
 199 1438 199 1438 281 1438 c 2,8,-1
EndSplineSet
Position2: "'cpsp' Capital Spacing lookup 0 subtable" dx=10 dy=0 dh=20 dv=0
EndChar

StartChar: Idotbelow
Encoding: 7882 7882 77
Width: 577
GlyphClass: 2
Flags: MW
HStem: -358 195<262 319> 1397 41G<281 297 297 326>
VStem: 199 180<41 1393> 205 172<-313 -209 -327 -196>
AnchorPoint: "Anchor-1" 297 -168 basechar 0
AnchorPoint: "Anchor-0" 287 -416 basechar 0
LayerCount: 2
Fore
SplineSet
281 1438 m 2,0,-1
 297 1438 l 2,1,2
 379 1438 379 1438 379 1393 c 2,3,-1
 379 41 l 2,4,5
 379 -4 379 -4 297 -4 c 2,6,-1
 281 -4 l 2,7,8
 199 -4 199 -4 199 41 c 2,9,-1
 199 1393 l 2,10,11
 199 1438 199 1438 281 1438 c 2,0,-1
205 -209 m 2,12,13
 205 -164 205 -164 291 -164 c 128,-1,14
 377 -164 377 -164 377 -209 c 2,15,-1
 377 -313 l 2,16,17
 377 -358 377 -358 291 -358 c 128,-1,18
 205 -358 205 -358 205 -313 c 2,19,-1
 205 -209 l 2,12,13
EndSplineSet
Position2: "'cpsp' Capital Spacing lookup 0 subtable" dx=10 dy=0 dh=20 dv=0
EndChar

StartChar: Igrave
Encoding: 204 204 78
Width: 577
GlyphClass: 2
Flags: MW
HStem: 1397 41G<281 297 297 326>
VStem: 199 180<41 1393>
AnchorPoint: "Anchor-1" 279 1796 basechar 0
AnchorPoint: "Anchor-0" 287 0 basechar 0
LayerCount: 2
Fore
SplineSet
47 1835 m 0,0,1
 47 1862 47 1862 144.5 1862 c 128,-1,2
 242 1862 242 1862 272 1808 c 0,3,4
 391 1601 391 1601 391 1581 c 128,-1,5
 391 1561 391 1561 332.5 1561 c 128,-1,6
 274 1561 274 1561 240 1597 c 0,7,8
 60 1803 60 1803 53.5 1815 c 128,-1,9
 47 1827 47 1827 47 1835 c 0,0,1
281 1438 m 2,10,-1
 297 1438 l 2,11,12
 379 1438 379 1438 379 1393 c 2,13,-1
 379 41 l 2,14,15
 379 -4 379 -4 297 -4 c 2,16,-1
 281 -4 l 2,17,18
 199 -4 199 -4 199 41 c 2,19,-1
 199 1393 l 2,20,21
 199 1438 199 1438 281 1438 c 2,10,-1
EndSplineSet
Position2: "'cpsp' Capital Spacing lookup 0 subtable" dx=10 dy=0 dh=20 dv=0
EndChar

StartChar: Ihookabove
Encoding: 7880 7880 79
Width: 577
GlyphClass: 2
Flags: MW
HStem: 1397 41G<281 297 297 326> 1794 104<267 307>
VStem: 199 180<41 1393> 362 127<1688 1757>
AnchorPoint: "Anchor-1" 291 1796 basechar 0
AnchorPoint: "Anchor-0" 287 0 basechar 0
LayerCount: 2
Fore
SplineSet
362 1739 m 0,0,1
 362 1794 362 1794 287 1794 c 0,2,3
 237 1794 237 1794 216 1780.5 c 128,-1,4
 195 1767 195 1767 193 1767 c 0,5,6
 181 1767 181 1767 162 1793 c 128,-1,7
 143 1819 143 1819 143 1837 c 128,-1,8
 143 1855 143 1855 196.5 1876.5 c 128,-1,9
 250 1898 250 1898 310.5 1898 c 128,-1,10
 371 1898 371 1898 430 1863.5 c 128,-1,11
 489 1829 489 1829 489 1747 c 128,-1,12
 489 1665 489 1665 412.5 1590.5 c 128,-1,13
 336 1516 336 1516 303 1516 c 0,14,15
 287 1516 287 1516 261.5 1527 c 128,-1,16
 236 1538 236 1538 236 1555.5 c 128,-1,17
 236 1573 236 1573 267.5 1599.5 c 128,-1,18
 299 1626 299 1626 330.5 1661 c 128,-1,19
 362 1696 362 1696 362 1739 c 0,0,1
281 1438 m 2,20,-1
 297 1438 l 2,21,22
 379 1438 379 1438 379 1393 c 2,23,-1
 379 41 l 2,24,25
 379 -4 379 -4 297 -4 c 2,26,-1
 281 -4 l 2,27,28
 199 -4 199 -4 199 41 c 2,29,-1
 199 1393 l 2,30,31
 199 1438 199 1438 281 1438 c 2,20,-1
EndSplineSet
Position2: "'cpsp' Capital Spacing lookup 0 subtable" dx=10 dy=0 dh=20 dv=0
EndChar

StartChar: Imacron
Encoding: 298 298 80
Width: 577
GlyphClass: 2
Flags: MW
HStem: 1397 41G<281 297 297 326> 1616 143<45 516 59 516>
VStem: 199 180<41 1393>
AnchorPoint: "Anchor-1" 285 1796 basechar 0
AnchorPoint: "Anchor-0" 287 0 basechar 0
LayerCount: 2
Fore
SplineSet
59 1759 m 2,0,-1
 516 1759 l 2,1,2
 557 1759 557 1759 557 1698 c 2,3,-1
 557 1677 l 2,4,5
 557 1616 557 1616 516 1616 c 2,6,-1
 59 1616 l 2,7,8
 18 1616 18 1616 18 1677 c 2,9,-1
 18 1698 l 2,10,11
 18 1759 18 1759 59 1759 c 2,0,-1
281 1438 m 2,12,-1
 297 1438 l 2,13,14
 379 1438 379 1438 379 1393 c 2,15,-1
 379 41 l 2,16,17
 379 -4 379 -4 297 -4 c 2,18,-1
 281 -4 l 2,19,20
 199 -4 199 -4 199 41 c 2,21,-1
 199 1393 l 2,22,23
 199 1438 199 1438 281 1438 c 2,12,-1
EndSplineSet
Position2: "'cpsp' Capital Spacing lookup 0 subtable" dx=10 dy=0 dh=20 dv=0
EndChar

StartChar: Iogonek
Encoding: 302 302 81
Width: 577
GlyphClass: 2
Flags: MW
HStem: -375 143<419 458 419 471> 1397 41G<281 297 297 326>
VStem: 199 180<41 1393>
AnchorPoint: "Anchor-1" 289 1434 basechar 0
AnchorPoint: "Anchor-0" 162 -416 basechar 0
LayerCount: 2
Fore
SplineSet
442 -231 m 1,0,-1
 549 -211 l 1,1,2
 588 -211 588 -211 588 -269.5 c 128,-1,3
 588 -328 588 -328 546 -351.5 c 128,-1,4
 504 -375 504 -375 424 -375 c 128,-1,5
 344 -375 344 -375 291 -351.5 c 128,-1,6
 238 -328 238 -328 216 -291 c 0,7,8
 178 -226 178 -226 178 -166 c 0,9,10
 178 -47 178 -47 231 2 c 1,11,12
 198 14 198 14 199 41 c 2,13,-1
 199 1393 l 2,14,15
 199 1438 199 1438 281 1438 c 2,16,-1
 297 1438 l 2,17,18
 379 1438 379 1438 379 1393 c 2,19,-1
 379 41 l 2,20,21
 379 8 379 8 340 0 c 1,22,-1
 340 -2 l 2,23,24
 340 -14 340 -14 327.5 -57 c 128,-1,25
 315 -100 315 -100 315 -127 c 0,26,27
 315 -231 315 -231 442 -231 c 1,0,-1
EndSplineSet
Position2: "'cpsp' Capital Spacing lookup 0 subtable" dx=10 dy=0 dh=20 dv=0
EndChar

StartChar: Itilde
Encoding: 296 296 82
Width: 577
GlyphClass: 2
Flags: MW
HStem: 1397 41G<281 297 297 326> 1561 131<393 426> 1622 131<153 186>
VStem: 199 180<41 1393>
AnchorPoint: "Anchor-1" 307 1796 basechar 0
AnchorPoint: "Anchor-0" 287 0 basechar 0
LayerCount: 2
Fore
SplineSet
518 1739 m 0,0,1
 555 1766 555 1766 587 1724 c 0,2,3
 619 1683 619 1683 578 1645 c 0,4,5
 476 1561 476 1561 396 1561 c 0,6,7
 317 1561 317 1561 258 1591 c 0,8,9
 199 1622 199 1622 159 1622 c 0,10,11
 119 1622 119 1622 71 1587 c 0,12,13
 23 1552 23 1552 -7 1596 c 0,14,15
 -37 1640 -37 1640 0 1671 c 0,16,17
 102 1753 102 1753 190 1753 c 0,18,19
 245 1753 245 1753 303 1722 c 0,20,21
 360 1691 360 1691 408 1692 c 0,22,23
 455 1692 455 1692 518 1739 c 0,0,1
281 1438 m 2,24,-1
 297 1438 l 2,25,26
 379 1438 379 1438 379 1393 c 2,27,-1
 379 41 l 2,28,29
 379 -4 379 -4 297 -4 c 2,30,-1
 281 -4 l 2,31,32
 199 -4 199 -4 199 41 c 2,33,-1
 199 1393 l 2,34,35
 199 1438 199 1438 281 1438 c 2,24,-1
EndSplineSet
Position2: "'cpsp' Capital Spacing lookup 0 subtable" dx=10 dy=0 dh=20 dv=0
EndChar

StartChar: J
Encoding: 74 74 83
Width: 823
GlyphClass: 2
Flags: MW
HStem: -12 160<180 288 154 377> 1397 41G<555 571 571 600>
VStem: 473 180<399 420 420 1393>
AnchorPoint: "Anchor-1" 555 1434 basechar 0
AnchorPoint: "Anchor-0" 0 0 basechar 0
LayerCount: 2
Fore
SplineSet
555 1438 m 2,0,-1
 571 1438 l 2,1,2
 653 1438 653 1438 653 1393 c 2,3,-1
 653 420 l 2,4,5
 653 -12 653 -12 219 -12 c 0,6,7
 12 -12 12 -12 12 53 c 0,8,9
 12 73 12 73 24.5 119.5 c 128,-1,10
 37 166 37 166 57 166 c 0,11,12
 59 166 59 166 103 156.5 c 128,-1,13
 147 147 147 147 186 147 c 0,14,15
 338 147 338 147 405.5 206.5 c 128,-1,16
 473 266 473 266 473 399 c 2,17,-1
 473 1393 l 2,18,19
 473 1438 473 1438 555 1438 c 2,0,-1
EndSplineSet
Position2: "'cpsp' Capital Spacing lookup 0 subtable" dx=10 dy=0 dh=20 dv=0
EndChar

StartChar: Jcircumflex
Encoding: 308 308 84
Width: 823
GlyphClass: 2
Flags: MW
HStem: -12 160<180 288 154 377> 1397 41G<555 571 571 600> 1542 291<339 580 354 580 528 750 528 754>
VStem: 473 180<399 420 420 1393>
AnchorPoint: "Anchor-1" 881 1624 basechar 0
AnchorPoint: "Anchor-0" 0 0 basechar 0
LayerCount: 2
Fore
SplineSet
528 1833 m 2,0,-1
 580 1833 l 2,1,2
 643 1833 643 1833 674 1788 c 2,3,-1
 791 1608 l 2,4,5
 803 1590 803 1590 803 1573 c 0,6,7
 803 1542 803 1542 754 1542 c 2,8,-1
 750 1542 l 2,9,10
 711 1542 711 1542 682 1569 c 1,11,-1
 553 1720 l 1,12,-1
 428 1569 l 1,13,14
 399 1542 399 1542 358 1542 c 2,15,-1
 354 1542 l 2,16,17
 307 1542 307 1542 307 1571 c 0,18,19
 307 1586 307 1586 319 1608 c 2,20,-1
 434 1788 l 2,21,22
 465 1833 465 1833 528 1833 c 2,0,-1
555 1438 m 2,23,-1
 571 1438 l 2,24,25
 653 1438 653 1438 653 1393 c 2,26,-1
 653 420 l 2,27,28
 653 -12 653 -12 219 -12 c 0,29,30
 12 -12 12 -12 12 53 c 0,31,32
 12 73 12 73 24.5 119.5 c 128,-1,33
 37 166 37 166 57 166 c 0,34,35
 59 166 59 166 103 156.5 c 128,-1,36
 147 147 147 147 186 147 c 0,37,38
 338 147 338 147 405.5 206.5 c 128,-1,39
 473 266 473 266 473 399 c 2,40,-1
 473 1393 l 2,41,42
 473 1438 473 1438 555 1438 c 2,23,-1
EndSplineSet
Position2: "'cpsp' Capital Spacing lookup 0 subtable" dx=10 dy=0 dh=20 dv=0
EndChar

StartChar: K
Encoding: 75 75 85
Width: 1179
GlyphClass: 2
Flags: MW
HStem: 682 84<379 387 379 387> 1397 41G<281 297 297 326 1001 1022 1022 1047>
VStem: 199 180<41 682 766 1393>
AnchorPoint: "Anchor-1" 590 1434 basechar 0
AnchorPoint: "Anchor-0" 590 0 basechar 0
LayerCount: 2
Fore
SplineSet
1001 1438 m 2,0,-1
 1022 1438 l 2,1,2
 1094 1438 1094 1438 1094 1411 c 0,3,4
 1094 1393 1094 1393 1073 1370 c 2,5,-1
 561 731 l 1,6,-1
 1182 57 l 2,7,8
 1200 37 1200 37 1200 25 c 0,9,10
 1200 -4 1200 -4 1110 -4 c 2,11,-1
 1085 -4 l 2,12,13
 997 -4 997 -4 973 23 c 2,14,-1
 387 682 l 1,15,-1
 379 682 l 1,16,-1
 379 41 l 2,17,18
 379 -4 379 -4 297 -4 c 2,19,-1
 281 -4 l 2,20,21
 199 -4 199 -4 199 41 c 2,22,-1
 199 1393 l 2,23,24
 199 1438 199 1438 281 1438 c 2,25,-1
 297 1438 l 2,26,27
 379 1438 379 1438 379 1393 c 2,28,-1
 379 766 l 1,29,-1
 387 766 l 1,30,-1
 891 1409 l 2,31,32
 913 1438 913 1438 1001 1438 c 2,0,-1
EndSplineSet
Position2: "'cpsp' Capital Spacing lookup 0 subtable" dx=10 dy=0 dh=20 dv=0
EndChar

StartChar: Kcommaaccent
Encoding: 310 310 86
Width: 1179
GlyphClass: 2
Flags: MW
HStem: 682 84<379 387 379 387> 1397 41G<281 297 297 326 1001 1022 1022 1047>
VStem: 199 180<41 682 766 1393> 498 182<-248 -151>
AnchorPoint: "Anchor-1" 590 1434 basechar 0
AnchorPoint: "Anchor-0" 582 -416 basechar 0
LayerCount: 2
Fore
SplineSet
1001 1438 m 2,0,-1
 1022 1438 l 2,1,2
 1094 1438 1094 1438 1094 1411 c 0,3,4
 1094 1393 1094 1393 1073 1370 c 2,5,-1
 561 731 l 1,6,-1
 1182 57 l 2,7,8
 1200 37 1200 37 1200 25 c 0,9,10
 1200 -4 1200 -4 1110 -4 c 2,11,-1
 1085 -4 l 2,12,13
 997 -4 997 -4 973 23 c 2,14,-1
 387 682 l 1,15,-1
 379 682 l 1,16,-1
 379 41 l 2,17,18
 379 -4 379 -4 297 -4 c 2,19,-1
 281 -4 l 2,20,21
 199 -4 199 -4 199 41 c 2,22,-1
 199 1393 l 2,23,24
 199 1438 199 1438 281 1438 c 2,25,-1
 297 1438 l 2,26,27
 379 1438 379 1438 379 1393 c 2,28,-1
 379 766 l 1,29,-1
 387 766 l 1,30,-1
 891 1409 l 2,31,32
 913 1438 913 1438 1001 1438 c 2,0,-1
580 -104 m 2,33,-1
 598 -104 l 2,34,35
 680 -104 680 -104 680 -162 c 0,36,37
 680 -295 680 -295 605 -388 c 128,-1,38
 530 -481 530 -481 470 -481 c 0,39,40
 410 -481 410 -481 410 -451 c 0,41,42
 410 -441 410 -441 454 -351.5 c 128,-1,43
 498 -262 498 -262 498 -170 c 0,44,45
 498 -104 498 -104 580 -104 c 2,33,-1
EndSplineSet
Position2: "'cpsp' Capital Spacing lookup 0 subtable" dx=10 dy=0 dh=20 dv=0
EndChar

StartChar: L
Encoding: 76 76 87
Width: 991
GlyphClass: 2
Flags: MW
HStem: 0 156<239 942 379 942 379 942> 1397 41G<281 297 297 326>
VStem: 199 180<156 1393 156 1393 156 1407>
AnchorPoint: "Anchor-1" 297 1438 basechar 0
AnchorPoint: "Anchor-0" 578 0 basechar 0
LayerCount: 2
Fore
SplineSet
281 1438 m 2,0,-1
 297 1438 l 2,1,2
 379 1438 379 1438 379 1393 c 2,3,-1
 379 156 l 1,4,-1
 942 156 l 2,5,6
 983 156 983 156 983 94 c 2,7,-1
 983 61 l 2,8,9
 983 0 983 0 942 0 c 2,10,-1
 260 0 l 2,11,12
 199 0 199 0 199 61 c 2,13,-1
 199 1393 l 2,14,15
 199 1438 199 1438 281 1438 c 2,0,-1
EndSplineSet
Position2: "'cpsp' Capital Spacing lookup 0 subtable" dx=10 dy=0 dh=20 dv=0
EndChar

StartChar: LJ
Encoding: 455 455 88
Width: 1470
GlyphClass: 2
Flags: MW
HStem: -319 160<823 931 797 1020> 0 156<239 799 379 799 379 799> 1397 41G<281 297 297 326 1198 1214 1214 1243>
VStem: 199 180<156 1393 156 1393 156 1407> 1116 180<92 113 113 1393>
LayerCount: 2
Fore
SplineSet
281 1438 m 2,0,-1
 297 1438 l 2,1,2
 379 1438 379 1438 379 1393 c 2,3,-1
 379 156 l 1,4,-1
 799 156 l 2,5,6
 840 156 840 156 840 94 c 2,7,-1
 840 61 l 2,8,9
 840 0 840 0 799 0 c 2,10,-1
 260 0 l 2,11,12
 199 0 199 0 199 61 c 2,13,-1
 199 1393 l 2,14,15
 199 1438 199 1438 281 1438 c 2,0,-1
1198 1438 m 2,16,-1
 1214 1438 l 2,17,18
 1296 1438 1296 1438 1296 1393 c 2,19,-1
 1296 113 l 2,20,21
 1296 -319 1296 -319 862 -319 c 0,22,23
 655 -319 655 -319 655 -254 c 0,24,25
 655 -234 655 -234 667.5 -187.5 c 128,-1,26
 680 -141 680 -141 700 -141 c 0,27,28
 702 -141 702 -141 746.5 -150.5 c 128,-1,29
 791 -160 791 -160 829 -160 c 0,30,31
 981 -160 981 -160 1048.5 -100.5 c 128,-1,32
 1116 -41 1116 -41 1116 92 c 2,33,-1
 1116 1393 l 2,34,35
 1116 1438 1116 1438 1198 1438 c 2,16,-1
EndSplineSet
Position2: "'cpsp' Capital Spacing lookup 0 subtable" dx=10 dy=0 dh=20 dv=0
EndChar

StartChar: Lacute
Encoding: 313 313 89
Width: 991
GlyphClass: 2
Flags: MW
HStem: 0 156<239 942 379 942 379 942> 1397 41G<281 297 297 326>
VStem: 199 180<156 1393 156 1393 156 1407>
AnchorPoint: "Anchor-1" 309 1800 basechar 0
AnchorPoint: "Anchor-0" 578 0 basechar 0
LayerCount: 2
Fore
SplineSet
334 1812 m 0,0,1
 365 1865 365 1865 462 1865.5 c 128,-1,2
 559 1866 559 1866 559 1839 c 0,3,4
 559 1825 559 1825 539.5 1800.5 c 128,-1,5
 520 1776 520 1776 459 1706 c 2,6,-1
 367 1602 l 2,7,8
 332 1565 332 1565 273.5 1565 c 128,-1,9
 215 1565 215 1565 215 1585 c 128,-1,10
 215 1605 215 1605 334 1812 c 0,0,1
281 1438 m 2,11,-1
 297 1438 l 2,12,13
 379 1438 379 1438 379 1393 c 2,14,-1
 379 156 l 1,15,-1
 942 156 l 2,16,17
 983 156 983 156 983 94 c 2,18,-1
 983 61 l 2,19,20
 983 0 983 0 942 0 c 2,21,-1
 260 0 l 2,22,23
 199 0 199 0 199 61 c 2,24,-1
 199 1393 l 2,25,26
 199 1438 199 1438 281 1438 c 2,11,-1
EndSplineSet
Position2: "'cpsp' Capital Spacing lookup 0 subtable" dx=10 dy=0 dh=20 dv=0
EndChar

StartChar: Lcaron
Encoding: 317 317 90
Width: 991
GlyphClass: 2
Flags: MW
HStem: 0 156<239 942 379 942 379 942> 1393 41G 1397 41G<281 297 297 326>
VStem: 199 180<156 1393 156 1393 156 1407> 629 182<1295 1388>
AnchorPoint: "Anchor-1" 297 1438 basechar 0
AnchorPoint: "Anchor-0" 578 0 basechar 0
LayerCount: 2
Fore
SplineSet
281 1438 m 2,0,-1
 297 1438 l 2,1,2
 379 1438 379 1438 379 1393 c 2,3,-1
 379 156 l 1,4,-1
 942 156 l 2,5,6
 983 156 983 156 983 94 c 2,7,-1
 983 61 l 2,8,9
 983 0 983 0 942 0 c 2,10,-1
 260 0 l 2,11,12
 199 0 199 0 199 61 c 2,13,-1
 199 1393 l 2,14,15
 199 1438 199 1438 281 1438 c 2,0,-1
711 1434 m 2,16,-1
 729 1434 l 2,17,18
 811 1434 811 1434 811 1376 c 0,19,20
 811 1251 811 1251 759 1164 c 128,-1,21
 707 1077 707 1077 654 1077 c 0,22,23
 602 1077 602 1077 602 1108 c 0,24,25
 602 1116 602 1116 615.5 1199 c 128,-1,26
 629 1282 629 1282 629 1368 c 0,27,28
 629 1434 629 1434 711 1434 c 2,16,-1
EndSplineSet
Position2: "'cpsp' Capital Spacing lookup 0 subtable" dx=10 dy=0 dh=20 dv=0
EndChar

StartChar: Lcommaaccent
Encoding: 315 315 91
Width: 991
GlyphClass: 2
Flags: MW
HStem: 0 156<239 942 379 942 379 942> 1397 41G<281 297 297 326>
VStem: 199 180<156 1393 156 1393 156 1407> 485 182<-248 -151>
AnchorPoint: "Anchor-1" 297 1438 basechar 0
AnchorPoint: "Anchor-0" 569 -416 basechar 0
LayerCount: 2
Fore
SplineSet
281 1438 m 2,0,-1
 297 1438 l 2,1,2
 379 1438 379 1438 379 1393 c 2,3,-1
 379 156 l 1,4,-1
 942 156 l 2,5,6
 983 156 983 156 983 94 c 2,7,-1
 983 61 l 2,8,9
 983 0 983 0 942 0 c 2,10,-1
 260 0 l 2,11,12
 199 0 199 0 199 61 c 2,13,-1
 199 1393 l 2,14,15
 199 1438 199 1438 281 1438 c 2,0,-1
567 -104 m 2,16,-1
 586 -104 l 2,17,18
 668 -104 668 -104 668 -162 c 0,19,20
 668 -295 668 -295 593 -388 c 128,-1,21
 518 -481 518 -481 458 -481 c 0,22,23
 398 -481 398 -481 397 -451 c 0,24,25
 397 -441 397 -441 441 -351.5 c 128,-1,26
 485 -262 485 -262 485 -170 c 0,27,28
 485 -104 485 -104 567 -104 c 2,16,-1
EndSplineSet
Position2: "'cpsp' Capital Spacing lookup 0 subtable" dx=10 dy=0 dh=20 dv=0
EndChar

StartChar: Ldot
Encoding: 319 319 92
Width: 991
GlyphClass: 2
Flags: MW
HStem: 0 156<239 942 379 942 379 942> 633 211<587 646> 1397 41G<281 297 297 326>
VStem: 199 180<156 1393 156 1393 156 1407> 512 211<708 767>
AnchorPoint: "Anchor-1" 297 1438 basechar 0
AnchorPoint: "Anchor-0" 578 0 basechar 0
LayerCount: 2
Fore
SplineSet
281 1438 m 2,0,-1
 297 1438 l 2,1,2
 379 1438 379 1438 379 1393 c 2,3,-1
 379 156 l 1,4,-1
 942 156 l 2,5,6
 983 156 983 156 983 94 c 2,7,-1
 983 61 l 2,8,9
 983 0 983 0 942 0 c 2,10,-1
 260 0 l 2,11,12
 199 0 199 0 199 61 c 2,13,-1
 199 1393 l 2,14,15
 199 1438 199 1438 281 1438 c 2,0,-1
616.5 844 m 128,-1,17
 662 844 662 844 692.5 813 c 128,-1,18
 723 782 723 782 723 737 c 128,-1,19
 723 692 723 692 692.5 662.5 c 128,-1,20
 662 633 662 633 616.5 633 c 128,-1,21
 571 633 571 633 541.5 662.5 c 128,-1,22
 512 692 512 692 512 737 c 128,-1,23
 512 782 512 782 541.5 813 c 128,-1,16
 571 844 571 844 616.5 844 c 128,-1,17
EndSplineSet
Ligature2: "Ligature Substitution lookup 19 subtable" L periodcentered
Position2: "'cpsp' Capital Spacing lookup 0 subtable" dx=10 dy=0 dh=20 dv=0
EndChar

StartChar: Lj
Encoding: 456 456 93
Width: 1556
GlyphClass: 2
Flags: MW
HStem: -434 147<1078 1117 1058 1157> 0 156<239 942 379 942 379 942> 1034 41G<1280 1288 1288 1317> 1329 211<1243 1296 1272 1296> 1397 41G<281 297 297 326>
VStem: 199 180<156 1393 156 1393 156 1407> 1190 188<1374 1495 1360 1509> 1198 172<-135 1030>
AnchorPoint: "Anchor-1" 297 1438 basechar 0
AnchorPoint: "Anchor-0" 578 0 basechar 0
LayerCount: 2
Fore
SplineSet
1272 1540 m 2,0,-1
 1296 1540 l 2,1,2
 1378 1540 1378 1540 1378 1495 c 2,3,-1
 1378 1374 l 2,4,5
 1378 1329 1378 1329 1296 1329 c 2,6,-1
 1272 1329 l 2,7,8
 1190 1329 1190 1329 1190 1374 c 2,9,-1
 1190 1495 l 2,10,11
 1190 1540 1190 1540 1272 1540 c 2,0,-1
281 1438 m 2,12,-1
 297 1438 l 2,13,14
 379 1438 379 1438 379 1393 c 2,15,-1
 379 156 l 1,16,-1
 942 156 l 2,17,18
 983 156 983 156 983 94 c 2,19,-1
 983 61 l 2,20,21
 983 0 983 0 942 0 c 2,22,-1
 260 0 l 2,23,24
 199 0 199 0 199 61 c 2,25,-1
 199 1393 l 2,26,27
 199 1438 199 1438 281 1438 c 2,12,-1
1280 1075 m 2,28,-1
 1288 1075 l 2,29,30
 1370 1075 1370 1075 1370 1030 c 2,31,-1
 1370 -152 l 2,32,33
 1370 -310 1370 -310 1289 -372 c 128,-1,34
 1208 -434 1208 -434 1106 -434 c 0,35,36
 956 -434 956 -434 956 -373 c 0,37,38
 956 -353 956 -353 968.5 -314.5 c 128,-1,39
 981 -276 981 -276 999 -276 c 0,40,41
 1003 -276 1003 -276 1028 -281.5 c 128,-1,42
 1053 -287 1053 -287 1087 -287 c 0,43,44
 1198 -287 1198 -287 1198 -135 c 2,45,-1
 1198 1030 l 2,46,47
 1198 1075 1198 1075 1280 1075 c 2,28,-1
EndSplineSet
Position2: "'cpsp' Capital Spacing lookup 0 subtable" dx=10 dy=0 dh=20 dv=0
EndChar

StartChar: Lslash
Encoding: 321 321 94
Width: 995
GlyphClass: 2
Flags: MW
HStem: 0 156<214 950 354 950 354 950> 1397 41G<256 272 272 301>
VStem: 174 180<156 713 713 713 807 821 915 1393>
LayerCount: 2
Fore
SplineSet
256 1438 m 2,0,-1
 272 1438 l 2,1,2
 354 1438 354 1438 354 1393 c 2,3,-1
 354 915 l 1,4,-1
 575 1047 l 2,5,6
 591 1055 591 1055 596 1055 c 0,7,8
 614 1055 614 1055 614 1026 c 2,9,-1
 614 1014 l 2,10,11
 614 975 614 975 575 952 c 2,12,-1
 354 821 l 1,13,-1
 354 156 l 1,14,-1
 950 156 l 2,15,16
 991 156 991 156 991 94 c 2,17,-1
 991 61 l 2,18,19
 991 0 991 0 950 0 c 2,20,-1
 236 0 l 2,21,22
 175 0 175 0 174 61 c 2,23,-1
 174 713 l 1,24,-1
 35 631 l 2,25,26
 25 623 25 623 14 623 c 0,27,28
 -4 623 -4 623 -4 651 c 2,29,-1
 -4 664 l 2,30,31
 -4 703 -4 703 35 725 c 2,32,-1
 174 807 l 1,33,-1
 174 1393 l 2,34,35
 174 1438 174 1438 256 1438 c 2,0,-1
EndSplineSet
Position2: "'cpsp' Capital Spacing lookup 0 subtable" dx=10 dy=0 dh=20 dv=0
EndChar

StartChar: M
Encoding: 77 77 95
Width: 1726
GlyphClass: 2
Flags: MW
HStem: 1397 41G<266 340 340 365 1393 1460 1460 1489>
VStem: 184 178<41 1155> 1364 178<41 1143 1143 1143>
LayerCount: 2
Fore
SplineSet
1393 1438 m 2,0,-1
 1460 1438 l 2,1,2
 1542 1438 1542 1438 1542 1393 c 2,3,-1
 1542 41 l 2,4,5
 1542 -4 1542 -4 1460 -4 c 2,6,-1
 1446 -4 l 2,7,8
 1364 -4 1364 -4 1364 41 c 2,9,-1
 1364 1143 l 1,10,-1
 952 426 l 2,11,12
 938 399 938 399 907 399 c 2,13,-1
 825 399 l 2,14,15
 794 399 794 399 780 426 c 2,16,-1
 367 1147 l 1,17,-1
 362 1155 l 1,18,-1
 362 41 l 2,19,20
 362 -4 362 -4 281 -4 c 2,21,-1
 266 -4 l 2,22,23
 184 -4 184 -4 184 41 c 2,24,-1
 184 1393 l 2,25,26
 184 1438 184 1438 266 1438 c 2,27,-1
 340 1438 l 2,28,29
 406 1438 406 1438 426 1401 c 2,30,-1
 813 729 l 1,31,-1
 866 600 l 1,32,-1
 920 717 l 1,33,-1
 1307 1401 l 2,34,35
 1327 1438 1327 1438 1393 1438 c 2,0,-1
EndSplineSet
Position2: "'cpsp' Capital Spacing lookup 0 subtable" dx=10 dy=0 dh=20 dv=0
EndChar

StartChar: N
Encoding: 78 78 96
Width: 1472
GlyphClass: 2
Flags: MW
HStem: 1397 41G<266 309 309 332 1192 1206 1206 1235>
VStem: 184 178<41 1149> 1110 178<297 1393>
AnchorPoint: "Anchor-1" 737 1434 basechar 0
AnchorPoint: "Anchor-0" 737 0 basechar 0
LayerCount: 2
Fore
SplineSet
1192 1438 m 2,0,-1
 1206 1438 l 2,1,2
 1288 1438 1288 1438 1288 1393 c 2,3,-1
 1288 41 l 2,4,5
 1288 -4 1288 -4 1206 -4 c 2,6,-1
 1165 -4 l 2,7,8
 1112 -4 1112 -4 1094 25 c 2,9,-1
 418 1044 l 1,10,-1
 362 1149 l 1,11,-1
 362 41 l 2,12,13
 362 -4 362 -4 281 -4 c 2,14,-1
 266 -4 l 2,15,16
 184 -4 184 -4 184 41 c 2,17,-1
 184 1393 l 2,18,19
 184 1438 184 1438 266 1438 c 2,20,-1
 309 1438 l 2,21,22
 366 1438 366 1438 395 1399 c 1,23,-1
 1049 412 l 1,24,-1
 1110 297 l 1,25,-1
 1110 1393 l 2,26,27
 1110 1438 1110 1438 1192 1438 c 2,0,-1
EndSplineSet
Position2: "'cpsp' Capital Spacing lookup 0 subtable" dx=10 dy=0 dh=20 dv=0
EndChar

StartChar: NJ
Encoding: 458 458 97
Width: 2295
GlyphClass: 2
Flags: MW
HStem: -12 160<1653 1760 1626 1849> 1397 41G<266 309 309 332 1192 1206 1206 1235 2028 2044 2044 2073>
VStem: 184 178<41 1149> 1110 178<297 1393> 1946 180<399 420 420 1393>
AnchorPoint: "Anchor-1" 2028 1434 basechar 0
AnchorPoint: "Anchor-0" 737 0 basechar 0
LayerCount: 2
Fore
SplineSet
1192 1438 m 2,0,-1
 1206 1438 l 2,1,2
 1288 1438 1288 1438 1288 1393 c 2,3,-1
 1288 41 l 2,4,5
 1288 -4 1288 -4 1206 -4 c 2,6,-1
 1165 -4 l 2,7,8
 1112 -4 1112 -4 1094 25 c 2,9,-1
 418 1044 l 1,10,-1
 362 1149 l 1,11,-1
 362 41 l 2,12,13
 362 -4 362 -4 281 -4 c 2,14,-1
 266 -4 l 2,15,16
 184 -4 184 -4 184 41 c 2,17,-1
 184 1393 l 2,18,19
 184 1438 184 1438 266 1438 c 2,20,-1
 309 1438 l 2,21,22
 366 1438 366 1438 395 1399 c 1,23,-1
 1049 412 l 1,24,-1
 1110 297 l 1,25,-1
 1110 1393 l 2,26,27
 1110 1438 1110 1438 1192 1438 c 2,0,-1
2028 1438 m 2,28,-1
 2044 1438 l 2,29,30
 2126 1438 2126 1438 2126 1393 c 2,31,-1
 2126 420 l 2,32,33
 2126 -12 2126 -12 1692 -12 c 0,34,35
 1485 -12 1485 -12 1485 53 c 0,36,37
 1485 73 1485 73 1497 119.5 c 128,-1,38
 1509 166 1509 166 1530 166 c 0,39,40
 1532 166 1532 166 1576 156.5 c 128,-1,41
 1620 147 1620 147 1659 147 c 0,42,43
 1811 147 1811 147 1878.5 206.5 c 128,-1,44
 1946 266 1946 266 1946 399 c 2,45,-1
 1946 1393 l 2,46,47
 1946 1438 1946 1438 2028 1438 c 2,28,-1
EndSplineSet
Position2: "'cpsp' Capital Spacing lookup 0 subtable" dx=10 dy=0 dh=20 dv=0
EndChar

StartChar: Nacute
Encoding: 323 323 98
Width: 1472
GlyphClass: 2
Flags: MW
HStem: 1397 41G<266 309 309 332 1192 1206 1206 1235>
VStem: 184 178<41 1149> 1110 178<297 1393>
AnchorPoint: "Anchor-1" 750 1796 basechar 0
AnchorPoint: "Anchor-0" 737 0 basechar 0
LayerCount: 2
Fore
SplineSet
774 1808 m 0,0,1
 805 1861 805 1861 902 1861.5 c 128,-1,2
 999 1862 999 1862 999 1835 c 0,3,4
 999 1821 999 1821 980 1796.5 c 128,-1,5
 961 1772 961 1772 899 1702 c 2,6,-1
 807 1597 l 2,7,8
 774 1560 774 1560 714.5 1560.5 c 128,-1,9
 655 1561 655 1561 655 1581 c 128,-1,10
 655 1601 655 1601 774 1808 c 0,0,1
1192 1438 m 2,11,-1
 1206 1438 l 2,12,13
 1288 1438 1288 1438 1288 1393 c 2,14,-1
 1288 41 l 2,15,16
 1288 -4 1288 -4 1206 -4 c 2,17,-1
 1165 -4 l 2,18,19
 1112 -4 1112 -4 1094 25 c 2,20,-1
 418 1044 l 1,21,-1
 362 1149 l 1,22,-1
 362 41 l 2,23,24
 362 -4 362 -4 281 -4 c 2,25,-1
 266 -4 l 2,26,27
 184 -4 184 -4 184 41 c 2,28,-1
 184 1393 l 2,29,30
 184 1438 184 1438 266 1438 c 2,31,-1
 309 1438 l 2,32,33
 366 1438 366 1438 395 1399 c 1,34,-1
 1049 412 l 1,35,-1
 1110 297 l 1,36,-1
 1110 1393 l 2,37,38
 1110 1438 1110 1438 1192 1438 c 2,11,-1
EndSplineSet
Substitution2: "'locl' Localized Forms in Latin lookup 11 subtable" Nacute.loclPLK
Substitution2: "'aalt' Access All Alternates lookup 0 subtable" Nacute.loclPLK
Position2: "'cpsp' Capital Spacing lookup 0 subtable" dx=10 dy=0 dh=20 dv=0
EndChar

StartChar: Ncaron
Encoding: 327 327 99
Width: 1472
GlyphClass: 2
Flags: MW
HStem: 1397 41G<266 309 309 332 1192 1206 1206 1235> 1554 291<537 711 537 762>
VStem: 184 178<41 1149> 1110 178<297 1393>
AnchorPoint: "Anchor-1" 739 1796 basechar 0
AnchorPoint: "Anchor-0" 737 0 basechar 0
LayerCount: 2
Fore
SplineSet
932 1845 m 2,0,-1
 936 1845 l 2,1,2
 985 1845 985 1845 985 1815 c 0,3,4
 985 1799 985 1799 973 1780 c 2,5,-1
 856 1599 l 2,6,7
 825 1554 825 1554 762 1554 c 2,8,-1
 711 1554 l 2,9,10
 648 1554 648 1554 616 1599 c 2,11,-1
 502 1780 l 2,12,13
 490 1802 490 1802 489 1817 c 0,14,15
 489 1846 489 1846 537 1845 c 2,16,-1
 541 1845 l 2,17,18
 582 1845 582 1845 610 1819 c 1,19,-1
 735 1667 l 1,20,-1
 864 1819 l 1,21,22
 893 1845 893 1845 932 1845 c 2,0,-1
1192 1438 m 2,23,-1
 1206 1438 l 2,24,25
 1288 1438 1288 1438 1288 1393 c 2,26,-1
 1288 41 l 2,27,28
 1288 -4 1288 -4 1206 -4 c 2,29,-1
 1165 -4 l 2,30,31
 1112 -4 1112 -4 1094 25 c 2,32,-1
 418 1044 l 1,33,-1
 362 1149 l 1,34,-1
 362 41 l 2,35,36
 362 -4 362 -4 281 -4 c 2,37,-1
 266 -4 l 2,38,39
 184 -4 184 -4 184 41 c 2,40,-1
 184 1393 l 2,41,42
 184 1438 184 1438 266 1438 c 2,43,-1
 309 1438 l 2,44,45
 366 1438 366 1438 395 1399 c 1,46,-1
 1049 412 l 1,47,-1
 1110 297 l 1,48,-1
 1110 1393 l 2,49,50
 1110 1438 1110 1438 1192 1438 c 2,23,-1
EndSplineSet
Position2: "'cpsp' Capital Spacing lookup 0 subtable" dx=10 dy=0 dh=20 dv=0
EndChar

StartChar: Ncommaaccent
Encoding: 325 325 100
Width: 1472
GlyphClass: 2
Flags: MW
HStem: 1397 41G<266 309 309 332 1192 1206 1206 1235>
VStem: 184 178<41 1149> 645 182<-248 -151> 1110 178<297 1393>
AnchorPoint: "Anchor-1" 737 1434 basechar 0
AnchorPoint: "Anchor-0" 729 -416 basechar 0
LayerCount: 2
Fore
SplineSet
1192 1438 m 2,0,-1
 1206 1438 l 2,1,2
 1288 1438 1288 1438 1288 1393 c 2,3,-1
 1288 41 l 2,4,5
 1288 -4 1288 -4 1206 -4 c 2,6,-1
 1165 -4 l 2,7,8
 1112 -4 1112 -4 1094 25 c 2,9,-1
 418 1044 l 1,10,-1
 362 1149 l 1,11,-1
 362 41 l 2,12,13
 362 -4 362 -4 281 -4 c 2,14,-1
 266 -4 l 2,15,16
 184 -4 184 -4 184 41 c 2,17,-1
 184 1393 l 2,18,19
 184 1438 184 1438 266 1438 c 2,20,-1
 309 1438 l 2,21,22
 366 1438 366 1438 395 1399 c 1,23,-1
 1049 412 l 1,24,-1
 1110 297 l 1,25,-1
 1110 1393 l 2,26,27
 1110 1438 1110 1438 1192 1438 c 2,0,-1
727 -104 m 2,28,-1
 745 -104 l 2,29,30
 827 -104 827 -104 827 -162 c 0,31,32
 827 -295 827 -295 752.5 -388 c 128,-1,33
 678 -481 678 -481 617 -481 c 0,34,35
 557 -481 557 -481 557 -451 c 0,36,37
 557 -441 557 -441 601 -351.5 c 128,-1,38
 645 -262 645 -262 645 -170 c 0,39,40
 645 -104 645 -104 727 -104 c 2,28,-1
EndSplineSet
Position2: "'cpsp' Capital Spacing lookup 0 subtable" dx=10 dy=0 dh=20 dv=0
EndChar

StartChar: Ndotaccent
Encoding: 7748 7748 101
Width: 1472
GlyphClass: 2
Flags: MW
HStem: 1397 41G<266 309 309 332 1192 1206 1206 1235> 1606 195<709 766>
VStem: 184 178<41 1149> 651 172<1651 1755 1637 1768> 1110 178<297 1393>
AnchorPoint: "Anchor-1" 743 1796 basechar 0
AnchorPoint: "Anchor-0" 737 0 basechar 0
LayerCount: 2
Fore
SplineSet
651 1755 m 2,0,1
 651 1800 651 1800 737 1800 c 128,-1,2
 823 1800 823 1800 823 1755 c 2,3,-1
 823 1651 l 2,4,5
 823 1606 823 1606 737 1606 c 128,-1,6
 651 1606 651 1606 651 1651 c 2,7,-1
 651 1755 l 2,0,1
1192 1438 m 2,8,-1
 1206 1438 l 2,9,10
 1288 1438 1288 1438 1288 1393 c 2,11,-1
 1288 41 l 2,12,13
 1288 -4 1288 -4 1206 -4 c 2,14,-1
 1165 -4 l 2,15,16
 1112 -4 1112 -4 1094 25 c 2,17,-1
 418 1044 l 1,18,-1
 362 1149 l 1,19,-1
 362 41 l 2,20,21
 362 -4 362 -4 281 -4 c 2,22,-1
 266 -4 l 2,23,24
 184 -4 184 -4 184 41 c 2,25,-1
 184 1393 l 2,26,27
 184 1438 184 1438 266 1438 c 2,28,-1
 309 1438 l 2,29,30
 366 1438 366 1438 395 1399 c 1,31,-1
 1049 412 l 1,32,-1
 1110 297 l 1,33,-1
 1110 1393 l 2,34,35
 1110 1438 1110 1438 1192 1438 c 2,8,-1
EndSplineSet
Position2: "'cpsp' Capital Spacing lookup 0 subtable" dx=10 dy=0 dh=20 dv=0
EndChar

StartChar: Eng
Encoding: 330 330 102
Width: 1472
GlyphClass: 2
Flags: MW
HStem: -434 147<996 1035 976 1075> 1397 41G<266 309 309 332 1192 1206 1206 1235>
VStem: 184 178<41 1149> 1110 178<297 1393>
AnchorPoint: "Anchor-1" 1202 1071 basechar 0
AnchorPoint: "Anchor-0" 0 0 basechar 0
LayerCount: 2
Fore
SplineSet
1192 1438 m 2,0,-1
 1206 1438 l 2,1,2
 1288 1438 1288 1438 1288 1393 c 2,3,-1
 1288 -152 l 2,4,5
 1288 -310 1288 -310 1207 -372 c 128,-1,6
 1126 -434 1126 -434 1024 -434 c 0,7,8
 874 -434 874 -434 874 -373 c 0,9,10
 874 -353 874 -353 886.5 -314.5 c 128,-1,11
 899 -276 899 -276 918 -276 c 0,12,13
 922 -276 922 -276 946.5 -281.5 c 128,-1,14
 971 -287 971 -287 1006 -287 c 0,15,16
 1117 -287 1117 -287 1116 -135 c 2,17,-1
 1116 -8 l 1,18,-1
 418 1044 l 1,19,-1
 362 1149 l 1,20,-1
 362 41 l 2,21,22
 362 -4 362 -4 281 -4 c 2,23,-1
 266 -4 l 2,24,25
 184 -4 184 -4 184 41 c 2,26,-1
 184 1393 l 2,27,28
 184 1438 184 1438 266 1438 c 2,29,-1
 309 1438 l 2,30,31
 366 1438 366 1438 395 1399 c 1,32,-1
 1049 412 l 1,33,-1
 1110 297 l 1,34,-1
 1110 1393 l 2,35,36
 1110 1438 1110 1438 1192 1438 c 2,0,-1
EndSplineSet
Position2: "'cpsp' Capital Spacing lookup 0 subtable" dx=10 dy=0 dh=20 dv=0
EndChar

StartChar: Nj
Encoding: 459 459 103
Width: 2037
GlyphClass: 2
Flags: MW
HStem: -434 147<1560 1598 1539 1638> 1034 41G<1761 1769 1769 1798> 1329 211<1724 1778 1753 1778> 1397 41G<266 309 309 332 1192 1206 1206 1235>
VStem: 184 178<41 1149> 1110 178<297 1393> 1671 188<1374 1495 1360 1509> 1679 172<-135 1030>
AnchorPoint: "Anchor-1" 737 1434 basechar 0
AnchorPoint: "Anchor-0" 737 0 basechar 0
LayerCount: 2
Fore
SplineSet
1753 1540 m 2,0,-1
 1778 1540 l 2,1,2
 1860 1540 1860 1540 1860 1495 c 2,3,-1
 1860 1374 l 2,4,5
 1860 1329 1860 1329 1778 1329 c 2,6,-1
 1753 1329 l 2,7,8
 1671 1329 1671 1329 1671 1374 c 2,9,-1
 1671 1495 l 2,10,11
 1671 1540 1671 1540 1753 1540 c 2,0,-1
1192 1438 m 2,12,-1
 1206 1438 l 2,13,14
 1288 1438 1288 1438 1288 1393 c 2,15,-1
 1288 41 l 2,16,17
 1288 -4 1288 -4 1206 -4 c 2,18,-1
 1165 -4 l 2,19,20
 1112 -4 1112 -4 1094 25 c 2,21,-1
 418 1044 l 1,22,-1
 362 1149 l 1,23,-1
 362 41 l 2,24,25
 362 -4 362 -4 281 -4 c 2,26,-1
 266 -4 l 2,27,28
 184 -4 184 -4 184 41 c 2,29,-1
 184 1393 l 2,30,31
 184 1438 184 1438 266 1438 c 2,32,-1
 309 1438 l 2,33,34
 366 1438 366 1438 395 1399 c 1,35,-1
 1049 412 l 1,36,-1
 1110 297 l 1,37,-1
 1110 1393 l 2,38,39
 1110 1438 1110 1438 1192 1438 c 2,12,-1
1761 1075 m 2,40,-1
 1769 1075 l 2,41,42
 1851 1075 1851 1075 1851 1030 c 2,43,-1
 1851 -152 l 2,44,45
 1851 -310 1851 -310 1770.5 -372 c 128,-1,46
 1690 -434 1690 -434 1587 -434 c 0,47,48
 1437 -434 1437 -434 1438 -373 c 0,49,50
 1438 -353 1438 -353 1450 -314.5 c 128,-1,51
 1462 -276 1462 -276 1481 -276 c 0,52,53
 1485 -276 1485 -276 1509.5 -281.5 c 128,-1,54
 1534 -287 1534 -287 1569 -287 c 0,55,56
 1680 -287 1680 -287 1679 -135 c 2,57,-1
 1679 1030 l 2,58,59
 1679 1075 1679 1075 1761 1075 c 2,40,-1
EndSplineSet
Position2: "'cpsp' Capital Spacing lookup 0 subtable" dx=10 dy=0 dh=20 dv=0
EndChar

StartChar: Ntilde
Encoding: 209 209 104
Width: 1472
GlyphClass: 2
Flags: MW
HStem: 1397 41G<266 309 309 332 1192 1206 1206 1235> 1561 131<854 890> 1622 131<587 624>
VStem: 184 178<41 1149> 1110 178<297 1393>
AnchorPoint: "Anchor-1" 758 1796 basechar 0
AnchorPoint: "Anchor-0" 737 0 basechar 0
LayerCount: 2
Fore
SplineSet
993 1739 m 0,0,1
 1032 1766 1032 1766 1067 1724 c 0,2,3
 1102 1683 1102 1683 1059 1645 c 0,4,5
 944 1561 944 1561 856 1561 c 0,6,7
 768 1561 768 1561 702 1591 c 0,8,9
 636 1622 636 1622 593 1622 c 0,10,11
 549 1622 549 1622 496 1586 c 0,12,13
 443 1550 443 1550 409 1596 c 0,14,15
 375 1642 375 1642 416 1671 c 0,16,17
 535 1753 535 1753 614 1753 c 0,18,19
 694 1753 694 1753 756 1722 c 0,20,21
 817 1691 817 1691 869 1692 c 0,22,23
 921 1692 921 1692 993 1739 c 0,0,1
1192 1438 m 2,24,-1
 1206 1438 l 2,25,26
 1288 1438 1288 1438 1288 1393 c 2,27,-1
 1288 41 l 2,28,29
 1288 -4 1288 -4 1206 -4 c 2,30,-1
 1165 -4 l 2,31,32
 1112 -4 1112 -4 1094 25 c 2,33,-1
 418 1044 l 1,34,-1
 362 1149 l 1,35,-1
 362 41 l 2,36,37
 362 -4 362 -4 281 -4 c 2,38,-1
 266 -4 l 2,39,40
 184 -4 184 -4 184 41 c 2,41,-1
 184 1393 l 2,42,43
 184 1438 184 1438 266 1438 c 2,44,-1
 309 1438 l 2,45,46
 366 1438 366 1438 395 1399 c 1,47,-1
 1049 412 l 1,48,-1
 1110 297 l 1,49,-1
 1110 1393 l 2,50,51
 1110 1438 1110 1438 1192 1438 c 2,24,-1
EndSplineSet
Position2: "'cpsp' Capital Spacing lookup 0 subtable" dx=10 dy=0 dh=20 dv=0
EndChar

StartChar: O
Encoding: 79 79 105
Width: 1497
GlyphClass: 2
Flags: MW
HStem: -12 156<603 892 603 953> 1290 156<603 892>
VStem: 117 186<532 909 532 961> 1194 186<532 909>
AnchorPoint: "Anchor-1" 750 1434 basechar 0
AnchorPoint: "Anchor-0" 752 0 basechar 0
LayerCount: 2
Fore
SplineSet
747.5 1446 m 128,-1,1
 1057 1446 1057 1446 1218.5 1262.5 c 128,-1,2
 1380 1079 1380 1079 1380 720.5 c 128,-1,3
 1380 362 1380 362 1218.5 175 c 128,-1,4
 1057 -12 1057 -12 749 -12 c 0,5,6
 441 -12 441 -12 279 175 c 128,-1,7
 117 362 117 362 117 720.5 c 128,-1,8
 117 1079 117 1079 277.5 1262.5 c 128,-1,0
 438 1446 438 1446 747.5 1446 c 128,-1,1
747.5 1290 m 128,-1,10
 530 1290 530 1290 416.5 1145.5 c 128,-1,11
 303 1001 303 1001 303 720 c 0,12,13
 303 438 303 438 416.5 290.5 c 128,-1,14
 530 143 530 143 747.5 143 c 128,-1,15
 965 143 965 143 1079.5 290.5 c 128,-1,16
 1194 438 1194 438 1194 720 c 0,17,18
 1194 1002 1194 1002 1079.5 1146 c 128,-1,9
 965 1290 965 1290 747.5 1290 c 128,-1,10
EndSplineSet
Substitution2: "Single Substitution lookup 20 subtable" ordmasculine
Substitution2: "'aalt' Access All Alternates lookup 0 subtable" ordmasculine
Position2: "'cpsp' Capital Spacing lookup 0 subtable" dx=10 dy=0 dh=20 dv=0
EndChar

StartChar: Oacute
Encoding: 211 211 106
Width: 1497
GlyphClass: 2
Flags: MW
HStem: -12 156<603 892 603 953> 1290 156<603 892>
VStem: 117 186<532 909 532 961> 1194 186<532 909>
AnchorPoint: "Anchor-1" 762 1796 basechar 0
AnchorPoint: "Anchor-0" 752 0 basechar 0
LayerCount: 2
Fore
SplineSet
786 1808 m 0,0,1
 817 1861 817 1861 914.5 1861.5 c 128,-1,2
 1012 1862 1012 1862 1012 1835 c 0,3,4
 1012 1821 1012 1821 992.5 1796.5 c 128,-1,5
 973 1772 973 1772 911 1702 c 2,6,-1
 819 1597 l 2,7,8
 786 1560 786 1560 727 1560.5 c 128,-1,9
 668 1561 668 1561 667.5 1581 c 128,-1,10
 667 1601 667 1601 786 1808 c 0,0,1
747.5 1446 m 128,-1,12
 1057 1446 1057 1446 1218.5 1262.5 c 128,-1,13
 1380 1079 1380 1079 1380 720.5 c 128,-1,14
 1380 362 1380 362 1218.5 175 c 128,-1,15
 1057 -12 1057 -12 748.5 -12 c 128,-1,16
 440 -12 440 -12 278.5 175 c 128,-1,17
 117 362 117 362 117 720.5 c 128,-1,18
 117 1079 117 1079 277.5 1262.5 c 128,-1,11
 438 1446 438 1446 747.5 1446 c 128,-1,12
747.5 1290 m 128,-1,20
 530 1290 530 1290 416.5 1145.5 c 128,-1,21
 303 1001 303 1001 303 719.5 c 128,-1,22
 303 438 303 438 416.5 290.5 c 128,-1,23
 530 143 530 143 747.5 143 c 128,-1,24
 965 143 965 143 1079.5 290.5 c 128,-1,25
 1194 438 1194 438 1194 719.5 c 128,-1,26
 1194 1001 1194 1001 1079.5 1145.5 c 128,-1,19
 965 1290 965 1290 747.5 1290 c 128,-1,20
EndSplineSet
Substitution2: "'locl' Localized Forms in Latin lookup 11 subtable" Oacute.loclPLK
Substitution2: "'aalt' Access All Alternates lookup 0 subtable" Oacute.loclPLK
Position2: "'cpsp' Capital Spacing lookup 0 subtable" dx=10 dy=0 dh=20 dv=0
EndChar

StartChar: Obreve
Encoding: 334 334 107
Width: 1497
GlyphClass: 2
Flags: MW
HStem: -12 156<603 892 603 953> 1290 156<603 892> 1561 135<701 802 701 824>
VStem: 117 186<532 909 532 961> 1194 186<532 909>
AnchorPoint: "Anchor-1" 752 1737 basechar 0
AnchorPoint: "Anchor-0" 752 0 basechar 0
LayerCount: 2
Fore
SplineSet
1016 1827 m 0,0,1
 1047 1827 1047 1827 1047 1796 c 0,2,3
 1047 1685 1047 1685 958.5 1623 c 128,-1,4
 870 1561 870 1561 750.5 1561 c 128,-1,5
 631 1561 631 1561 543 1623.5 c 128,-1,6
 455 1686 455 1686 455 1796 c 0,7,8
 455 1827 455 1827 485 1827 c 0,9,10
 508 1827 508 1827 512 1818 c 0,11,12
 524 1788 524 1788 530 1776 c 0,13,14
 573 1696 573 1696 751 1696 c 0,15,16
 946 1696 946 1696 978 1793 c 0,17,18
 987 1821 987 1821 996.5 1824 c 128,-1,19
 1006 1827 1006 1827 1016 1827 c 0,0,1
747.5 1446 m 128,-1,21
 1057 1446 1057 1446 1218.5 1262.5 c 128,-1,22
 1380 1079 1380 1079 1380 720.5 c 128,-1,23
 1380 362 1380 362 1218.5 175 c 128,-1,24
 1057 -12 1057 -12 748.5 -12 c 128,-1,25
 440 -12 440 -12 278.5 175 c 128,-1,26
 117 362 117 362 117 720.5 c 128,-1,27
 117 1079 117 1079 277.5 1262.5 c 128,-1,20
 438 1446 438 1446 747.5 1446 c 128,-1,21
747.5 1290 m 128,-1,29
 530 1290 530 1290 416.5 1145.5 c 128,-1,30
 303 1001 303 1001 303 719.5 c 128,-1,31
 303 438 303 438 416.5 290.5 c 128,-1,32
 530 143 530 143 747.5 143 c 128,-1,33
 965 143 965 143 1079.5 290.5 c 128,-1,34
 1194 438 1194 438 1194 719.5 c 128,-1,35
 1194 1001 1194 1001 1079.5 1145.5 c 128,-1,28
 965 1290 965 1290 747.5 1290 c 128,-1,29
EndSplineSet
Position2: "'cpsp' Capital Spacing lookup 0 subtable" dx=10 dy=0 dh=20 dv=0
EndChar

StartChar: Ocircumflex
Encoding: 212 212 108
Width: 1497
GlyphClass: 2
Flags: MW
HStem: -12 156<603 892 603 953> 1290 156<603 892> 1542 291<534 774 549 774 723 944 723 948>
VStem: 117 186<532 909 532 961> 1194 186<532 909>
AnchorPoint: "Anchor-1" 1075 1624 basechar 0
AnchorPoint: "Anchor-0" 752 0 basechar 0
LayerCount: 2
Fore
SplineSet
723 1833 m 2,0,-1
 774 1833 l 2,1,2
 837 1833 837 1833 868 1788 c 2,3,-1
 985 1608 l 2,4,5
 997 1590 997 1590 997 1573 c 0,6,7
 997 1542 997 1542 948 1542 c 2,8,-1
 944 1542 l 2,9,10
 905 1542 905 1542 877 1569 c 1,11,-1
 748 1720 l 1,12,-1
 623 1569 l 1,13,14
 594 1542 594 1542 553 1542 c 2,15,-1
 549 1542 l 2,16,17
 502 1542 502 1542 502 1571 c 0,18,19
 502 1586 502 1586 514 1608 c 2,20,-1
 629 1788 l 2,21,22
 660 1833 660 1833 723 1833 c 2,0,-1
747.5 1446 m 128,-1,24
 1057 1446 1057 1446 1218.5 1262.5 c 128,-1,25
 1380 1079 1380 1079 1380 720.5 c 128,-1,26
 1380 362 1380 362 1218.5 175 c 128,-1,27
 1057 -12 1057 -12 749 -12 c 0,28,29
 441 -12 441 -12 279 175 c 128,-1,30
 117 362 117 362 117 720.5 c 128,-1,31
 117 1079 117 1079 277.5 1262.5 c 128,-1,23
 438 1446 438 1446 747.5 1446 c 128,-1,24
747.5 1290 m 128,-1,33
 530 1290 530 1290 416.5 1145.5 c 128,-1,34
 303 1001 303 1001 303 720 c 0,35,36
 303 438 303 438 416.5 290.5 c 128,-1,37
 530 143 530 143 747.5 143 c 128,-1,38
 965 143 965 143 1079.5 290.5 c 128,-1,39
 1194 438 1194 438 1194 720 c 0,40,41
 1194 1002 1194 1002 1079.5 1146 c 128,-1,32
 965 1290 965 1290 747.5 1290 c 128,-1,33
EndSplineSet
Position2: "'cpsp' Capital Spacing lookup 0 subtable" dx=10 dy=0 dh=20 dv=0
EndChar

StartChar: Ocircumflexacute
Encoding: 7888 7888 109
Width: 1497
GlyphClass: 2
Flags: MW
HStem: -12 156<603 892 603 953> 1290 156<603 892> 1542 291<542 782 557 782 731 922 731 926>
VStem: 117 186<532 909 532 961> 1194 186<532 909>
AnchorPoint: "Anchor-1" 1038 1698 basechar 0
AnchorPoint: "Anchor-0" 752 0 basechar 0
LayerCount: 2
Fore
SplineSet
1069 1915 m 0,0,1
 1100 1968 1100 1968 1171.5 1968 c 128,-1,2
 1243 1968 1243 1968 1243 1942 c 0,3,4
 1243 1926 1243 1926 1195 1862 c 128,-1,5
 1147 1798 1147 1798 1140 1788 c 128,-1,6
 1133 1778 1133 1778 1118.5 1759.5 c 128,-1,7
 1104 1741 1104 1741 1092 1724 c 0,8,9
 1065 1687 1065 1687 1018 1687.5 c 128,-1,10
 971 1688 971 1688 971 1707.5 c 128,-1,11
 971 1727 971 1727 1069 1915 c 0,0,1
731 1833 m 2,12,-1
 782 1833 l 2,13,14
 827 1833 827 1833 856 1788 c 2,15,-1
 963 1608 l 2,16,17
 975 1590 975 1590 975 1573 c 0,18,19
 975 1542 975 1542 926 1542 c 2,20,-1
 922 1542 l 2,21,22
 873 1542 873 1542 854 1569 c 2,23,-1
 756 1720 l 1,24,-1
 631 1569 l 1,25,26
 602 1542 602 1542 561 1542 c 2,27,-1
 557 1542 l 2,28,29
 510 1542 510 1542 510 1571 c 0,30,31
 510 1586 510 1586 522 1608 c 2,32,-1
 637 1788 l 2,33,34
 668 1833 668 1833 731 1833 c 2,12,-1
747.5 1446 m 128,-1,36
 1057 1446 1057 1446 1218.5 1262.5 c 128,-1,37
 1380 1079 1380 1079 1380 720.5 c 128,-1,38
 1380 362 1380 362 1218.5 175 c 128,-1,39
 1057 -12 1057 -12 748.5 -12 c 128,-1,40
 440 -12 440 -12 278.5 175 c 128,-1,41
 117 362 117 362 117 720.5 c 128,-1,42
 117 1079 117 1079 277.5 1262.5 c 128,-1,35
 438 1446 438 1446 747.5 1446 c 128,-1,36
747.5 1290 m 128,-1,44
 530 1290 530 1290 416.5 1145.5 c 128,-1,45
 303 1001 303 1001 303 719.5 c 128,-1,46
 303 438 303 438 416.5 290.5 c 128,-1,47
 530 143 530 143 747.5 143 c 128,-1,48
 965 143 965 143 1079.5 290.5 c 128,-1,49
 1194 438 1194 438 1194 719.5 c 128,-1,50
 1194 1001 1194 1001 1079.5 1145.5 c 128,-1,43
 965 1290 965 1290 747.5 1290 c 128,-1,44
EndSplineSet
Position2: "'cpsp' Capital Spacing lookup 0 subtable" dx=10 dy=0 dh=20 dv=0
EndChar

StartChar: Ocircumflexdotbelow
Encoding: 7896 7896 110
Width: 1497
GlyphClass: 2
Flags: MW
HStem: -358 195<727 784> -12 156<603 892 603 953> 1290 156<603 892> 1542 291<534 774 549 774 723 944 723 948>
VStem: 117 186<532 909 532 961> 670 172<-313 -209 -327 -196> 1194 186<532 909>
AnchorPoint: "Anchor-1" 762 -168 basechar 0
AnchorPoint: "Anchor-0" 752 -416 basechar 0
LayerCount: 2
Fore
SplineSet
723 1833 m 2,0,-1
 774 1833 l 2,1,2
 837 1833 837 1833 868 1788 c 2,3,-1
 985 1608 l 2,4,5
 997 1590 997 1590 997 1573 c 0,6,7
 997 1542 997 1542 948 1542 c 2,8,-1
 944 1542 l 2,9,10
 905 1542 905 1542 877 1569 c 1,11,-1
 748 1720 l 1,12,-1
 623 1569 l 1,13,14
 594 1542 594 1542 553 1542 c 2,15,-1
 549 1542 l 2,16,17
 502 1542 502 1542 502 1571 c 0,18,19
 502 1586 502 1586 514 1608 c 2,20,-1
 629 1788 l 2,21,22
 660 1833 660 1833 723 1833 c 2,0,-1
747.5 1446 m 128,-1,24
 1057 1446 1057 1446 1218.5 1262.5 c 128,-1,25
 1380 1079 1380 1079 1380 720.5 c 128,-1,26
 1380 362 1380 362 1218.5 175 c 128,-1,27
 1057 -12 1057 -12 748.5 -12 c 128,-1,28
 440 -12 440 -12 278.5 175 c 128,-1,29
 117 362 117 362 117 720.5 c 128,-1,30
 117 1079 117 1079 277.5 1262.5 c 128,-1,23
 438 1446 438 1446 747.5 1446 c 128,-1,24
747.5 1290 m 128,-1,32
 530 1290 530 1290 416.5 1145.5 c 128,-1,33
 303 1001 303 1001 303 719.5 c 128,-1,34
 303 438 303 438 416.5 290.5 c 128,-1,35
 530 143 530 143 747.5 143 c 128,-1,36
 965 143 965 143 1079.5 290.5 c 128,-1,37
 1194 438 1194 438 1194 719.5 c 128,-1,38
 1194 1001 1194 1001 1079.5 1145.5 c 128,-1,31
 965 1290 965 1290 747.5 1290 c 128,-1,32
670 -209 m 2,39,40
 670 -164 670 -164 756 -164 c 128,-1,41
 842 -164 842 -164 842 -209 c 2,42,-1
 842 -313 l 2,43,44
 842 -358 842 -358 756 -358 c 128,-1,45
 670 -358 670 -358 670 -313 c 2,46,-1
 670 -209 l 2,39,40
EndSplineSet
Position2: "'cpsp' Capital Spacing lookup 0 subtable" dx=10 dy=0 dh=20 dv=0
EndChar

StartChar: Ocircumflexgrave
Encoding: 7890 7890 111
Width: 1497
GlyphClass: 2
Flags: MW
HStem: -12 156<603 892 603 953> 1290 156<603 892> 1542 291<542 782 557 782 731 922 731 926>
VStem: 117 186<532 909 532 961> 1194 186<532 909>
AnchorPoint: "Anchor-1" 1038 1698 basechar 0
AnchorPoint: "Anchor-0" 752 0 basechar 0
LayerCount: 2
Fore
SplineSet
874 1942 m 0,0,1
 874 1969 874 1969 950 1968.5 c 128,-1,2
 1026 1968 1026 1968 1049 1915 c 0,3,4
 1127 1733 1127 1733 1126 1708 c 0,5,6
 1126 1688 1126 1688 1078 1688 c 128,-1,7
 1030 1688 1030 1688 1008.5 1719.5 c 128,-1,8
 987 1751 987 1751 970.5 1777.5 c 128,-1,9
 954 1804 954 1804 943 1821.5 c 128,-1,10
 932 1839 932 1839 920.5 1855.5 c 128,-1,11
 909 1872 909 1872 903 1882 c 128,-1,12
 897 1892 897 1892 891 1901.5 c 128,-1,13
 885 1911 885 1911 883 1916 c 128,-1,14
 881 1921 881 1921 879 1926 c 0,15,16
 874 1937 874 1937 874 1942 c 0,0,1
731 1833 m 2,17,-1
 782 1833 l 2,18,19
 827 1833 827 1833 856 1788 c 2,20,-1
 963 1608 l 2,21,22
 975 1590 975 1590 975 1573 c 0,23,24
 975 1542 975 1542 926 1542 c 2,25,-1
 922 1542 l 2,26,27
 873 1542 873 1542 854 1569 c 2,28,-1
 756 1720 l 1,29,-1
 631 1569 l 1,30,31
 602 1542 602 1542 561 1542 c 2,32,-1
 557 1542 l 2,33,34
 510 1542 510 1542 510 1571 c 0,35,36
 510 1586 510 1586 522 1608 c 2,37,-1
 637 1788 l 2,38,39
 668 1833 668 1833 731 1833 c 2,17,-1
747.5 1446 m 128,-1,41
 1057 1446 1057 1446 1218.5 1262.5 c 128,-1,42
 1380 1079 1380 1079 1380 720.5 c 128,-1,43
 1380 362 1380 362 1218.5 175 c 128,-1,44
 1057 -12 1057 -12 748.5 -12 c 128,-1,45
 440 -12 440 -12 278.5 175 c 128,-1,46
 117 362 117 362 117 720.5 c 128,-1,47
 117 1079 117 1079 277.5 1262.5 c 128,-1,40
 438 1446 438 1446 747.5 1446 c 128,-1,41
747.5 1290 m 128,-1,49
 530 1290 530 1290 416.5 1145.5 c 128,-1,50
 303 1001 303 1001 303 719.5 c 128,-1,51
 303 438 303 438 416.5 290.5 c 128,-1,52
 530 143 530 143 747.5 143 c 128,-1,53
 965 143 965 143 1079.5 290.5 c 128,-1,54
 1194 438 1194 438 1194 719.5 c 128,-1,55
 1194 1001 1194 1001 1079.5 1145.5 c 128,-1,48
 965 1290 965 1290 747.5 1290 c 128,-1,49
EndSplineSet
Position2: "'cpsp' Capital Spacing lookup 0 subtable" dx=10 dy=0 dh=20 dv=0
EndChar

StartChar: Ocircumflexhookabove
Encoding: 7892 7892 112
Width: 1497
GlyphClass: 2
Flags: MW
HStem: -12 156<603 892 603 953> 1290 156<603 892> 1542 291<542 782 557 782 731 922 731 926> 1907 98<990 1030>
VStem: 117 186<532 909 532 961> 1085 117<1837 1870> 1194 186<532 909>
AnchorPoint: "Anchor-1" 1038 1698 basechar 0
AnchorPoint: "Anchor-0" 752 0 basechar 0
LayerCount: 2
Fore
SplineSet
1085 1851 m 0,0,1
 1085 1906 1085 1906 1010 1907 c 0,2,3
 967 1907 967 1907 942.5 1893.5 c 128,-1,4
 918 1880 918 1880 915 1880 c 0,5,6
 903 1880 903 1880 884.5 1905.5 c 128,-1,7
 866 1931 866 1931 866 1949.5 c 128,-1,8
 866 1968 866 1968 919.5 1986.5 c 128,-1,9
 973 2005 973 2005 1032.5 2005 c 128,-1,10
 1092 2005 1092 2005 1147 1971 c 128,-1,11
 1202 1937 1202 1937 1202 1865.5 c 128,-1,12
 1202 1794 1202 1794 1139.5 1742 c 128,-1,13
 1077 1690 1077 1690 1046.5 1690 c 128,-1,14
 1016 1690 1016 1690 993.5 1703 c 128,-1,15
 971 1716 971 1716 971 1731.5 c 128,-1,16
 971 1747 971 1747 1028 1778.5 c 128,-1,17
 1085 1810 1085 1810 1085 1851 c 0,0,1
731 1833 m 2,18,-1
 782 1833 l 2,19,20
 827 1833 827 1833 856 1788 c 2,21,-1
 963 1608 l 2,22,23
 975 1590 975 1590 975 1573 c 0,24,25
 975 1542 975 1542 926 1542 c 2,26,-1
 922 1542 l 2,27,28
 873 1542 873 1542 854 1569 c 2,29,-1
 756 1720 l 1,30,-1
 631 1569 l 1,31,32
 602 1542 602 1542 561 1542 c 2,33,-1
 557 1542 l 2,34,35
 510 1542 510 1542 510 1571 c 0,36,37
 510 1586 510 1586 522 1608 c 2,38,-1
 637 1788 l 2,39,40
 668 1833 668 1833 731 1833 c 2,18,-1
747.5 1446 m 128,-1,42
 1057 1446 1057 1446 1218.5 1262.5 c 128,-1,43
 1380 1079 1380 1079 1380 720.5 c 128,-1,44
 1380 362 1380 362 1218.5 175 c 128,-1,45
 1057 -12 1057 -12 748.5 -12 c 128,-1,46
 440 -12 440 -12 278.5 175 c 128,-1,47
 117 362 117 362 117 720.5 c 128,-1,48
 117 1079 117 1079 277.5 1262.5 c 128,-1,41
 438 1446 438 1446 747.5 1446 c 128,-1,42
747.5 1290 m 128,-1,50
 530 1290 530 1290 416.5 1145.5 c 128,-1,51
 303 1001 303 1001 303 719.5 c 128,-1,52
 303 438 303 438 416.5 290.5 c 128,-1,53
 530 143 530 143 747.5 143 c 128,-1,54
 965 143 965 143 1079.5 290.5 c 128,-1,55
 1194 438 1194 438 1194 719.5 c 128,-1,56
 1194 1001 1194 1001 1079.5 1145.5 c 128,-1,49
 965 1290 965 1290 747.5 1290 c 128,-1,50
EndSplineSet
Position2: "'cpsp' Capital Spacing lookup 0 subtable" dx=10 dy=0 dh=20 dv=0
EndChar

StartChar: Ocircumflextilde
Encoding: 7894 7894 113
Width: 1497
GlyphClass: 2
Flags: MW
HStem: -12 156<603 892 603 953> 1290 156<603 892> 1542 242<534 774 549 774 723 944 723 948> 1849 131<848 882> 1911 131<605 639>
VStem: 117 186<532 909 532 961> 1194 186<532 909>
AnchorPoint: "Anchor-1" 995 1714 basechar 0
AnchorPoint: "Anchor-0" 752 0 basechar 0
LayerCount: 2
Fore
SplineSet
975 2028 m 0,0,1
 1012 2055 1012 2055 1042 2014 c 0,2,3
 1073 1974 1073 1974 1034 1933 c 0,4,5
 932 1849 932 1849 852 1849 c 0,6,7
 772 1849 772 1849 713 1880 c 0,8,9
 654 1911 654 1911 612 1911 c 0,10,11
 571 1911 571 1911 522 1875 c 0,12,13
 473 1839 473 1839 443 1884 c 0,14,15
 413 1929 413 1929 451 1960 c 0,16,17
 557 2042 557 2042 629 2042 c 0,18,19
 701 2042 701 2042 758 2011 c 0,20,21
 815 1980 815 1980 863 1980 c 0,22,23
 912 1981 912 1981 975 2028 c 0,0,1
723 1784 m 2,24,-1
 774 1784 l 2,25,26
 823 1784 823 1784 868 1739 c 1,27,-1
 985 1608 l 1,28,29
 997 1590 997 1590 997 1573 c 0,30,31
 997 1542 997 1542 948 1542 c 2,32,-1
 944 1542 l 2,33,34
 917 1542 917 1542 877 1569 c 1,35,-1
 748 1671 l 1,36,-1
 623 1569 l 1,37,38
 584 1542 584 1542 553 1542 c 2,39,-1
 549 1542 l 2,40,41
 502 1542 502 1542 502 1571 c 0,42,43
 502 1586 502 1586 514 1608 c 1,44,-1
 629 1739 l 1,45,46
 678 1784 678 1784 723 1784 c 2,24,-1
747.5 1446 m 128,-1,48
 1057 1446 1057 1446 1218.5 1262.5 c 128,-1,49
 1380 1079 1380 1079 1380 720.5 c 128,-1,50
 1380 362 1380 362 1218.5 175 c 128,-1,51
 1057 -12 1057 -12 749 -12 c 0,52,53
 441 -12 441 -12 279 175 c 128,-1,54
 117 362 117 362 117 720.5 c 128,-1,55
 117 1079 117 1079 277.5 1262.5 c 128,-1,47
 438 1446 438 1446 747.5 1446 c 128,-1,48
747.5 1290 m 128,-1,57
 530 1290 530 1290 416.5 1145.5 c 128,-1,58
 303 1001 303 1001 303 720 c 0,59,60
 303 438 303 438 416.5 290.5 c 128,-1,61
 530 143 530 143 747.5 143 c 128,-1,62
 965 143 965 143 1079.5 290.5 c 128,-1,63
 1194 438 1194 438 1194 720 c 0,64,65
 1194 1002 1194 1002 1079.5 1146 c 128,-1,56
 965 1290 965 1290 747.5 1290 c 128,-1,57
EndSplineSet
Position2: "'cpsp' Capital Spacing lookup 0 subtable" dx=10 dy=0 dh=20 dv=0
EndChar

StartChar: Odieresis
Encoding: 214 214 114
Width: 1497
GlyphClass: 2
Flags: MW
HStem: -12 156<603 892 603 953> 1290 156<603 892> 1606 195<573 631 868 926>
VStem: 117 186<532 909 532 961> 516 172<1651 1755 1637 1768> 811 172<1651 1755 1637 1768> 1194 186<532 909>
AnchorPoint: "Anchor-1" 743 1796 basechar 0
AnchorPoint: "Anchor-0" 752 0 basechar 0
LayerCount: 2
Fore
SplineSet
516 1755 m 2,0,1
 516 1800 516 1800 602 1800 c 128,-1,2
 688 1800 688 1800 688 1755 c 2,3,-1
 688 1651 l 2,4,5
 688 1606 688 1606 602 1606 c 128,-1,6
 516 1606 516 1606 516 1651 c 2,7,-1
 516 1755 l 2,0,1
811 1755 m 2,8,9
 811 1800 811 1800 897 1800 c 128,-1,10
 983 1800 983 1800 983 1755 c 2,11,-1
 983 1651 l 2,12,13
 983 1606 983 1606 897 1606 c 128,-1,14
 811 1606 811 1606 811 1651 c 2,15,-1
 811 1755 l 2,8,9
747.5 1446 m 128,-1,17
 1057 1446 1057 1446 1218.5 1262.5 c 128,-1,18
 1380 1079 1380 1079 1380 720.5 c 128,-1,19
 1380 362 1380 362 1218.5 175 c 128,-1,20
 1057 -12 1057 -12 748.5 -12 c 128,-1,21
 440 -12 440 -12 278.5 175 c 128,-1,22
 117 362 117 362 117 720.5 c 128,-1,23
 117 1079 117 1079 277.5 1262.5 c 128,-1,16
 438 1446 438 1446 747.5 1446 c 128,-1,17
747.5 1290 m 128,-1,25
 530 1290 530 1290 416.5 1145.5 c 128,-1,26
 303 1001 303 1001 303 719.5 c 128,-1,27
 303 438 303 438 416.5 290.5 c 128,-1,28
 530 143 530 143 747.5 143 c 128,-1,29
 965 143 965 143 1079.5 290.5 c 128,-1,30
 1194 438 1194 438 1194 719.5 c 128,-1,31
 1194 1001 1194 1001 1079.5 1145.5 c 128,-1,24
 965 1290 965 1290 747.5 1290 c 128,-1,25
EndSplineSet
Position2: "'cpsp' Capital Spacing lookup 0 subtable" dx=10 dy=0 dh=20 dv=0
EndChar

StartChar: Odotbelow
Encoding: 7884 7884 115
Width: 1497
GlyphClass: 2
Flags: MW
HStem: -358 195<727 784> -12 156<603 892 603 953> 1290 156<603 892>
VStem: 117 186<532 909 532 961> 670 172<-313 -209 -327 -196> 1194 186<532 909>
AnchorPoint: "Anchor-1" 762 -168 basechar 0
AnchorPoint: "Anchor-0" 752 -416 basechar 0
LayerCount: 2
Fore
SplineSet
747.5 1446 m 128,-1,1
 1057 1446 1057 1446 1218.5 1262.5 c 128,-1,2
 1380 1079 1380 1079 1380 720.5 c 128,-1,3
 1380 362 1380 362 1218.5 175 c 128,-1,4
 1057 -12 1057 -12 748.5 -12 c 128,-1,5
 440 -12 440 -12 278.5 175 c 128,-1,6
 117 362 117 362 117 720.5 c 128,-1,7
 117 1079 117 1079 277.5 1262.5 c 128,-1,0
 438 1446 438 1446 747.5 1446 c 128,-1,1
747.5 1290 m 128,-1,9
 530 1290 530 1290 416.5 1145.5 c 128,-1,10
 303 1001 303 1001 303 719.5 c 128,-1,11
 303 438 303 438 416.5 290.5 c 128,-1,12
 530 143 530 143 747.5 143 c 128,-1,13
 965 143 965 143 1079.5 290.5 c 128,-1,14
 1194 438 1194 438 1194 719.5 c 128,-1,15
 1194 1001 1194 1001 1079.5 1145.5 c 128,-1,8
 965 1290 965 1290 747.5 1290 c 128,-1,9
670 -209 m 2,16,17
 670 -164 670 -164 756 -164 c 128,-1,18
 842 -164 842 -164 842 -209 c 2,19,-1
 842 -313 l 2,20,21
 842 -358 842 -358 756 -358 c 128,-1,22
 670 -358 670 -358 670 -313 c 2,23,-1
 670 -209 l 2,16,17
EndSplineSet
Position2: "'cpsp' Capital Spacing lookup 0 subtable" dx=10 dy=0 dh=20 dv=0
EndChar

StartChar: Ograve
Encoding: 210 210 116
Width: 1497
GlyphClass: 2
Flags: MW
HStem: -12 156<603 892 603 953> 1290 156<603 892>
VStem: 117 186<532 909 532 961> 1194 186<532 909>
AnchorPoint: "Anchor-1" 739 1796 basechar 0
AnchorPoint: "Anchor-0" 752 0 basechar 0
LayerCount: 2
Fore
SplineSet
508 1835 m 0,0,1
 508 1862 508 1862 605 1862 c 128,-1,2
 702 1862 702 1862 733 1808 c 0,3,4
 852 1601 852 1601 852 1581 c 128,-1,5
 852 1561 852 1561 792.5 1561 c 128,-1,6
 733 1561 733 1561 700 1597 c 0,7,8
 520 1803 520 1803 514 1815 c 128,-1,9
 508 1827 508 1827 508 1835 c 0,0,1
747.5 1446 m 128,-1,11
 1057 1446 1057 1446 1218.5 1262.5 c 128,-1,12
 1380 1079 1380 1079 1380 720.5 c 128,-1,13
 1380 362 1380 362 1218.5 175 c 128,-1,14
 1057 -12 1057 -12 748.5 -12 c 128,-1,15
 440 -12 440 -12 278.5 175 c 128,-1,16
 117 362 117 362 117 720.5 c 128,-1,17
 117 1079 117 1079 277.5 1262.5 c 128,-1,10
 438 1446 438 1446 747.5 1446 c 128,-1,11
747.5 1290 m 128,-1,19
 530 1290 530 1290 416.5 1145.5 c 128,-1,20
 303 1001 303 1001 303 719.5 c 128,-1,21
 303 438 303 438 416.5 290.5 c 128,-1,22
 530 143 530 143 747.5 143 c 128,-1,23
 965 143 965 143 1079.5 290.5 c 128,-1,24
 1194 438 1194 438 1194 719.5 c 128,-1,25
 1194 1001 1194 1001 1079.5 1145.5 c 128,-1,18
 965 1290 965 1290 747.5 1290 c 128,-1,19
EndSplineSet
Position2: "'cpsp' Capital Spacing lookup 0 subtable" dx=10 dy=0 dh=20 dv=0
EndChar

StartChar: Ohookabove
Encoding: 7886 7886 117
Width: 1497
GlyphClass: 2
Flags: MW
HStem: -12 156<603 892 603 953> 1290 156<603 892> 1794 104<728 768>
VStem: 117 186<532 909 532 961> 823 127<1688 1757> 1194 186<532 909>
AnchorPoint: "Anchor-1" 752 1796 basechar 0
AnchorPoint: "Anchor-0" 752 0 basechar 0
LayerCount: 2
Fore
SplineSet
823 1739 m 0,0,1
 823 1794 823 1794 748 1794 c 0,2,3
 698 1794 698 1794 676.5 1780.5 c 128,-1,4
 655 1767 655 1767 653 1767 c 0,5,6
 641 1767 641 1767 622.5 1793 c 128,-1,7
 604 1819 604 1819 604 1837 c 128,-1,8
 604 1855 604 1855 657.5 1876.5 c 128,-1,9
 711 1898 711 1898 771 1898 c 128,-1,10
 831 1898 831 1898 890.5 1863.5 c 128,-1,11
 950 1829 950 1829 950 1747 c 128,-1,12
 950 1665 950 1665 873.5 1590.5 c 128,-1,13
 797 1516 797 1516 764 1516 c 0,14,15
 748 1516 748 1516 722 1527 c 128,-1,16
 696 1538 696 1538 696 1555.5 c 128,-1,17
 696 1573 696 1573 728 1599.5 c 128,-1,18
 760 1626 760 1626 791.5 1661 c 128,-1,19
 823 1696 823 1696 823 1739 c 0,0,1
747.5 1446 m 128,-1,21
 1057 1446 1057 1446 1218.5 1262.5 c 128,-1,22
 1380 1079 1380 1079 1380 720.5 c 128,-1,23
 1380 362 1380 362 1218.5 175 c 128,-1,24
 1057 -12 1057 -12 748.5 -12 c 128,-1,25
 440 -12 440 -12 278.5 175 c 128,-1,26
 117 362 117 362 117 720.5 c 128,-1,27
 117 1079 117 1079 277.5 1262.5 c 128,-1,20
 438 1446 438 1446 747.5 1446 c 128,-1,21
747.5 1290 m 128,-1,29
 530 1290 530 1290 416.5 1145.5 c 128,-1,30
 303 1001 303 1001 303 719.5 c 128,-1,31
 303 438 303 438 416.5 290.5 c 128,-1,32
 530 143 530 143 747.5 143 c 128,-1,33
 965 143 965 143 1079.5 290.5 c 128,-1,34
 1194 438 1194 438 1194 719.5 c 128,-1,35
 1194 1001 1194 1001 1079.5 1145.5 c 128,-1,28
 965 1290 965 1290 747.5 1290 c 128,-1,29
EndSplineSet
Position2: "'cpsp' Capital Spacing lookup 0 subtable" dx=10 dy=0 dh=20 dv=0
EndChar

StartChar: Ohorn
Encoding: 416 416 118
Width: 1497
GlyphClass: 2
Flags: MW
HStem: -12 156<603 892 603 953> 1290 106 1290 156<603 801 543 892>
VStem: 117 186<532 909 532 961> 1171 125<1448 1543> 1194 186<532 867 481 909>
AnchorPoint: "Anchor-1" 778 1438 basechar 0
AnchorPoint: "Anchor-0" 752 0 basechar 0
LayerCount: 2
Fore
SplineSet
1139 1335 m 1,0,1
 1381 1161 1381 1161 1380 721 c 0,2,3
 1380 363 1380 363 1218.5 175.5 c 128,-1,4
 1057 -12 1057 -12 749 -12 c 0,5,6
 441 -12 441 -12 279 175 c 128,-1,7
 117 362 117 362 117 720.5 c 128,-1,8
 117 1079 117 1079 277.5 1262.5 c 128,-1,9
 438 1446 438 1446 748 1446 c 0,10,11
 908 1446 908 1446 1028 1397 c 1,12,-1
 1059 1397 l 2,13,14
 1172 1397 1172 1397 1171 1464 c 0,15,16
 1175 1501 1175 1501 1145.5 1545 c 128,-1,17
 1116 1589 1116 1589 1116 1591 c 0,18,19
 1116 1611 1116 1611 1135 1624 c 2,20,-1
 1184 1657 l 2,21,22
 1194 1665 1194 1665 1208 1665 c 0,23,24
 1241 1665 1241 1665 1268.5 1614 c 128,-1,25
 1296 1563 1296 1563 1296 1513 c 0,26,27
 1297 1366 1297 1366 1139 1335 c 1,0,1
747.5 143 m 128,-1,29
 965 143 965 143 1079.5 290.5 c 128,-1,30
 1194 438 1194 438 1194 720 c 0,31,32
 1194 1002 1194 1002 1079.5 1146 c 128,-1,33
 965 1290 965 1290 747.5 1290 c 128,-1,34
 530 1290 530 1290 416.5 1145.5 c 128,-1,35
 303 1001 303 1001 303 720 c 0,36,37
 303 438 303 438 416.5 290.5 c 128,-1,28
 530 143 530 143 747.5 143 c 128,-1,29
EndSplineSet
Position2: "'cpsp' Capital Spacing lookup 0 subtable" dx=10 dy=0 dh=20 dv=0
EndChar

StartChar: Ohornacute
Encoding: 7898 7898 119
Width: 1497
GlyphClass: 2
Flags: MW
HStem: -12 156<603 892 603 953> 1290 106 1290 156<603 801 543 892>
VStem: 117 186<532 909 532 961> 1171 125<1448 1543> 1194 186<532 867 481 909>
AnchorPoint: "Anchor-1" 778 1438 basechar 0
AnchorPoint: "Anchor-0" 752 0 basechar 0
LayerCount: 2
Fore
SplineSet
1020.5 1800.5 m 128,-1,1
 1001 1776 1001 1776 940 1706 c 128,-1,2
 879 1636 879 1636 847 1600.5 c 128,-1,3
 815 1565 815 1565 755.5 1565 c 128,-1,4
 696 1565 696 1565 696 1585.5 c 128,-1,5
 696 1606 696 1606 815 1812 c 0,6,7
 846 1865 846 1865 943 1865.5 c 128,-1,8
 1040 1866 1040 1866 1040 1839 c 0,9,0
 1040 1825 1040 1825 1020.5 1800.5 c 128,-1,1
1139 1335 m 1,10,11
 1381 1161 1381 1161 1380 721 c 0,12,13
 1380 363 1380 363 1218.5 175.5 c 128,-1,14
 1057 -12 1057 -12 748.5 -12 c 128,-1,15
 440 -12 440 -12 278.5 175 c 128,-1,16
 117 362 117 362 117 720.5 c 128,-1,17
 117 1079 117 1079 277.5 1262.5 c 128,-1,18
 438 1446 438 1446 748 1446 c 0,19,20
 908 1446 908 1446 1028 1397 c 1,21,-1
 1059 1397 l 2,22,23
 1172 1397 1172 1397 1171 1464 c 0,24,25
 1175 1501 1175 1501 1145.5 1545 c 128,-1,26
 1116 1589 1116 1589 1116 1591 c 0,27,28
 1116 1611 1116 1611 1135 1624 c 2,29,-1
 1184 1657 l 2,30,31
 1194 1665 1194 1665 1208 1665 c 0,32,33
 1241 1665 1241 1665 1268.5 1614 c 128,-1,34
 1296 1563 1296 1563 1296 1513 c 0,35,36
 1297 1366 1297 1366 1139 1335 c 1,10,11
747.5 143 m 128,-1,38
 965 143 965 143 1079.5 290.5 c 128,-1,39
 1194 438 1194 438 1194 719.5 c 128,-1,40
 1194 1001 1194 1001 1079.5 1145.5 c 128,-1,41
 965 1290 965 1290 747.5 1290 c 128,-1,42
 530 1290 530 1290 416.5 1145.5 c 128,-1,43
 303 1001 303 1001 303 719.5 c 128,-1,44
 303 438 303 438 416.5 290.5 c 128,-1,37
 530 143 530 143 747.5 143 c 128,-1,38
EndSplineSet
Position2: "'cpsp' Capital Spacing lookup 0 subtable" dx=10 dy=0 dh=20 dv=0
EndChar

StartChar: Ohorndotbelow
Encoding: 7906 7906 120
Width: 1497
GlyphClass: 2
Flags: MW
HStem: -358 195<727 784> -12 156<603 892 603 953> 1290 106 1290 156<603 801 543 892>
VStem: 117 186<532 909 532 961> 670 172<-313 -209 -327 -196> 1171 125<1448 1543> 1194 186<532 867 481 909>
AnchorPoint: "Anchor-1" 778 1438 basechar 0
AnchorPoint: "Anchor-0" 752 -416 basechar 0
LayerCount: 2
Fore
SplineSet
1139 1335 m 1,0,1
 1381 1161 1381 1161 1380 721 c 0,2,3
 1380 363 1380 363 1218.5 175.5 c 128,-1,4
 1057 -12 1057 -12 748.5 -12 c 128,-1,5
 440 -12 440 -12 278.5 175 c 128,-1,6
 117 362 117 362 117 720.5 c 128,-1,7
 117 1079 117 1079 277.5 1262.5 c 128,-1,8
 438 1446 438 1446 748 1446 c 0,9,10
 908 1446 908 1446 1028 1397 c 1,11,-1
 1059 1397 l 2,12,13
 1172 1397 1172 1397 1171 1464 c 0,14,15
 1175 1501 1175 1501 1145.5 1545 c 128,-1,16
 1116 1589 1116 1589 1116 1591 c 0,17,18
 1116 1611 1116 1611 1135 1624 c 2,19,-1
 1184 1657 l 2,20,21
 1194 1665 1194 1665 1208 1665 c 0,22,23
 1241 1665 1241 1665 1268.5 1614 c 128,-1,24
 1296 1563 1296 1563 1296 1513 c 0,25,26
 1297 1366 1297 1366 1139 1335 c 1,0,1
747.5 143 m 128,-1,28
 965 143 965 143 1079.5 290.5 c 128,-1,29
 1194 438 1194 438 1194 719.5 c 128,-1,30
 1194 1001 1194 1001 1079.5 1145.5 c 128,-1,31
 965 1290 965 1290 747.5 1290 c 128,-1,32
 530 1290 530 1290 416.5 1145.5 c 128,-1,33
 303 1001 303 1001 303 719.5 c 128,-1,34
 303 438 303 438 416.5 290.5 c 128,-1,27
 530 143 530 143 747.5 143 c 128,-1,28
670 -209 m 2,35,36
 670 -164 670 -164 756 -164 c 128,-1,37
 842 -164 842 -164 842 -209 c 2,38,-1
 842 -313 l 2,39,40
 842 -358 842 -358 756 -358 c 128,-1,41
 670 -358 670 -358 670 -313 c 2,42,-1
 670 -209 l 2,35,36
EndSplineSet
Position2: "'cpsp' Capital Spacing lookup 0 subtable" dx=10 dy=0 dh=20 dv=0
EndChar

StartChar: Ohorngrave
Encoding: 7900 7900 121
Width: 1497
GlyphClass: 2
Flags: MW
HStem: -12 156<603 892 603 953> 1290 106 1290 156<603 801 543 892>
VStem: 117 186<532 909 532 961> 1171 125<1448 1543> 1194 186<532 867 481 909>
AnchorPoint: "Anchor-1" 778 1438 basechar 0
AnchorPoint: "Anchor-0" 752 0 basechar 0
LayerCount: 2
Fore
SplineSet
881 1585.5 m 128,-1,1
 881 1565 881 1565 821.5 1565 c 128,-1,2
 762 1565 762 1565 729 1602 c 0,3,4
 549 1808 549 1808 543 1819.5 c 128,-1,5
 537 1831 537 1831 537 1839 c 0,6,7
 537 1866 537 1866 634 1866 c 128,-1,8
 731 1866 731 1866 762 1812 c 0,9,0
 881 1606 881 1606 881 1585.5 c 128,-1,1
1139 1335 m 1,10,11
 1381 1161 1381 1161 1380 721 c 0,12,13
 1380 363 1380 363 1218.5 175.5 c 128,-1,14
 1057 -12 1057 -12 748.5 -12 c 128,-1,15
 440 -12 440 -12 278.5 175 c 128,-1,16
 117 362 117 362 117 720.5 c 128,-1,17
 117 1079 117 1079 277.5 1262.5 c 128,-1,18
 438 1446 438 1446 748 1446 c 0,19,20
 908 1446 908 1446 1028 1397 c 1,21,-1
 1059 1397 l 2,22,23
 1172 1397 1172 1397 1171 1464 c 0,24,25
 1175 1501 1175 1501 1145.5 1545 c 128,-1,26
 1116 1589 1116 1589 1116 1591 c 0,27,28
 1116 1611 1116 1611 1135 1624 c 2,29,-1
 1184 1657 l 2,30,31
 1194 1665 1194 1665 1208 1665 c 0,32,33
 1241 1665 1241 1665 1268.5 1614 c 128,-1,34
 1296 1563 1296 1563 1296 1513 c 0,35,36
 1297 1366 1297 1366 1139 1335 c 1,10,11
747.5 143 m 128,-1,38
 965 143 965 143 1079.5 290.5 c 128,-1,39
 1194 438 1194 438 1194 719.5 c 128,-1,40
 1194 1001 1194 1001 1079.5 1145.5 c 128,-1,41
 965 1290 965 1290 747.5 1290 c 128,-1,42
 530 1290 530 1290 416.5 1145.5 c 128,-1,43
 303 1001 303 1001 303 719.5 c 128,-1,44
 303 438 303 438 416.5 290.5 c 128,-1,37
 530 143 530 143 747.5 143 c 128,-1,38
EndSplineSet
Position2: "'cpsp' Capital Spacing lookup 0 subtable" dx=10 dy=0 dh=20 dv=0
EndChar

StartChar: Ohornhookabove
Encoding: 7902 7902 122
Width: 1497
GlyphClass: 2
Flags: MW
HStem: -12 156<603 892 603 953> 1290 106 1290 156<603 801 543 892> 1798 104<757 797>
VStem: 117 186<532 909 532 961> 852 127<1692 1761> 1171 125<1448 1543> 1194 186<532 867 481 909>
AnchorPoint: "Anchor-1" 778 1438 basechar 0
AnchorPoint: "Anchor-0" 752 0 basechar 0
LayerCount: 2
Fore
SplineSet
682 1772 m 0,0,1
 670 1772 670 1772 651.5 1797.5 c 128,-1,2
 633 1823 633 1823 633 1841.5 c 128,-1,3
 633 1860 633 1860 686 1881.5 c 128,-1,4
 739 1903 739 1903 799.5 1903 c 128,-1,5
 860 1903 860 1903 919.5 1868 c 128,-1,6
 979 1833 979 1833 979 1751 c 128,-1,7
 979 1669 979 1669 902 1594.5 c 128,-1,8
 825 1520 825 1520 793 1520 c 0,9,10
 777 1520 777 1520 751 1531 c 128,-1,11
 725 1542 725 1542 725 1560.5 c 128,-1,12
 725 1579 725 1579 756.5 1604.5 c 128,-1,13
 788 1630 788 1630 820 1665 c 128,-1,14
 852 1700 852 1700 852 1743 c 0,15,16
 852 1798 852 1798 776 1798 c 0,17,18
 726 1798 726 1798 705 1785 c 128,-1,19
 684 1772 684 1772 682 1772 c 0,0,1
1139 1335 m 1,20,21
 1381 1161 1381 1161 1380 721 c 0,22,23
 1380 363 1380 363 1218.5 175.5 c 128,-1,24
 1057 -12 1057 -12 748.5 -12 c 128,-1,25
 440 -12 440 -12 278.5 175 c 128,-1,26
 117 362 117 362 117 720.5 c 128,-1,27
 117 1079 117 1079 277.5 1262.5 c 128,-1,28
 438 1446 438 1446 748 1446 c 0,29,30
 908 1446 908 1446 1028 1397 c 1,31,-1
 1059 1397 l 2,32,33
 1172 1397 1172 1397 1171 1464 c 0,34,35
 1175 1501 1175 1501 1145.5 1545 c 128,-1,36
 1116 1589 1116 1589 1116 1591 c 0,37,38
 1116 1611 1116 1611 1135 1624 c 2,39,-1
 1184 1657 l 2,40,41
 1194 1665 1194 1665 1208 1665 c 0,42,43
 1241 1665 1241 1665 1268.5 1614 c 128,-1,44
 1296 1563 1296 1563 1296 1513 c 0,45,46
 1297 1366 1297 1366 1139 1335 c 1,20,21
747.5 143 m 128,-1,48
 965 143 965 143 1079.5 290.5 c 128,-1,49
 1194 438 1194 438 1194 719.5 c 128,-1,50
 1194 1001 1194 1001 1079.5 1145.5 c 128,-1,51
 965 1290 965 1290 747.5 1290 c 128,-1,52
 530 1290 530 1290 416.5 1145.5 c 128,-1,53
 303 1001 303 1001 303 719.5 c 128,-1,54
 303 438 303 438 416.5 290.5 c 128,-1,47
 530 143 530 143 747.5 143 c 128,-1,48
EndSplineSet
Position2: "'cpsp' Capital Spacing lookup 0 subtable" dx=10 dy=0 dh=20 dv=0
EndChar

StartChar: Ohorntilde
Encoding: 7904 7904 123
Width: 1497
GlyphClass: 2
Flags: MW
HStem: -12 156<603 892 603 953> 1290 106 1290 156<603 801 543 892> 1565 131<883 915> 1626 131<642 676>
VStem: 117 186<532 909 532 961> 1171 125<1448 1543> 1194 186<532 867 481 909>
AnchorPoint: "Anchor-1" 778 1438 basechar 0
AnchorPoint: "Anchor-0" 752 0 basechar 0
LayerCount: 2
Fore
SplineSet
1067 1649 m 0,0,1
 965 1565 965 1565 886 1565 c 128,-1,2
 807 1565 807 1565 747.5 1595.5 c 128,-1,3
 688 1626 688 1626 648 1626 c 128,-1,4
 608 1626 608 1626 560 1591 c 128,-1,5
 512 1556 512 1556 482.5 1600.5 c 128,-1,6
 453 1645 453 1645 489 1675 c 0,7,8
 591 1757 591 1757 680 1757 c 0,9,10
 735 1757 735 1757 792.5 1726.5 c 128,-1,11
 850 1696 850 1696 897 1696 c 128,-1,12
 944 1696 944 1696 1008 1743 c 0,13,14
 1045 1770 1045 1770 1076.5 1730 c 128,-1,15
 1108 1690 1108 1690 1067 1649 c 0,0,1
1139 1335 m 1,16,17
 1381 1161 1381 1161 1380 721 c 0,18,19
 1380 363 1380 363 1218.5 175.5 c 128,-1,20
 1057 -12 1057 -12 748.5 -12 c 128,-1,21
 440 -12 440 -12 278.5 175 c 128,-1,22
 117 362 117 362 117 720.5 c 128,-1,23
 117 1079 117 1079 277.5 1262.5 c 128,-1,24
 438 1446 438 1446 748 1446 c 0,25,26
 908 1446 908 1446 1028 1397 c 1,27,-1
 1059 1397 l 2,28,29
 1172 1397 1172 1397 1171 1464 c 0,30,31
 1175 1501 1175 1501 1145.5 1545 c 128,-1,32
 1116 1589 1116 1589 1116 1591 c 0,33,34
 1116 1611 1116 1611 1135 1624 c 2,35,-1
 1184 1657 l 2,36,37
 1194 1665 1194 1665 1208 1665 c 0,38,39
 1241 1665 1241 1665 1268.5 1614 c 128,-1,40
 1296 1563 1296 1563 1296 1513 c 0,41,42
 1297 1366 1297 1366 1139 1335 c 1,16,17
747.5 143 m 128,-1,44
 965 143 965 143 1079.5 290.5 c 128,-1,45
 1194 438 1194 438 1194 719.5 c 128,-1,46
 1194 1001 1194 1001 1079.5 1145.5 c 128,-1,47
 965 1290 965 1290 747.5 1290 c 128,-1,48
 530 1290 530 1290 416.5 1145.5 c 128,-1,49
 303 1001 303 1001 303 719.5 c 128,-1,50
 303 438 303 438 416.5 290.5 c 128,-1,43
 530 143 530 143 747.5 143 c 128,-1,44
EndSplineSet
Position2: "'cpsp' Capital Spacing lookup 0 subtable" dx=10 dy=0 dh=20 dv=0
EndChar

StartChar: Ohungarumlaut
Encoding: 336 336 124
Width: 1497
GlyphClass: 2
Flags: MW
HStem: -12 156<603 892 603 953> 1290 156<603 892> 1561 301<551 799 733 890>
VStem: 117 186<532 909 532 961> 1194 186<532 909>
AnchorPoint: "Anchor-1" 768 1796 basechar 0
AnchorPoint: "Anchor-0" 752 0 basechar 0
LayerCount: 2
Fore
SplineSet
639 1808 m 0,0,1
 670 1861 670 1861 767 1861.5 c 128,-1,2
 864 1862 864 1862 864 1835 c 0,3,4
 864 1821 864 1821 844.5 1796.5 c 128,-1,5
 825 1772 825 1772 764 1702 c 2,6,-1
 672 1597 l 2,7,8
 639 1560 639 1560 579.5 1560.5 c 128,-1,9
 520 1561 520 1561 520 1581 c 128,-1,10
 520 1601 520 1601 639 1808 c 0,0,1
940 1808 m 0,11,12
 971 1861 971 1861 1068 1861.5 c 128,-1,13
 1165 1862 1165 1862 1165 1835 c 0,14,15
 1165 1821 1165 1821 1145.5 1796.5 c 128,-1,16
 1126 1772 1126 1772 1065 1702 c 2,17,-1
 973 1597 l 2,18,19
 938 1560 938 1560 879.5 1560.5 c 128,-1,20
 821 1561 821 1561 821 1581 c 128,-1,21
 821 1601 821 1601 940 1808 c 0,11,12
747.5 1446 m 128,-1,23
 1057 1446 1057 1446 1218.5 1262.5 c 128,-1,24
 1380 1079 1380 1079 1380 720.5 c 128,-1,25
 1380 362 1380 362 1218.5 175 c 128,-1,26
 1057 -12 1057 -12 748.5 -12 c 128,-1,27
 440 -12 440 -12 278.5 175 c 128,-1,28
 117 362 117 362 117 720.5 c 128,-1,29
 117 1079 117 1079 277.5 1262.5 c 128,-1,22
 438 1446 438 1446 747.5 1446 c 128,-1,23
747.5 1290 m 128,-1,31
 530 1290 530 1290 416.5 1145.5 c 128,-1,32
 303 1001 303 1001 303 719.5 c 128,-1,33
 303 438 303 438 416.5 290.5 c 128,-1,34
 530 143 530 143 747.5 143 c 128,-1,35
 965 143 965 143 1079.5 290.5 c 128,-1,36
 1194 438 1194 438 1194 719.5 c 128,-1,37
 1194 1001 1194 1001 1079.5 1145.5 c 128,-1,30
 965 1290 965 1290 747.5 1290 c 128,-1,31
EndSplineSet
Position2: "'cpsp' Capital Spacing lookup 0 subtable" dx=10 dy=0 dh=20 dv=0
EndChar

StartChar: Omacron
Encoding: 332 332 125
Width: 1497
GlyphClass: 2
Flags: MW
HStem: -12 156<603 892 603 953> 1290 156<603 892> 1616 143<508 979 522 979>
VStem: 117 186<532 909 532 961> 1194 186<532 909>
AnchorPoint: "Anchor-1" 748 1796 basechar 0
AnchorPoint: "Anchor-0" 752 0 basechar 0
LayerCount: 2
Fore
SplineSet
522 1759 m 2,0,-1
 979 1759 l 2,1,2
 1020 1759 1020 1759 1020 1698 c 2,3,-1
 1020 1677 l 2,4,5
 1020 1616 1020 1616 979 1616 c 2,6,-1
 522 1616 l 2,7,8
 481 1616 481 1616 481 1677 c 2,9,-1
 481 1698 l 2,10,11
 481 1759 481 1759 522 1759 c 2,0,-1
747.5 1446 m 128,-1,13
 1057 1446 1057 1446 1218.5 1262.5 c 128,-1,14
 1380 1079 1380 1079 1380 720.5 c 128,-1,15
 1380 362 1380 362 1218.5 175 c 128,-1,16
 1057 -12 1057 -12 749 -12 c 0,17,18
 441 -12 441 -12 279 175 c 128,-1,19
 117 362 117 362 117 720.5 c 128,-1,20
 117 1079 117 1079 277.5 1262.5 c 128,-1,12
 438 1446 438 1446 747.5 1446 c 128,-1,13
747.5 1290 m 128,-1,22
 530 1290 530 1290 416.5 1145.5 c 128,-1,23
 303 1001 303 1001 303 720 c 0,24,25
 303 438 303 438 416.5 290.5 c 128,-1,26
 530 143 530 143 747.5 143 c 128,-1,27
 965 143 965 143 1079.5 290.5 c 128,-1,28
 1194 438 1194 438 1194 720 c 0,29,30
 1194 1002 1194 1002 1079.5 1146 c 128,-1,21
 965 1290 965 1290 747.5 1290 c 128,-1,22
EndSplineSet
Position2: "'cpsp' Capital Spacing lookup 0 subtable" dx=10 dy=0 dh=20 dv=0
EndChar

StartChar: Oogonek
Encoding: 490 490 126
Width: 1497
GlyphClass: 2
Flags: MW
HStem: -375 143<986 1025 986 1038> -12 156<603 748 748 786> 1290 156<603 892>
VStem: 117 186<532 909 532 961> 745 137<-176 -147> 1194 186<532 909>
AnchorPoint: "Anchor-1" 750 1434 basechar 0
AnchorPoint: "Anchor-0" 729 -416 basechar 0
LayerCount: 2
Fore
SplineSet
1010 -231 m 1,0,-1
 1116 -211 l 1,1,2
 1155 -211 1155 -211 1155 -269.5 c 128,-1,3
 1155 -328 1155 -328 1113 -351.5 c 128,-1,4
 1071 -375 1071 -375 991 -375 c 128,-1,5
 911 -375 911 -375 858 -351.5 c 128,-1,6
 805 -328 805 -328 783 -291 c 0,7,8
 745 -226 745 -226 745 -146 c 128,-1,9
 745 -66 745 -66 786 -12 c 1,10,-1
 748 -12 l 2,11,12
 441 -12 441 -12 279 175 c 128,-1,13
 117 362 117 362 117 720.5 c 128,-1,14
 117 1079 117 1079 277.5 1262.5 c 128,-1,15
 438 1446 438 1446 747.5 1446 c 128,-1,16
 1057 1446 1057 1446 1218.5 1262.5 c 128,-1,17
 1380 1079 1380 1079 1380 745 c 0,18,19
 1380 94 1380 94 907 2 c 1,20,-1
 907 -2 l 2,21,22
 907 -14 907 -14 895 -57 c 128,-1,23
 883 -100 883 -100 883 -127 c 0,24,25
 883 -231 883 -231 1010 -231 c 1,0,-1
747.5 143 m 128,-1,27
 965 143 965 143 1079.5 290.5 c 128,-1,28
 1194 438 1194 438 1194 719.5 c 128,-1,29
 1194 1001 1194 1001 1079.5 1145.5 c 128,-1,30
 965 1290 965 1290 747.5 1290 c 128,-1,31
 530 1290 530 1290 416.5 1145.5 c 128,-1,32
 303 1001 303 1001 303 719.5 c 128,-1,33
 303 438 303 438 416.5 290.5 c 128,-1,26
 530 143 530 143 747.5 143 c 128,-1,27
EndSplineSet
Position2: "'cpsp' Capital Spacing lookup 0 subtable" dx=10 dy=0 dh=20 dv=0
EndChar

StartChar: Oslash
Encoding: 216 216 127
Width: 1497
GlyphClass: 2
Flags: MW
HStem: -12 156<671 892 671 953> 1290 156<603 815> 1397 41G<1320 1334>
VStem: 117 186<653 909 653 961> 1194 186<532 800>
AnchorPoint: "Anchor-1" 750 1434 basechar 0
AnchorPoint: "Anchor-0" 0 0 basechar 0
LayerCount: 2
Fore
SplineSet
277.5 1262.5 m 128,-1,1
 438 1446 438 1446 730 1446 c 128,-1,2
 1022 1446 1022 1446 1184 1296 c 1,3,-1
 1296 1421 l 2,4,5
 1310 1437 1310 1437 1324.5 1437.5 c 128,-1,6
 1339 1438 1339 1438 1354.5 1423.5 c 128,-1,7
 1370 1409 1370 1409 1370 1395.5 c 128,-1,8
 1370 1382 1370 1382 1358 1368 c 2,9,-1
 1239 1237 l 1,10,11
 1380 1053 1380 1053 1380 707.5 c 128,-1,12
 1380 362 1380 362 1218.5 175 c 128,-1,13
 1057 -12 1057 -12 748.5 -12 c 128,-1,14
 440 -12 440 -12 281 172 c 1,15,-1
 143 20 l 2,16,17
 127 2 127 2 113.5 2 c 128,-1,18
 100 2 100 2 85 16.5 c 128,-1,19
 70 31 70 31 70 44 c 128,-1,20
 70 57 70 57 82 74 c 2,21,-1
 231 238 l 1,22,23
 116 420 116 420 117 721 c 0,24,0
 117 1079 117 1079 277.5 1262.5 c 128,-1,1
1063 1163 m 1,25,26
 952 1290 952 1290 741 1290 c 128,-1,27
 530 1290 530 1290 416.5 1145.5 c 128,-1,28
 303 1001 303 1001 303 721 c 0,29,30
 303 520 303 520 362 383 c 1,31,-1
 1063 1163 l 1,25,26
1112 1098 m 1,32,-1
 403 309 l 1,33,34
 514 143 514 143 739.5 143 c 128,-1,35
 965 143 965 143 1079.5 290.5 c 128,-1,36
 1194 438 1194 438 1194 697.5 c 128,-1,37
 1194 957 1194 957 1112 1098 c 1,32,-1
EndSplineSet
Position2: "'cpsp' Capital Spacing lookup 0 subtable" dx=10 dy=0 dh=20 dv=0
EndChar

StartChar: Oslashacute
Encoding: 510 510 128
Width: 1497
GlyphClass: 2
Flags: MW
HStem: -12 156<671 892 671 953> 1290 156<603 815> 1397 41G<1320 1334>
VStem: 117 186<653 909 653 961> 1194 186<532 800>
AnchorPoint: "Anchor-1" 762 1796 basechar 0
AnchorPoint: "Anchor-0" 0 0 basechar 0
LayerCount: 2
Fore
SplineSet
786 1808 m 0,0,1
 817 1861 817 1861 914.5 1861.5 c 128,-1,2
 1012 1862 1012 1862 1012 1835 c 0,3,4
 1012 1821 1012 1821 992.5 1796.5 c 128,-1,5
 973 1772 973 1772 911 1702 c 2,6,-1
 819 1597 l 2,7,8
 786 1560 786 1560 727 1560.5 c 128,-1,9
 668 1561 668 1561 667.5 1581 c 128,-1,10
 667 1601 667 1601 786 1808 c 0,0,1
277.5 1262.5 m 128,-1,12
 438 1446 438 1446 730 1446 c 128,-1,13
 1022 1446 1022 1446 1184 1296 c 1,14,-1
 1296 1421 l 2,15,16
 1310 1437 1310 1437 1324.5 1437.5 c 128,-1,17
 1339 1438 1339 1438 1354.5 1423.5 c 128,-1,18
 1370 1409 1370 1409 1370 1395.5 c 128,-1,19
 1370 1382 1370 1382 1358 1368 c 2,20,-1
 1239 1237 l 1,21,22
 1380 1053 1380 1053 1380 707.5 c 128,-1,23
 1380 362 1380 362 1218.5 175 c 128,-1,24
 1057 -12 1057 -12 748.5 -12 c 128,-1,25
 440 -12 440 -12 281 172 c 1,26,-1
 143 20 l 2,27,28
 127 2 127 2 113.5 2 c 128,-1,29
 100 2 100 2 85 16.5 c 128,-1,30
 70 31 70 31 70 44 c 128,-1,31
 70 57 70 57 82 74 c 2,32,-1
 231 238 l 1,33,34
 116 420 116 420 117 721 c 0,35,11
 117 1079 117 1079 277.5 1262.5 c 128,-1,12
1063 1163 m 1,36,37
 952 1290 952 1290 741 1290 c 128,-1,38
 530 1290 530 1290 416.5 1145.5 c 128,-1,39
 303 1001 303 1001 303 721 c 0,40,41
 303 520 303 520 362 383 c 1,42,-1
 1063 1163 l 1,36,37
1112 1098 m 1,43,-1
 403 309 l 1,44,45
 514 143 514 143 739.5 143 c 128,-1,46
 965 143 965 143 1079.5 290.5 c 128,-1,47
 1194 438 1194 438 1194 697.5 c 128,-1,48
 1194 957 1194 957 1112 1098 c 1,43,-1
EndSplineSet
Position2: "'cpsp' Capital Spacing lookup 0 subtable" dx=10 dy=0 dh=20 dv=0
EndChar

StartChar: Otilde
Encoding: 213 213 129
Width: 1497
GlyphClass: 2
Flags: MW
HStem: -12 156<603 892 603 953> 1290 156<603 892> 1561 131<866 902> 1622 131<599 636>
VStem: 117 186<532 909 532 961> 1194 186<532 909>
AnchorPoint: "Anchor-1" 770 1796 basechar 0
AnchorPoint: "Anchor-0" 752 0 basechar 0
LayerCount: 2
Fore
SplineSet
1006 1739 m 0,0,1
 1045 1766 1045 1766 1079 1724 c 0,2,3
 1114 1683 1114 1683 1071 1645 c 0,4,5
 956 1561 956 1561 868 1561 c 0,6,7
 780 1561 780 1561 715 1591 c 0,8,9
 649 1622 649 1622 605 1622 c 0,10,11
 561 1622 561 1622 508 1586 c 0,12,13
 455 1550 455 1550 421 1596 c 0,14,15
 387 1642 387 1642 428 1671 c 0,16,17
 547 1753 547 1753 627 1753 c 0,18,19
 707 1753 707 1753 768 1722 c 0,20,21
 829 1691 829 1691 882 1692 c 0,22,23
 934 1692 934 1692 1006 1739 c 0,0,1
747.5 1446 m 128,-1,25
 1057 1446 1057 1446 1218.5 1262.5 c 128,-1,26
 1380 1079 1380 1079 1380 720.5 c 128,-1,27
 1380 362 1380 362 1218.5 175 c 128,-1,28
 1057 -12 1057 -12 749 -12 c 0,29,30
 441 -12 441 -12 279 175 c 128,-1,31
 117 362 117 362 117 720.5 c 128,-1,32
 117 1079 117 1079 277.5 1262.5 c 128,-1,24
 438 1446 438 1446 747.5 1446 c 128,-1,25
747.5 1290 m 128,-1,34
 530 1290 530 1290 416.5 1145.5 c 128,-1,35
 303 1001 303 1001 303 720 c 0,36,37
 303 438 303 438 416.5 290.5 c 128,-1,38
 530 143 530 143 747.5 143 c 128,-1,39
 965 143 965 143 1079.5 290.5 c 128,-1,40
 1194 438 1194 438 1194 720 c 0,41,42
 1194 1002 1194 1002 1079.5 1146 c 128,-1,33
 965 1290 965 1290 747.5 1290 c 128,-1,34
EndSplineSet
Position2: "'cpsp' Capital Spacing lookup 0 subtable" dx=10 dy=0 dh=20 dv=0
EndChar

StartChar: OE
Encoding: 338 338 130
Width: 2091
GlyphClass: 2
Flags: MW
HStem: -12 156<603 846> 0 156<1238 1982 1378 1982 1378 1982> 655 156<1378 1919 1378 1919> 1278 156<1198 1980 1378 1378 1378 1980> 1290 156<603 846 543 892>
VStem: 117 186<532 909 532 961> 1198 180<156 156 156 160 160 160>
AnchorPoint: "Anchor-1" 1047 1434 basechar 0
AnchorPoint: "Anchor-0" 0 0 basechar 0
LayerCount: 2
Fore
SplineSet
1378 156 m 1,0,-1
 1982 156 l 2,1,2
 2023 156 2023 156 2023 94 c 2,3,-1
 2023 61 l 2,4,5
 2023 0 2023 0 1982 0 c 2,6,-1
 1260 0 l 2,7,8
 1199 0 1199 0 1198 61 c 2,9,-1
 1198 160 l 1,10,11
 1040 -12 1040 -12 740 -12 c 0,12,13
 440 -12 440 -12 278.5 175 c 128,-1,14
 117 362 117 362 117 720.5 c 128,-1,15
 117 1079 117 1079 277.5 1262.5 c 128,-1,16
 438 1446 438 1446 739 1446 c 0,17,18
 1040 1446 1040 1446 1198 1278 c 1,19,-1
 1198 1372 l 2,20,21
 1198 1433 1198 1433 1260 1434 c 2,22,-1
 1980 1434 l 2,23,24
 2021 1434 2021 1434 2021 1372 c 2,25,-1
 2021 1339 l 2,26,27
 2021 1278 2021 1278 1980 1278 c 2,28,-1
 1378 1278 l 1,29,-1
 1378 811 l 1,30,-1
 1919 811 l 2,31,32
 1960 811 1960 811 1960 750 c 2,33,-1
 1960 717 l 2,34,35
 1960 656 1960 656 1919 655 c 2,36,-1
 1378 655 l 1,37,-1
 1378 156 l 1,0,-1
747.5 143 m 128,-1,39
 965 143 965 143 1079.5 290.5 c 128,-1,40
 1194 438 1194 438 1194 720 c 0,41,42
 1194 1002 1194 1002 1079.5 1146 c 128,-1,43
 965 1290 965 1290 747.5 1290 c 128,-1,44
 530 1290 530 1290 416.5 1145.5 c 128,-1,45
 303 1001 303 1001 303 720 c 0,46,47
 303 438 303 438 416.5 290.5 c 128,-1,38
 530 143 530 143 747.5 143 c 128,-1,39
EndSplineSet
Position2: "'cpsp' Capital Spacing lookup 0 subtable" dx=10 dy=0 dh=20 dv=0
EndChar

StartChar: P
Encoding: 80 80 131
Width: 1167
GlyphClass: 2
Flags: MW
HStem: 610 156<354 672 354 674> 1278 156<354 354 354 645>
VStem: 174 180<41 610 766 1278> 922 186<921 1134>
LayerCount: 2
Fore
SplineSet
236 1434 m 2,0,-1
 651 1434 l 2,1,2
 809 1434 809 1434 943 1364 c 0,3,4
 1018 1325 1018 1325 1063 1240 c 128,-1,5
 1108 1155 1108 1155 1108 1040.5 c 128,-1,6
 1108 926 1108 926 1072 845 c 128,-1,7
 1036 764 1036 764 986 721 c 128,-1,8
 936 678 936 678 870 651 c 0,9,10
 769 610 769 610 672 610 c 2,11,-1
 354 610 l 1,12,-1
 354 41 l 2,13,14
 354 -4 354 -4 272 -4 c 2,15,-1
 256 -4 l 2,16,17
 174 -4 174 -4 174 41 c 2,18,-1
 174 1372 l 2,19,20
 175 1434 175 1434 236 1434 c 2,0,-1
354 1278 m 1,21,-1
 354 766 l 1,22,-1
 674 766 l 2,23,24
 752 766 752 766 827 815 c 0,25,26
 868 842 868 842 895 898 c 128,-1,27
 922 954 922 954 922 1032 c 0,28,29
 922 1169 922 1169 840 1223.5 c 128,-1,30
 758 1278 758 1278 645 1278 c 2,31,-1
 354 1278 l 1,21,-1
EndSplineSet
Position2: "'cpsp' Capital Spacing lookup 0 subtable" dx=10 dy=0 dh=20 dv=0
EndChar

StartChar: Thorn
Encoding: 222 222 132
Width: 1161
GlyphClass: 2
Flags: MW
HStem: 360 156<354 672 354 674> 1028 156<354 651 354 645> 1397 41G<256 272 272 301>
VStem: 174 180<41 360 516 1028 1184 1393> 922 186<671 884>
LayerCount: 2
Fore
SplineSet
256 1438 m 2,0,-1
 272 1438 l 2,1,2
 354 1438 354 1438 354 1393 c 2,3,-1
 354 1184 l 1,4,-1
 651 1184 l 2,5,6
 809 1184 809 1184 943 1114 c 0,7,8
 1018 1075 1018 1075 1063 990 c 128,-1,9
 1108 905 1108 905 1108 790.5 c 128,-1,10
 1108 676 1108 676 1072 595 c 128,-1,11
 1036 514 1036 514 986 471 c 128,-1,12
 936 428 936 428 870 401 c 0,13,14
 769 360 769 360 672 360 c 2,15,-1
 354 360 l 1,16,-1
 354 41 l 2,17,18
 354 -4 354 -4 272 -4 c 2,19,-1
 256 -4 l 2,20,21
 174 -4 174 -4 174 41 c 2,22,-1
 174 1393 l 2,23,24
 174 1438 174 1438 256 1438 c 2,0,-1
354 1028 m 1,25,-1
 354 516 l 1,26,-1
 674 516 l 2,27,28
 752 516 752 516 827 565 c 0,29,30
 868 592 868 592 895 648.5 c 128,-1,31
 922 705 922 705 922 782 c 0,32,33
 922 919 922 919 840 973.5 c 128,-1,34
 758 1028 758 1028 645 1028 c 2,35,-1
 354 1028 l 1,25,-1
EndSplineSet
Position2: "'cpsp' Capital Spacing lookup 0 subtable" dx=10 dy=0 dh=20 dv=0
EndChar

StartChar: Q
Encoding: 81 81 133
Width: 1497
GlyphClass: 2
Flags: MW
HStem: -39 41G<969 969> 1290 156<606 890>
VStem: 117 186<527 898 524 951> 1194 186<525 897>
LayerCount: 2
Fore
SplineSet
278.5 1258.5 m 128,-1,1
 440 1446 440 1446 748.5 1446 c 128,-1,2
 1057 1446 1057 1446 1218.5 1257.5 c 128,-1,3
 1380 1069 1380 1069 1380 711 c 0,4,5
 1380 420 1380 420 1274.5 241.5 c 128,-1,6
 1169 63 1169 63 969 10 c 1,7,-1
 969 2 l 1,8,-1
 1372 -125 l 2,9,10
 1401 -135 1401 -135 1401 -159.5 c 128,-1,11
 1401 -184 1401 -184 1373.5 -243.5 c 128,-1,12
 1346 -303 1346 -303 1315 -303 c 0,13,14
 1299 -303 1299 -303 950.5 -166 c 128,-1,15
 602 -29 602 -29 504 12 c 0,16,17
 117 166 117 166 117 711 c 0,18,0
 117 1071 117 1071 278.5 1258.5 c 128,-1,1
748 1290 m 128,-1,20
 535 1290 535 1290 419 1140.5 c 128,-1,21
 303 991 303 991 303 711.5 c 128,-1,22
 303 432 303 432 419 284.5 c 128,-1,23
 535 137 535 137 749 137 c 128,-1,24
 963 137 963 137 1078.5 285.5 c 128,-1,25
 1194 434 1194 434 1194 711.5 c 128,-1,26
 1194 989 1194 989 1077.5 1139.5 c 128,-1,19
 961 1290 961 1290 748 1290 c 128,-1,20
EndSplineSet
Position2: "'cpsp' Capital Spacing lookup 0 subtable" dx=10 dy=0 dh=20 dv=0
EndChar

StartChar: R
Encoding: 82 82 134
Width: 1249
GlyphClass: 2
Flags: MW
HStem: 631 156<379 563 379 649> 1278 156<379 379 379 604 604 635>
VStem: 199 180<41 631 786 1278> 911 186<983 1121>
AnchorPoint: "Anchor-1" 625 1434 basechar 0
AnchorPoint: "Anchor-0" 625 0 basechar 0
LayerCount: 2
Fore
SplineSet
260 1434 m 2,0,-1
 604 1434 l 2,1,2
 850 1434 850 1434 974 1347 c 128,-1,3
 1098 1260 1098 1260 1098 1071 c 0,4,5
 1098 819 1098 819 862 725 c 1,6,-1
 862 717 l 1,7,8
 921 697 921 697 961 637.5 c 128,-1,9
 1001 578 1001 578 1047 461 c 2,10,-1
 1206 57 l 2,11,12
 1212 39 1212 39 1212 29 c 0,13,14
 1212 -4 1212 -4 1126 -4 c 2,15,-1
 1106 -4 l 2,16,17
 1036 -4 1036 -4 1024 29 c 2,18,-1
 868 430 l 2,19,20
 823 547 823 547 755.5 589 c 128,-1,21
 688 631 688 631 563 631 c 2,22,-1
 379 631 l 1,23,-1
 379 41 l 2,24,25
 379 -4 379 -4 297 -4 c 2,26,-1
 281 -4 l 2,27,28
 199 -4 199 -4 199 41 c 2,29,-1
 199 1372 l 2,30,31
 199 1434 199 1434 260 1434 c 2,0,-1
379 1278 m 1,32,-1
 379 786 l 1,33,-1
 649 786 l 2,34,35
 758 786 758 786 834.5 861 c 128,-1,36
 911 936 911 936 911 1048 c 0,37,38
 911 1160 911 1160 837.5 1219 c 128,-1,39
 764 1278 764 1278 635 1278 c 2,40,-1
 379 1278 l 1,32,-1
EndSplineSet
Position2: "'cpsp' Capital Spacing lookup 0 subtable" dx=10 dy=0 dh=20 dv=0
EndChar

StartChar: Racute
Encoding: 340 340 135
Width: 1249
GlyphClass: 2
Flags: MW
HStem: 631 156<379 563 379 649> 1278 156<379 379 379 604 604 635>
VStem: 199 180<41 631 786 1278> 911 186<983 1121>
AnchorPoint: "Anchor-1" 637 1796 basechar 0
AnchorPoint: "Anchor-0" 625 0 basechar 0
LayerCount: 2
Fore
SplineSet
662 1808 m 0,0,1
 693 1861 693 1861 790 1861.5 c 128,-1,2
 887 1862 887 1862 887 1835 c 0,3,4
 887 1821 887 1821 867.5 1796.5 c 128,-1,5
 848 1772 848 1772 786 1702 c 2,6,-1
 694 1597 l 2,7,8
 659 1560 659 1560 601 1560.5 c 128,-1,9
 543 1561 543 1561 543 1581 c 128,-1,10
 543 1601 543 1601 662 1808 c 0,0,1
260 1434 m 2,11,-1
 604 1434 l 2,12,13
 850 1434 850 1434 974 1347 c 128,-1,14
 1098 1260 1098 1260 1098 1071 c 0,15,16
 1098 819 1098 819 862 725 c 1,17,-1
 862 717 l 1,18,19
 921 697 921 697 961 637.5 c 128,-1,20
 1001 578 1001 578 1047 461 c 2,21,-1
 1206 57 l 2,22,23
 1212 39 1212 39 1212 29 c 0,24,25
 1212 -4 1212 -4 1126 -4 c 2,26,-1
 1106 -4 l 2,27,28
 1036 -4 1036 -4 1024 29 c 2,29,-1
 868 430 l 2,30,31
 823 547 823 547 755.5 589 c 128,-1,32
 688 631 688 631 563 631 c 2,33,-1
 379 631 l 1,34,-1
 379 41 l 2,35,36
 379 -4 379 -4 297 -4 c 2,37,-1
 281 -4 l 2,38,39
 199 -4 199 -4 199 41 c 2,40,-1
 199 1372 l 2,41,42
 199 1434 199 1434 260 1434 c 2,11,-1
379 1278 m 1,43,-1
 379 786 l 1,44,-1
 649 786 l 2,45,46
 758 786 758 786 834.5 861 c 128,-1,47
 911 936 911 936 911 1047.5 c 128,-1,48
 911 1159 911 1159 837.5 1218.5 c 128,-1,49
 764 1278 764 1278 635 1278 c 2,50,-1
 379 1278 l 1,43,-1
EndSplineSet
Position2: "'cpsp' Capital Spacing lookup 0 subtable" dx=10 dy=0 dh=20 dv=0
EndChar

